NotoNastaliqUrdu-Regular.ufo
<glyph name="exclam" format="2">
  <advance width="600"/>
  <unicode hex="0021"/>
  <note>
exclam
</note>
  <outline>
    <contour>
      <point x="269" y="267" type="curve"/>
      <point x="289" y="267" type="line"/>
      <point x="294" y="305"/>
      <point x="301" y="341"/>
      <point x="306" y="376" type="curve" smooth="yes"/>
      <point x="325" y="523"/>
      <point x="329" y="576"/>
      <point x="329" y="718" type="curve" smooth="yes"/>
      <point x="329" y="772"/>
      <point x="321" y="839"/>
      <point x="315" y="870" type="curve"/>
      <point x="306" y="870" type="line"/>
      <point x="293" y="859"/>
      <point x="243" y="783"/>
      <point x="236" y="745" type="curve"/>
      <point x="236" y="734" type="line" smooth="yes"/>
      <point x="236" y="715"/>
      <point x="240" y="671"/>
      <point x="247" y="606" type="curve" smooth="yes"/>
      <point x="255" y="527" type="line" smooth="yes"/>
      <point x="264" y="443"/>
      <point x="266" y="361"/>
    </contour>
    <contour>
      <point x="265" y="20" type="curve"/>
      <point x="273" y="20" type="line"/>
      <point x="328" y="62"/>
      <point x="353" y="87"/>
      <point x="353" y="111" type="curve" smooth="yes"/>
      <point x="353" y="136"/>
      <point x="329" y="159"/>
      <point x="278" y="191" type="curve"/>
      <point x="269" y="191" type="line"/>
      <point x="252" y="181"/>
      <point x="201" y="125"/>
      <point x="186" y="100" type="curve"/>
      <point x="186" y="90" type="line"/>
      <point x="214" y="71"/>
      <point x="246" y="41"/>
    </contour>
  </outline>
</glyph>
<glyph name="parenleft" format="2">
  <advance width="380"/>
  <unicode hex="0028"/>
  <note>
parenleft
</note>
  <outline>
    <contour>
      <point x="348" y="-218" type="curve"/>
      <point x="366" y="-191" type="line"/>
      <point x="206" y="-89"/>
      <point x="147" y="110"/>
      <point x="147" y="340" type="curve" smooth="yes"/>
      <point x="147" y="556"/>
      <point x="208" y="746"/>
      <point x="369" y="848" type="curve"/>
      <point x="352" y="875" type="line"/>
      <point x="165" y="776"/>
      <point x="41" y="555"/>
      <point x="41" y="333" type="curve" smooth="yes"/>
      <point x="41" y="92"/>
      <point x="145" y="-110"/>
    </contour>
  </outline>
</glyph>
<glyph name="parenright" format="2">
  <advance width="380"/>
  <unicode hex="0029"/>
  <note>
parenright
</note>
  <outline>
    <contour>
      <point x="28" y="-218" type="line"/>
      <point x="218" y="-111"/>
      <point x="339" y="104"/>
      <point x="339" y="324" type="curve" smooth="yes"/>
      <point x="339" y="565"/>
      <point x="237" y="765"/>
      <point x="32" y="875" type="curve"/>
      <point x="14" y="848" type="line"/>
      <point x="174" y="746"/>
      <point x="233" y="542"/>
      <point x="233" y="317" type="curve" smooth="yes"/>
      <point x="233" y="107"/>
      <point x="174" y="-88"/>
      <point x="11" y="-191" type="curve"/>
    </contour>
  </outline>
</glyph>
<glyph name="plus" format="2">
  <advance width="567"/>
  <unicode hex="002B"/>
  <note>
plus
</note>
  <outline>
    <contour>
      <point x="261" y="85" type="line"/>
      <point x="304" y="85" type="line"/>
      <point x="304" y="291" type="line"/>
      <point x="518" y="291" type="line"/>
      <point x="518" y="334" type="line"/>
      <point x="304" y="334" type="line"/>
      <point x="304" y="539" type="line"/>
      <point x="261" y="539" type="line"/>
      <point x="261" y="334" type="line"/>
      <point x="50" y="334" type="line"/>
      <point x="50" y="291" type="line"/>
      <point x="261" y="291" type="line"/>
    </contour>
  </outline>
</glyph>
<glyph name="comma" format="2">
  <advance width="357"/>
  <unicode hex="002C"/>
  <note>
comma
</note>
  <outline>
    <contour>
      <point x="144" y="-146" type="line"/>
      <point x="208" y="-78"/>
      <point x="254" y="15"/>
      <point x="254" y="81" type="curve" smooth="yes"/>
      <point x="254" y="104"/>
      <point x="247" y="125"/>
      <point x="233" y="143" type="curve" smooth="yes"/>
      <point x="226" y="152"/>
      <point x="209" y="167"/>
      <point x="181" y="189" type="curve"/>
      <point x="171" y="189" type="line"/>
      <point x="117" y="150"/>
      <point x="90" y="118"/>
      <point x="90" y="94" type="curve" smooth="yes"/>
      <point x="90" y="82"/>
      <point x="97" y="69"/>
      <point x="110" y="57" type="curve" smooth="yes"/>
      <point x="140" y="30"/>
      <point x="159" y="14"/>
      <point x="167" y="5" type="curve" smooth="yes"/>
      <point x="174" y="-3"/>
      <point x="178" y="-13"/>
      <point x="178" y="-23" type="curve" smooth="yes"/>
      <point x="178" y="-49"/>
      <point x="153" y="-92"/>
      <point x="126" y="-133" type="curve"/>
    </contour>
  </outline>
</glyph>
<glyph name="hyphen" format="2">
  <advance width="473"/>
  <unicode hex="002D"/>
  <note>
hyphen
</note>
  <outline>
    <contour>
      <point x="66" y="275" type="line"/>
      <point x="400" y="275" type="line"/>
      <point x="407" y="338" type="line"/>
      <point x="73" y="338" type="line"/>
    </contour>
  </outline>
</glyph>
<glyph name="period" format="2">
  <advance width="258"/>
  <unicode hex="002E"/>
  <note>
period
</note>
  <outline>
    <contour>
      <point x="125" y="20" type="curve"/>
      <point x="134" y="20" type="line"/>
      <point x="188" y="58"/>
      <point x="216" y="91"/>
      <point x="216" y="114" type="curve" smooth="yes"/>
      <point x="216" y="144"/>
      <point x="188" y="167"/>
      <point x="138" y="199" type="curve"/>
      <point x="129" y="199" type="line"/>
      <point x="118" y="191"/>
      <point x="63" y="135"/>
      <point x="42" y="103" type="curve"/>
      <point x="42" y="94" type="line"/>
      <point x="70" y="71"/>
      <point x="97" y="48"/>
    </contour>
  </outline>
</glyph>
<glyph name="slash" format="2">
  <advance width="564"/>
  <unicode hex="002F"/>
  <note>
slash
</note>
  <outline>
    <contour>
      <point x="104" y="-111" type="line"/>
      <point x="175" y="44"/>
      <point x="237" y="176"/>
      <point x="306" y="320" type="curve" smooth="yes"/>
      <point x="380" y="475"/>
      <point x="459" y="634"/>
      <point x="524" y="762" type="curve"/>
      <point x="479" y="776" type="line"/>
      <point x="403" y="630"/>
      <point x="340" y="503"/>
      <point x="265" y="347" type="curve" smooth="yes"/>
      <point x="201" y="214"/>
      <point x="131" y="64"/>
      <point x="62" y="-93" type="curve"/>
    </contour>
  </outline>
</glyph>
<glyph name="zero" format="2">
  <advance width="554"/>
  <unicode hex="0030"/>
  <note>
zero
</note>
  <outline>
    <contour>
      <point x="278" y="0" type="curve" smooth="yes"/>
      <point x="435" y="0"/>
      <point x="523" y="138"/>
      <point x="523" y="340" type="curve" smooth="yes"/>
      <point x="523" y="517"/>
      <point x="440" y="663"/>
      <point x="279" y="663" type="curve" smooth="yes"/>
      <point x="114" y="663"/>
      <point x="31" y="518"/>
      <point x="31" y="341" type="curve" smooth="yes"/>
      <point x="31" y="158"/>
      <point x="107" y="0"/>
    </contour>
    <contour>
      <point x="278" y="39" type="curve" smooth="yes"/>
      <point x="208" y="39"/>
      <point x="157" y="104"/>
      <point x="157" y="340" type="curve" smooth="yes"/>
      <point x="157" y="550"/>
      <point x="204" y="623"/>
      <point x="279" y="623" type="curve" smooth="yes"/>
      <point x="352" y="623"/>
      <point x="397" y="549"/>
      <point x="397" y="340" type="curve" smooth="yes"/>
      <point x="397" y="190"/>
      <point x="381" y="39"/>
    </contour>
  </outline>
</glyph>
<glyph name="one" format="2">
  <advance width="554"/>
  <unicode hex="0031"/>
  <note>
one
</note>
  <outline>
    <contour>
      <point x="234" y="0" type="line"/>
      <point x="253" y="0" type="line"/>
      <point x="323" y="70"/>
      <point x="342" y="103"/>
      <point x="342" y="192" type="curve" smooth="yes"/>
      <point x="342" y="663" type="line"/>
      <point x="326" y="671" type="line"/>
      <point x="218" y="608"/>
      <point x="134" y="562"/>
      <point x="75" y="533" type="curve"/>
      <point x="92" y="501" type="line"/>
      <point x="118" y="514"/>
      <point x="157" y="536"/>
      <point x="234" y="578" type="curve"/>
    </contour>
  </outline>
</glyph>
<glyph name="two" format="2">
  <advance width="554"/>
  <unicode hex="0032"/>
  <note>
two
</note>
  <outline>
    <contour>
      <point x="104" y="-1" type="line"/>
      <point x="149" y="16"/>
      <point x="208" y="24"/>
      <point x="279" y="24" type="curve" smooth="yes"/>
      <point x="358" y="24"/>
      <point x="418" y="16"/>
      <point x="458" y="0" type="curve"/>
      <point x="472" y="0" type="line"/>
      <point x="482" y="32"/>
      <point x="487" y="51"/>
      <point x="487" y="72" type="curve" smooth="yes"/>
      <point x="487" y="94"/>
      <point x="479" y="109"/>
      <point x="454" y="121" type="curve" smooth="yes"/>
      <point x="416" y="139"/>
      <point x="370" y="144"/>
      <point x="319" y="144" type="curve" smooth="yes"/>
      <point x="259" y="144"/>
      <point x="222" y="138"/>
      <point x="165" y="120" type="curve"/>
      <point x="190" y="168"/>
      <point x="215" y="200"/>
      <point x="273" y="251" type="curve" smooth="yes"/>
      <point x="410" y="372"/>
      <point x="448" y="439"/>
      <point x="448" y="524" type="curve" smooth="yes"/>
      <point x="448" y="602"/>
      <point x="394" y="670"/>
      <point x="276" y="670" type="curve" smooth="yes"/>
      <point x="213" y="670"/>
      <point x="152" y="654"/>
      <point x="90" y="584" type="curve"/>
      <point x="115" y="556" type="line"/>
      <point x="158" y="604"/>
      <point x="195" y="622"/>
      <point x="240" y="622" type="curve" smooth="yes"/>
      <point x="319" y="622"/>
      <point x="339" y="553"/>
      <point x="339" y="504" type="curve" smooth="yes"/>
      <point x="339" y="433"/>
      <point x="315" y="376"/>
      <point x="220" y="268" type="curve" smooth="yes"/>
      <point x="125" y="159"/>
      <point x="92" y="85"/>
      <point x="83" y="4" type="curve"/>
    </contour>
  </outline>
</glyph>
<glyph name="three" format="2">
  <advance width="554"/>
  <unicode hex="0033"/>
  <note>
three
</note>
  <outline>
    <contour>
      <point x="252" y="0" type="curve" smooth="yes"/>
      <point x="344" y="0"/>
      <point x="461" y="62"/>
      <point x="461" y="202" type="curve" smooth="yes"/>
      <point x="461" y="311"/>
      <point x="361" y="366"/>
      <point x="310" y="373" type="curve"/>
      <point x="399" y="411"/>
      <point x="444" y="462"/>
      <point x="444" y="526" type="curve" smooth="yes"/>
      <point x="444" y="630"/>
      <point x="358" y="670"/>
      <point x="271" y="670" type="curve" smooth="yes"/>
      <point x="209" y="670"/>
      <point x="157" y="658"/>
      <point x="86" y="603" type="curve"/>
      <point x="111" y="573" type="line"/>
      <point x="151" y="606"/>
      <point x="192" y="622"/>
      <point x="234" y="622" type="curve" smooth="yes"/>
      <point x="292" y="622"/>
      <point x="334" y="586"/>
      <point x="334" y="514" type="curve" smooth="yes"/>
      <point x="334" y="439"/>
      <point x="274" y="396"/>
      <point x="207" y="373" type="curve" smooth="yes"/>
      <point x="178" y="363" type="line"/>
      <point x="192" y="325" type="line"/>
      <point x="251" y="340" type="line"/>
      <point x="323" y="331"/>
      <point x="345" y="259"/>
      <point x="345" y="206" type="curve" smooth="yes"/>
      <point x="345" y="92"/>
      <point x="288" y="48"/>
      <point x="213" y="48" type="curve" smooth="yes"/>
      <point x="153" y="48"/>
      <point x="119" y="71"/>
      <point x="65" y="112" type="curve"/>
      <point x="42" y="82" type="line"/>
      <point x="101" y="27"/>
      <point x="170" y="0"/>
    </contour>
  </outline>
</glyph>
<glyph name="four" format="2">
  <advance width="554"/>
  <unicode hex="0034"/>
  <note>
four
</note>
  <outline>
    <contour>
      <point x="304" y="0" type="line"/>
      <point x="326" y="0" type="line"/>
      <point x="379" y="17"/>
      <point x="407" y="44"/>
      <point x="407" y="101" type="curve" smooth="yes"/>
      <point x="407" y="196" type="line"/>
      <point x="449" y="196"/>
      <point x="482" y="195"/>
      <point x="509" y="194" type="curve"/>
      <point x="521" y="269" type="line"/>
      <point x="496" y="271"/>
      <point x="458" y="272"/>
      <point x="407" y="272" type="curve"/>
      <point x="407" y="670" type="line"/>
      <point x="377" y="670" type="line"/>
      <point x="257" y="544"/>
      <point x="175" y="431"/>
      <point x="26" y="205" type="curve"/>
      <point x="26" y="180" type="line"/>
      <point x="95" y="191"/>
      <point x="168" y="196"/>
      <point x="304" y="196" type="curve"/>
    </contour>
    <contour>
      <point x="123" y="266" type="curve"/>
      <point x="183" y="361"/>
      <point x="261" y="465"/>
      <point x="310" y="527" type="curve"/>
      <point x="306" y="496"/>
      <point x="304" y="455"/>
      <point x="304" y="402" type="curve" smooth="yes"/>
      <point x="304" y="272" type="line"/>
      <point x="228" y="272"/>
      <point x="167" y="270"/>
    </contour>
  </outline>
</glyph>
<glyph name="five" format="2">
  <advance width="554"/>
  <unicode hex="0035"/>
  <note>
five
</note>
  <outline>
    <contour>
      <point x="255" y="0" type="curve" smooth="yes"/>
      <point x="404" y="0"/>
      <point x="471" y="95"/>
      <point x="471" y="201" type="curve" smooth="yes"/>
      <point x="471" y="346"/>
      <point x="359" y="395"/>
      <point x="261" y="395" type="curve" smooth="yes"/>
      <point x="220" y="395"/>
      <point x="184" y="390"/>
      <point x="154" y="380" type="curve"/>
      <point x="168" y="535" type="line"/>
      <point x="212" y="525"/>
      <point x="232" y="522"/>
      <point x="286" y="522" type="curve" smooth="yes"/>
      <point x="330" y="522"/>
      <point x="367" y="528"/>
      <point x="396" y="541" type="curve" smooth="yes"/>
      <point x="426" y="554"/>
      <point x="445" y="573"/>
      <point x="445" y="612" type="curve" smooth="yes"/>
      <point x="445" y="631"/>
      <point x="441" y="648"/>
      <point x="434" y="663" type="curve"/>
      <point x="413" y="663" type="line"/>
      <point x="366" y="647"/>
      <point x="343" y="644"/>
      <point x="290" y="644" type="curve" smooth="yes"/>
      <point x="234" y="644"/>
      <point x="219" y="646"/>
      <point x="159" y="667" type="curve"/>
      <point x="132" y="663" type="line"/>
      <point x="100" y="330" type="line"/>
      <point x="122" y="324" type="line"/>
      <point x="157" y="340"/>
      <point x="181" y="347"/>
      <point x="221" y="347" type="curve" smooth="yes"/>
      <point x="311" y="347"/>
      <point x="355" y="298"/>
      <point x="355" y="201" type="curve" smooth="yes"/>
      <point x="355" y="112"/>
      <point x="314" y="52"/>
      <point x="232" y="52" type="curve" smooth="yes"/>
      <point x="183" y="52"/>
      <point x="138" y="63"/>
      <point x="74" y="111" type="curve"/>
      <point x="53" y="81" type="line"/>
      <point x="77" y="56"/>
      <point x="106" y="37"/>
      <point x="140" y="22" type="curve" smooth="yes"/>
      <point x="173" y="7"/>
      <point x="211" y="0"/>
    </contour>
  </outline>
</glyph>
<glyph name="six" format="2">
  <advance width="554"/>
  <unicode hex="0036"/>
  <note>
six
</note>
  <outline>
    <contour>
      <point x="290" y="1" type="curve" smooth="yes"/>
      <point x="423" y="1"/>
      <point x="516" y="110"/>
      <point x="516" y="221" type="curve" smooth="yes"/>
      <point x="516" y="325"/>
      <point x="445" y="399"/>
      <point x="327" y="399" type="curve" smooth="yes"/>
      <point x="265" y="399"/>
      <point x="215" y="386"/>
      <point x="171" y="351" type="curve"/>
      <point x="180" y="564"/>
      <point x="266" y="622"/>
      <point x="341" y="622" type="curve" smooth="yes"/>
      <point x="390" y="622"/>
      <point x="411" y="614"/>
      <point x="443" y="594" type="curve"/>
      <point x="465" y="616" type="line"/>
      <point x="436" y="644"/>
      <point x="398" y="663"/>
      <point x="332" y="663" type="curve" smooth="yes"/>
      <point x="145" y="663"/>
      <point x="47" y="512"/>
      <point x="47" y="324" type="curve" smooth="yes"/>
      <point x="47" y="153"/>
      <point x="109" y="70"/>
      <point x="167" y="35" type="curve" smooth="yes"/>
      <point x="204" y="13"/>
      <point x="244" y="1"/>
    </contour>
    <contour>
      <point x="292" y="48" type="curve" smooth="yes"/>
      <point x="201" y="48"/>
      <point x="172" y="137"/>
      <point x="171" y="306" type="curve"/>
      <point x="197" y="332"/>
      <point x="239" y="348"/>
      <point x="278" y="348" type="curve" smooth="yes"/>
      <point x="354" y="348"/>
      <point x="394" y="283"/>
      <point x="394" y="201" type="curve" smooth="yes"/>
      <point x="394" y="156"/>
      <point x="385" y="120"/>
      <point x="367" y="91" type="curve" smooth="yes"/>
      <point x="349" y="62"/>
      <point x="324" y="48"/>
    </contour>
  </outline>
</glyph>
<glyph name="seven" format="2">
  <advance width="554"/>
  <unicode hex="0037"/>
  <note>
seven
</note>
  <outline>
    <contour>
      <point x="136" y="0" type="curve"/>
      <point x="170" y="0" type="line"/>
      <point x="268" y="66" type="line"/>
      <point x="314" y="238"/>
      <point x="383" y="420"/>
      <point x="486" y="655" type="curve"/>
      <point x="462" y="670" type="line"/>
      <point x="406" y="653"/>
      <point x="342" y="644"/>
      <point x="270" y="644" type="curve" smooth="yes"/>
      <point x="202" y="644"/>
      <point x="145" y="650"/>
      <point x="98" y="663" type="curve"/>
      <point x="74" y="663" type="line"/>
      <point x="67" y="648"/>
      <point x="63" y="631"/>
      <point x="63" y="612" type="curve" smooth="yes"/>
      <point x="63" y="566"/>
      <point x="78" y="542"/>
      <point x="118" y="535" type="curve" smooth="yes"/>
      <point x="156" y="528"/>
      <point x="192" y="523"/>
      <point x="227" y="523" type="curve" smooth="yes"/>
      <point x="293" y="523"/>
      <point x="331" y="527"/>
      <point x="380" y="546" type="curve"/>
      <point x="332" y="454"/>
      <point x="286" y="359"/>
      <point x="242" y="263" type="curve" smooth="yes"/>
      <point x="198" y="167"/>
      <point x="163" y="79"/>
    </contour>
  </outline>
</glyph>
<glyph name="eight" format="2">
  <advance width="554"/>
  <unicode hex="0038"/>
  <note>
eight
</note>
  <outline>
    <contour>
      <point x="275" y="0" type="curve" smooth="yes"/>
      <point x="409" y="0"/>
      <point x="502" y="63"/>
      <point x="502" y="176" type="curve" smooth="yes"/>
      <point x="502" y="237"/>
      <point x="472" y="302"/>
      <point x="348" y="363" type="curve"/>
      <point x="426" y="408"/>
      <point x="481" y="448"/>
      <point x="481" y="525" type="curve" smooth="yes"/>
      <point x="481" y="600"/>
      <point x="416" y="663"/>
      <point x="282" y="663" type="curve" smooth="yes"/>
      <point x="151" y="663"/>
      <point x="69" y="588"/>
      <point x="69" y="501" type="curve" smooth="yes"/>
      <point x="69" y="440"/>
      <point x="96" y="378"/>
      <point x="199" y="326" type="curve"/>
      <point x="80" y="267"/>
      <point x="52" y="214"/>
      <point x="52" y="143" type="curve" smooth="yes"/>
      <point x="52" y="101"/>
      <point x="71" y="67"/>
      <point x="110" y="40" type="curve" smooth="yes"/>
      <point x="148" y="13"/>
      <point x="204" y="0"/>
    </contour>
    <contour>
      <point x="276" y="40" type="curve" smooth="yes"/>
      <point x="199" y="40"/>
      <point x="168" y="100"/>
      <point x="168" y="153" type="curve" smooth="yes"/>
      <point x="168" y="219"/>
      <point x="192" y="268"/>
      <point x="236" y="300" type="curve"/>
      <point x="339" y="250"/>
      <point x="386" y="206"/>
      <point x="386" y="144" type="curve" smooth="yes"/>
      <point x="386" y="113"/>
      <point x="376" y="88"/>
      <point x="357" y="69" type="curve" smooth="yes"/>
      <point x="338" y="50"/>
      <point x="311" y="40"/>
    </contour>
    <contour>
      <point x="307" y="388" type="curve"/>
      <point x="213" y="438"/>
      <point x="188" y="479"/>
      <point x="188" y="533" type="curve" smooth="yes"/>
      <point x="188" y="576"/>
      <point x="213" y="623"/>
      <point x="282" y="623" type="curve" smooth="yes"/>
      <point x="355" y="623"/>
      <point x="375" y="566"/>
      <point x="375" y="522" type="curve" smooth="yes"/>
      <point x="375" y="493"/>
      <point x="370" y="469"/>
      <point x="360" y="450" type="curve" smooth="yes"/>
      <point x="350" y="431"/>
      <point x="332" y="410"/>
    </contour>
  </outline>
</glyph>
<glyph name="nine" format="2">
  <advance width="554"/>
  <unicode hex="0039"/>
  <note>
nine
</note>
  <outline>
    <contour>
      <point x="221" y="0" type="curve" smooth="yes"/>
      <point x="278" y="0"/>
      <point x="329" y="17"/>
      <point x="373" y="50" type="curve" smooth="yes"/>
      <point x="477" y="128"/>
      <point x="508" y="260"/>
      <point x="508" y="357" type="curve" smooth="yes"/>
      <point x="508" y="460"/>
      <point x="486" y="537"/>
      <point x="441" y="587" type="curve" smooth="yes"/>
      <point x="396" y="637"/>
      <point x="338" y="663"/>
      <point x="264" y="663" type="curve" smooth="yes"/>
      <point x="164" y="663"/>
      <point x="39" y="592"/>
      <point x="39" y="440" type="curve" smooth="yes"/>
      <point x="39" y="309"/>
      <point x="144" y="253"/>
      <point x="248" y="253" type="curve" smooth="yes"/>
      <point x="311" y="253"/>
      <point x="356" y="282"/>
      <point x="383" y="316" type="curve"/>
      <point x="377" y="196"/>
      <point x="318" y="47"/>
      <point x="203" y="47" type="curve" smooth="yes"/>
      <point x="164" y="47"/>
      <point x="149" y="52"/>
      <point x="100" y="77" type="curve"/>
      <point x="77" y="48" type="line"/>
      <point x="98" y="33"/>
      <point x="119" y="21"/>
      <point x="139" y="13" type="curve" smooth="yes"/>
      <point x="159" y="5"/>
      <point x="187" y="0"/>
    </contour>
    <contour>
      <point x="268" y="297" type="curve" smooth="yes"/>
      <point x="195" y="297"/>
      <point x="162" y="343"/>
      <point x="162" y="449" type="curve" smooth="yes"/>
      <point x="162" y="560"/>
      <point x="191" y="625"/>
      <point x="268" y="625" type="curve" smooth="yes"/>
      <point x="358" y="625"/>
      <point x="383" y="527"/>
      <point x="384" y="382" type="curve"/>
      <point x="375" y="357"/>
      <point x="361" y="337"/>
      <point x="341" y="321" type="curve" smooth="yes"/>
      <point x="321" y="305"/>
      <point x="297" y="297"/>
    </contour>
  </outline>
</glyph>
<glyph name="colon" format="2">
  <advance width="317"/>
  <unicode hex="003A"/>
  <note>
colon
</note>
  <outline>
    <contour>
      <point x="153" y="354" type="curve"/>
      <point x="162" y="354" type="line"/>
      <point x="216" y="393"/>
      <point x="245" y="426"/>
      <point x="245" y="449" type="curve" smooth="yes"/>
      <point x="245" y="479"/>
      <point x="217" y="502"/>
      <point x="167" y="534" type="curve"/>
      <point x="158" y="534" type="line"/>
      <point x="146" y="526"/>
      <point x="92" y="470"/>
      <point x="70" y="438" type="curve"/>
      <point x="70" y="429" type="line"/>
      <point x="98" y="407"/>
      <point x="125" y="383"/>
    </contour>
    <contour>
      <point x="156" y="20" type="curve"/>
      <point x="165" y="20" type="line"/>
      <point x="219" y="58"/>
      <point x="247" y="91"/>
      <point x="247" y="114" type="curve" smooth="yes"/>
      <point x="247" y="144"/>
      <point x="219" y="167"/>
      <point x="169" y="199" type="curve"/>
      <point x="160" y="199" type="line"/>
      <point x="148" y="191"/>
      <point x="94" y="135"/>
      <point x="73" y="103" type="curve"/>
      <point x="73" y="94" type="line"/>
      <point x="101" y="71"/>
      <point x="128" y="48"/>
    </contour>
  </outline>
</glyph>
<glyph name="equal" format="2">
  <advance width="567"/>
  <unicode hex="003D"/>
  <note>
equal
</note>
  <outline>
    <contour>
      <point x="50" y="373" type="line"/>
      <point x="518" y="373" type="line"/>
      <point x="518" y="416" type="line"/>
      <point x="50" y="416" type="line"/>
    </contour>
    <contour>
      <point x="50" y="203" type="line"/>
      <point x="518" y="203" type="line"/>
      <point x="518" y="246" type="line"/>
      <point x="50" y="246" type="line"/>
    </contour>
  </outline>
</glyph>
<glyph name="bracketleft" format="2">
  <advance width="397"/>
  <unicode hex="005B"/>
  <note>
bracketleft
</note>
  <outline>
    <contour>
      <point x="143" y="-189" type="line"/>
      <point x="366" y="-189" type="line"/>
      <point x="366" y="-152" type="line"/>
      <point x="237" y="-152" type="line"/>
      <point x="237" y="810" type="line"/>
      <point x="366" y="810" type="line"/>
      <point x="366" y="846" type="line"/>
      <point x="143" y="846" type="line"/>
    </contour>
  </outline>
</glyph>
<glyph name="backslash" format="2">
  <advance width="543"/>
  <unicode hex="005C"/>
  <note>
backslash
</note>
  <outline>
    <contour>
      <point x="446" y="-118" type="curve"/>
      <point x="490" y="-105" type="line"/>
      <point x="457" y="-33"/>
      <point x="423" y="42"/>
      <point x="390" y="117" type="curve" smooth="yes"/>
      <point x="356" y="194"/>
      <point x="322" y="269"/>
      <point x="290" y="345" type="curve" smooth="yes"/>
      <point x="224" y="502"/>
      <point x="164" y="639"/>
      <point x="104" y="783" type="curve"/>
      <point x="62" y="767" type="line"/>
      <point x="118" y="625"/>
      <point x="182" y="473"/>
      <point x="248" y="320" type="curve" smooth="yes"/>
      <point x="313" y="168"/>
      <point x="379" y="20"/>
    </contour>
  </outline>
</glyph>
<glyph name="braceleft" format="2">
  <advance width="380"/>
  <unicode hex="007B"/>
  <note>
braceleft
</note>
  <outline>
    <contour>
      <point x="303" y="-189" type="curve" smooth="yes"/>
      <point x="318" y="-189"/>
      <point x="336" y="-187"/>
      <point x="345" y="-186" type="curve"/>
      <point x="342" y="-151" type="line"/>
      <point x="332" y="-154"/>
      <point x="320" y="-155"/>
      <point x="307" y="-155" type="curve" smooth="yes"/>
      <point x="253" y="-155"/>
      <point x="207" y="-124"/>
      <point x="207" y="-24" type="curve" smooth="yes"/>
      <point x="207" y="15"/>
      <point x="214" y="130"/>
      <point x="214" y="176" type="curve" smooth="yes"/>
      <point x="214" y="206"/>
      <point x="209" y="315"/>
      <point x="104" y="333" type="curve"/>
      <point x="104" y="337" type="line"/>
      <point x="205" y="356"/>
      <point x="214" y="454"/>
      <point x="214" y="493" type="curve" smooth="yes"/>
      <point x="214" y="579"/>
      <point x="207" y="597"/>
      <point x="207" y="680" type="curve" smooth="yes"/>
      <point x="207" y="755"/>
      <point x="231" y="812"/>
      <point x="307" y="812" type="curve" smooth="yes"/>
      <point x="320" y="812"/>
      <point x="331" y="811"/>
      <point x="342" y="809" type="curve"/>
      <point x="348" y="843" type="line"/>
      <point x="335" y="845"/>
      <point x="319" y="846"/>
      <point x="303" y="846" type="curve" smooth="yes"/>
      <point x="204" y="846"/>
      <point x="113" y="786"/>
      <point x="113" y="629" type="curve" smooth="yes"/>
      <point x="113" y="605"/>
      <point x="121" y="507"/>
      <point x="121" y="459" type="curve" smooth="yes"/>
      <point x="121" y="388"/>
      <point x="106" y="357"/>
      <point x="46" y="352" type="curve" smooth="yes"/>
      <point x="35" y="351" type="line"/>
      <point x="35" y="318" type="line"/>
      <point x="46" y="317" type="line" smooth="yes"/>
      <point x="99" y="312"/>
      <point x="121" y="292"/>
      <point x="121" y="208" type="curve" smooth="yes"/>
      <point x="121" y="133"/>
      <point x="113" y="72"/>
      <point x="113" y="28" type="curve" smooth="yes"/>
      <point x="113" y="-128"/>
      <point x="204" y="-189"/>
    </contour>
  </outline>
</glyph>
<glyph name="braceright" format="2">
  <advance width="380"/>
  <unicode hex="007D"/>
  <note>
braceright
</note>
  <outline>
    <contour>
      <point x="77" y="-189" type="curve" smooth="yes"/>
      <point x="174" y="-189"/>
      <point x="266" y="-129"/>
      <point x="266" y="28" type="curve" smooth="yes"/>
      <point x="266" y="84"/>
      <point x="257" y="145"/>
      <point x="257" y="208" type="curve" smooth="yes"/>
      <point x="257" y="294"/>
      <point x="282" y="312"/>
      <point x="333" y="317" type="curve" smooth="yes"/>
      <point x="345" y="318" type="line"/>
      <point x="345" y="351" type="line"/>
      <point x="334" y="352" type="line" smooth="yes"/>
      <point x="278" y="357"/>
      <point x="257" y="379"/>
      <point x="257" y="459" type="curve" smooth="yes"/>
      <point x="257" y="490"/>
      <point x="266" y="593"/>
      <point x="266" y="629" type="curve" smooth="yes"/>
      <point x="266" y="784"/>
      <point x="178" y="846"/>
      <point x="77" y="846" type="curve" smooth="yes"/>
      <point x="63" y="846"/>
      <point x="47" y="846"/>
      <point x="32" y="843" type="curve"/>
      <point x="39" y="809" type="line"/>
      <point x="47" y="811"/>
      <point x="63" y="812"/>
      <point x="73" y="812" type="curve" smooth="yes"/>
      <point x="147" y="812"/>
      <point x="173" y="759"/>
      <point x="173" y="680" type="curve" smooth="yes"/>
      <point x="173" y="657"/>
      <point x="165" y="548"/>
      <point x="165" y="493" type="curve" smooth="yes"/>
      <point x="165" y="415"/>
      <point x="200" y="351"/>
      <point x="276" y="337" type="curve"/>
      <point x="276" y="333" type="line"/>
      <point x="167" y="315"/>
      <point x="165" y="198"/>
      <point x="165" y="176" type="curve" smooth="yes"/>
      <point x="165" y="154"/>
      <point x="173" y="0"/>
      <point x="173" y="-24" type="curve" smooth="yes"/>
      <point x="173" y="-116"/>
      <point x="133" y="-155"/>
      <point x="73" y="-155" type="curve" smooth="yes"/>
      <point x="60" y="-155"/>
      <point x="49" y="-154"/>
      <point x="39" y="-151" type="curve"/>
      <point x="34" y="-186" type="line"/>
      <point x="44" y="-187"/>
      <point x="61" y="-189"/>
    </contour>
  </outline>
</glyph>
<glyph name="guillemotleft" format="2">
  <advance width="481"/>
  <unicode hex="00AB"/>
  <note>
guillemotleft
</note>
  <outline>
    <contour>
      <point x="180" y="60" type="curve"/>
      <point x="189" y="62" type="line"/>
      <point x="192" y="64"/>
      <point x="217" y="126"/>
      <point x="221" y="143" type="curve"/>
      <point x="171" y="190"/>
      <point x="147" y="252"/>
      <point x="147" y="331" type="curve" smooth="yes"/>
      <point x="147" y="393"/>
      <point x="172" y="473"/>
      <point x="216" y="533" type="curve"/>
      <point x="200" y="547" type="line"/>
      <point x="123" y="462"/>
      <point x="84" y="352"/>
      <point x="84" y="266" type="curve" smooth="yes"/>
      <point x="84" y="188"/>
      <point x="113" y="104"/>
    </contour>
    <contour>
      <point x="358" y="93" type="curve"/>
      <point x="367" y="95" type="line"/>
      <point x="373" y="102"/>
      <point x="393" y="157"/>
      <point x="396" y="176" type="curve"/>
      <point x="338" y="224"/>
      <point x="323" y="277"/>
      <point x="323" y="343" type="curve" smooth="yes"/>
      <point x="323" y="397"/>
      <point x="345" y="471"/>
      <point x="392" y="536" type="curve"/>
      <point x="375" y="549" type="line"/>
      <point x="304" y="471"/>
      <point x="260" y="374"/>
      <point x="260" y="279" type="curve" smooth="yes"/>
      <point x="260" y="198"/>
      <point x="293" y="136"/>
    </contour>
  </outline>
</glyph>
<glyph name="periodcentered" format="2">
  <advance width="258"/>
  <unicode hex="00B7"/>
  <note>
periodcentered
</note>
  <outline>
    <contour>
      <point x="125" y="266" type="curve"/>
      <point x="134" y="266" type="line"/>
      <point x="188" y="304"/>
      <point x="216" y="337"/>
      <point x="216" y="360" type="curve" smooth="yes"/>
      <point x="216" y="390"/>
      <point x="188" y="414"/>
      <point x="138" y="445" type="curve"/>
      <point x="129" y="445" type="line"/>
      <point x="118" y="437"/>
      <point x="63" y="381"/>
      <point x="42" y="349" type="curve"/>
      <point x="42" y="340" type="line"/>
      <point x="70" y="318"/>
      <point x="97" y="293"/>
    </contour>
  </outline>
</glyph>
<glyph name="guillemotright" format="2">
  <advance width="481"/>
  <unicode hex="00BB"/>
  <note>
guillemotright
</note>
  <outline>
    <contour>
      <point x="281" y="63" type="line"/>
      <point x="365" y="152"/>
      <point x="396" y="269"/>
      <point x="396" y="343" type="curve" smooth="yes"/>
      <point x="396" y="409"/>
      <point x="377" y="497"/>
      <point x="301" y="549" type="curve"/>
      <point x="292" y="547" type="line"/>
      <point x="288" y="544"/>
      <point x="262" y="478"/>
      <point x="260" y="467" type="curve"/>
      <point x="310" y="419"/>
      <point x="334" y="356"/>
      <point x="334" y="279" type="curve" smooth="yes"/>
      <point x="334" y="216"/>
      <point x="308" y="137"/>
      <point x="265" y="77" type="curve"/>
    </contour>
    <contour>
      <point x="105" y="60" type="line"/>
      <point x="176" y="138"/>
      <point x="221" y="235"/>
      <point x="221" y="331" type="curve" smooth="yes"/>
      <point x="221" y="411"/>
      <point x="188" y="473"/>
      <point x="122" y="516" type="curve"/>
      <point x="113" y="514" type="line"/>
      <point x="106" y="503"/>
      <point x="88" y="453"/>
      <point x="84" y="433" type="curve"/>
      <point x="146" y="383"/>
      <point x="158" y="327"/>
      <point x="158" y="266" type="curve" smooth="yes"/>
      <point x="158" y="211"/>
      <point x="135" y="138"/>
      <point x="89" y="73" type="curve"/>
    </contour>
  </outline>
</glyph>
<glyph name="MultiplyArabic" format="2">
  <advance width="567"/>
  <unicode hex="00D7"/>
  <note>
MultiplyArabic
</note>
  <outline>
    <contour>
      <point x="111" y="110" type="line"/>
      <point x="283" y="282" type="line"/>
      <point x="455" y="110" type="line"/>
      <point x="486" y="140" type="line"/>
      <point x="313" y="312" type="line"/>
      <point x="485" y="484" type="line"/>
      <point x="455" y="514" type="line"/>
      <point x="283" y="342" type="line"/>
      <point x="110" y="514" type="line"/>
      <point x="81" y="484" type="line"/>
      <point x="253" y="312" type="line"/>
      <point x="82" y="140" type="line"/>
    </contour>
  </outline>
</glyph>
<glyph name="DivideArabic" format="2">
  <advance width="567"/>
  <unicode hex="00F7"/>
  <note>
DivideArabic
</note>
  <outline>
    <contour>
      <point x="50" y="291" type="line"/>
      <point x="518" y="291" type="line"/>
      <point x="518" y="334" type="line"/>
      <point x="50" y="334" type="line"/>
    </contour>
    <contour>
      <point x="278" y="70" type="curve"/>
      <point x="285" y="70" type="line"/>
      <point x="323" y="98"/>
      <point x="342" y="120"/>
      <point x="342" y="136" type="curve" smooth="yes"/>
      <point x="342" y="155"/>
      <point x="327" y="169"/>
      <point x="288" y="195" type="curve"/>
      <point x="281" y="195" type="line"/>
      <point x="273" y="190"/>
      <point x="237" y="154"/>
      <point x="221" y="129" type="curve"/>
      <point x="221" y="122" type="line"/>
      <point x="233" y="113"/>
      <point x="252" y="96"/>
    </contour>
    <contour>
      <point x="278" y="430" type="curve"/>
      <point x="285" y="430" type="line"/>
      <point x="323" y="458"/>
      <point x="342" y="479"/>
      <point x="342" y="495" type="curve" smooth="yes"/>
      <point x="342" y="514"/>
      <point x="328" y="530"/>
      <point x="288" y="555" type="curve"/>
      <point x="281" y="555" type="line"/>
      <point x="272" y="550"/>
      <point x="237" y="511"/>
      <point x="221" y="488" type="curve"/>
      <point x="221" y="481" type="line"/>
      <point x="234" y="472"/>
      <point x="253" y="455"/>
    </contour>
  </outline>
</glyph>
<glyph name="Sanah" format="2">
  <advance width="1333"/>
  <unicode hex="0601"/>
  <note>
Sanah
</note>
  <outline>
    <contour>
      <point x="123" y="-174" type="line"/>
      <point x="156" y="-128"/>
      <point x="181" y="-107"/>
      <point x="219" y="-107" type="curve" smooth="yes"/>
      <point x="231" y="-107"/>
      <point x="285" y="-121"/>
      <point x="307" y="-121" type="curve" smooth="yes"/>
      <point x="357" y="-121"/>
      <point x="389" y="-89"/>
      <point x="433" y="-33" type="curve" smooth="yes"/>
      <point x="459" y="0"/>
      <point x="469" y="13"/>
      <point x="484" y="13" type="curve" smooth="yes"/>
      <point x="491" y="13"/>
      <point x="502" y="9"/>
      <point x="516" y="3" type="curve" smooth="yes"/>
      <point x="554" y="-13"/>
      <point x="595" y="-21"/>
      <point x="642" y="-21" type="curve" smooth="yes"/>
      <point x="778" y="-21"/>
      <point x="933" y="48"/>
      <point x="1105" y="186" type="curve" smooth="yes"/>
      <point x="1135" y="210"/>
      <point x="1162" y="225"/>
      <point x="1184" y="230" type="curve"/>
      <point x="1198" y="252"/>
      <point x="1212" y="284"/>
      <point x="1227" y="327" type="curve"/>
      <point x="1224" y="336" type="line"/>
      <point x="1206" y="331"/>
      <point x="1184" y="314"/>
      <point x="1115" y="260" type="curve" smooth="yes"/>
      <point x="991" y="162"/>
      <point x="812" y="103"/>
      <point x="659" y="103" type="curve" smooth="yes"/>
      <point x="575" y="103"/>
      <point x="542" y="123"/>
      <point x="525" y="123" type="curve" smooth="yes"/>
      <point x="506" y="123"/>
      <point x="498" y="114"/>
      <point x="452" y="60" type="curve" smooth="yes"/>
      <point x="424" y="28"/>
      <point x="404" y="18"/>
      <point x="369" y="18" type="curve" smooth="yes"/>
      <point x="347" y="18"/>
      <point x="310" y="26"/>
      <point x="290" y="26" type="curve" smooth="yes"/>
      <point x="215" y="26"/>
      <point x="154" y="-38"/>
      <point x="105" y="-165" type="curve"/>
    </contour>
  </outline>
</glyph>
<glyph name="Footnote" format="2">
  <advance width="1493"/>
  <unicode hex="0602"/>
  <note>
Footnote
</note>
  <outline>
    <contour>
      <point x="301" y="0" type="curve" smooth="yes"/>
      <point x="652" y="0"/>
      <point x="1065" y="52"/>
      <point x="1348" y="185" type="curve"/>
      <point x="1366" y="219"/>
      <point x="1376" y="250"/>
      <point x="1379" y="278" type="curve"/>
      <point x="1369" y="280" type="line"/>
      <point x="1121" y="178"/>
      <point x="801" y="119"/>
      <point x="411" y="104" type="curve"/>
      <point x="422" y="135"/>
      <point x="428" y="167"/>
      <point x="428" y="200" type="curve" smooth="yes"/>
      <point x="428" y="272"/>
      <point x="394" y="323"/>
      <point x="323" y="323" type="curve" smooth="yes"/>
      <point x="230" y="323"/>
      <point x="132" y="191"/>
      <point x="132" y="101" type="curve" smooth="yes"/>
      <point x="132" y="34"/>
      <point x="188" y="0"/>
    </contour>
    <contour>
      <point x="367" y="104" type="line" smooth="yes"/>
      <point x="221" y="104"/>
      <point x="183" y="126"/>
      <point x="183" y="163" type="curve" smooth="yes"/>
      <point x="183" y="204"/>
      <point x="225" y="239"/>
      <point x="275" y="239" type="curve" smooth="yes"/>
      <point x="350" y="239"/>
      <point x="387" y="196"/>
      <point x="387" y="110" type="curve" smooth="yes"/>
      <point x="387" y="104" type="line"/>
    </contour>
  </outline>
</glyph>
<glyph name="Safhah" format="2">
  <advance width="1331"/>
  <unicode hex="0603"/>
  <note>
Safhah
</note>
  <outline>
    <contour>
      <point x="187" y="-42" type="curve" smooth="yes"/>
      <point x="332" y="-42"/>
      <point x="454" y="-21"/>
      <point x="551" y="17" type="curve" smooth="yes"/>
      <point x="620" y="44"/>
      <point x="657" y="77"/>
      <point x="669" y="77" type="curve" smooth="yes"/>
      <point x="679" y="77"/>
      <point x="731" y="28"/>
      <point x="822" y="28" type="curve" smooth="yes"/>
      <point x="905" y="28"/>
      <point x="979" y="59"/>
      <point x="1042" y="112" type="curve" smooth="yes"/>
      <point x="1094" y="156"/>
      <point x="1184" y="276"/>
      <point x="1184" y="366" type="curve" smooth="yes"/>
      <point x="1184" y="397"/>
      <point x="1162" y="430"/>
      <point x="1108" y="430" type="curve" smooth="yes"/>
      <point x="1004" y="430"/>
      <point x="902" y="341"/>
      <point x="763" y="156" type="curve"/>
      <point x="746" y="161"/>
      <point x="718" y="178"/>
      <point x="701" y="178" type="curve" smooth="yes"/>
      <point x="692" y="178"/>
      <point x="680" y="172"/>
      <point x="664" y="158" type="curve" smooth="yes"/>
      <point x="525" y="33"/>
      <point x="317" y="-12"/>
      <point x="110" y="-15" type="curve"/>
      <point x="104" y="-38" type="line"/>
      <point x="134" y="-40"/>
      <point x="162" y="-42"/>
    </contour>
    <contour>
      <point x="839" y="141" type="curve" smooth="yes"/>
      <point x="828" y="141"/>
      <point x="817" y="142"/>
      <point x="806" y="143" type="curve"/>
      <point x="892" y="256"/>
      <point x="954" y="302"/>
      <point x="1026" y="302" type="curve" smooth="yes"/>
      <point x="1065" y="302"/>
      <point x="1094" y="284"/>
      <point x="1094" y="259" type="curve" smooth="yes"/>
      <point x="1094" y="207"/>
      <point x="966" y="142"/>
    </contour>
  </outline>
</glyph>
<glyph name="Samvat" format="2">
  <advance width="2655"/>
  <unicode hex="0604"/>
  <note>
Samvat
</note>
  <outline>
    <contour>
      <point x="571" y="-30" type="curve" smooth="yes"/>
      <point x="790" y="-30"/>
      <point x="982" y="-19"/>
      <point x="1150" y="2" type="curve" smooth="yes"/>
      <point x="1318" y="23"/>
      <point x="1457" y="51"/>
      <point x="1568" y="85" type="curve" smooth="yes"/>
      <point x="1679" y="119"/>
      <point x="1763" y="152"/>
      <point x="1822" y="182" type="curve" smooth="yes"/>
      <point x="1880" y="211"/>
      <point x="1916" y="225"/>
      <point x="1927" y="227" type="curve"/>
      <point x="1934" y="228"/>
      <point x="1941" y="229"/>
      <point x="1948" y="229" type="curve" smooth="yes"/>
      <point x="1961" y="229"/>
      <point x="1979" y="222"/>
      <point x="2002" y="210" type="curve" smooth="yes"/>
      <point x="2024" y="198"/>
      <point x="2041" y="191"/>
      <point x="2050" y="191" type="curve" smooth="yes"/>
      <point x="2093" y="191"/>
      <point x="2135" y="275"/>
      <point x="2135" y="307" type="curve" smooth="yes"/>
      <point x="2135" y="323"/>
      <point x="2125" y="335"/>
      <point x="2103" y="347" type="curve" smooth="yes"/>
      <point x="2076" y="362" type="line" smooth="yes"/>
      <point x="2061" y="370"/>
      <point x="2053" y="380"/>
      <point x="2053" y="392" type="curve" smooth="yes"/>
      <point x="2053" y="412"/>
      <point x="2063" y="432"/>
      <point x="2082" y="452" type="curve" smooth="yes"/>
      <point x="2101" y="472"/>
      <point x="2130" y="482"/>
      <point x="2168" y="482" type="curve" smooth="yes"/>
      <point x="2183" y="482"/>
      <point x="2197" y="477"/>
      <point x="2209" y="465" type="curve" smooth="yes"/>
      <point x="2222" y="452"/>
      <point x="2238" y="447"/>
      <point x="2259" y="447" type="curve" smooth="yes"/>
      <point x="2295" y="447"/>
      <point x="2328" y="472"/>
      <point x="2357" y="521" type="curve"/>
      <point x="2370" y="517"/>
      <point x="2381" y="515"/>
      <point x="2393" y="515" type="curve" smooth="yes"/>
      <point x="2459" y="515"/>
      <point x="2511" y="574"/>
      <point x="2541" y="706" type="curve"/>
      <point x="2512" y="712" type="line"/>
      <point x="2494" y="653"/>
      <point x="2473" y="625"/>
      <point x="2441" y="625" type="curve" smooth="yes"/>
      <point x="2426" y="625"/>
      <point x="2413" y="628"/>
      <point x="2395" y="636" type="curve"/>
      <point x="2385" y="634" type="line"/>
      <point x="2355" y="580"/>
      <point x="2334" y="554"/>
      <point x="2292" y="554" type="curve" smooth="yes"/>
      <point x="2280" y="554"/>
      <point x="2267" y="560"/>
      <point x="2252" y="571" type="curve" smooth="yes"/>
      <point x="2237" y="582"/>
      <point x="2221" y="589"/>
      <point x="2202" y="589" type="curve" smooth="yes"/>
      <point x="2170" y="589"/>
      <point x="2137" y="572"/>
      <point x="2100" y="538" type="curve" smooth="yes"/>
      <point x="2056" y="498"/>
      <point x="2010" y="411"/>
      <point x="1994" y="362" type="curve"/>
      <point x="1988" y="357"/>
      <point x="1981" y="352"/>
      <point x="1975" y="345" type="curve" smooth="yes"/>
      <point x="1949" y="314" type="line" smooth="yes"/>
      <point x="1930" y="292"/>
      <point x="1904" y="275"/>
      <point x="1875" y="261" type="curve" smooth="yes"/>
      <point x="1825" y="237"/>
      <point x="1677" y="188"/>
      <point x="1445" y="153" type="curve" smooth="yes"/>
      <point x="1172" y="112"/>
      <point x="894" y="91"/>
      <point x="585" y="91" type="curve" smooth="yes"/>
      <point x="436" y="91"/>
      <point x="200" y="101"/>
      <point x="127" y="118" type="curve"/>
      <point x="121" y="111" type="line"/>
      <point x="117" y="96"/>
      <point x="114" y="86"/>
      <point x="114" y="68" type="curve" smooth="yes"/>
      <point x="114" y="32"/>
      <point x="133" y="9"/>
      <point x="171" y="0" type="curve" smooth="yes"/>
      <point x="255" y="-20"/>
      <point x="384" y="-30"/>
    </contour>
  </outline>
</glyph>
<glyph name="Per10milleArabic" format="2">
  <advance width="973"/>
  <unicode hex="060A"/>
  <note>
Per10milleArabic
</note>
  <outline>
    <contour>
      <point x="149" y="-14" type="line"/>
      <point x="268" y="249"/>
      <point x="376" y="472"/>
      <point x="472" y="657" type="curve"/>
      <point x="427" y="670" type="line"/>
      <point x="297" y="420"/>
      <point x="257" y="339"/>
      <point x="106" y="3" type="curve"/>
    </contour>
    <contour>
      <point x="394" y="0" type="curve"/>
      <point x="402" y="0" type="line"/>
      <point x="449" y="34"/>
      <point x="473" y="62"/>
      <point x="473" y="83" type="curve" smooth="yes"/>
      <point x="473" y="105"/>
      <point x="453" y="125"/>
      <point x="406" y="155" type="curve"/>
      <point x="398" y="155" type="line"/>
      <point x="388" y="149"/>
      <point x="348" y="108"/>
      <point x="323" y="73" type="curve"/>
      <point x="323" y="65" type="line"/>
      <point x="335" y="57"/>
      <point x="376" y="21"/>
    </contour>
    <contour>
      <point x="600" y="0" type="curve"/>
      <point x="608" y="0" type="line"/>
      <point x="656" y="35"/>
      <point x="679" y="63"/>
      <point x="679" y="83" type="curve" smooth="yes"/>
      <point x="679" y="105"/>
      <point x="660" y="125"/>
      <point x="613" y="155" type="curve"/>
      <point x="604" y="155" type="line"/>
      <point x="590" y="145"/>
      <point x="549" y="104"/>
      <point x="529" y="73" type="curve"/>
      <point x="529" y="65" type="line"/>
      <point x="542" y="57"/>
      <point x="583" y="21"/>
    </contour>
    <contour>
      <point x="158" y="488" type="curve"/>
      <point x="166" y="488" type="line"/>
      <point x="213" y="523"/>
      <point x="237" y="550"/>
      <point x="237" y="570" type="curve" smooth="yes"/>
      <point x="237" y="594"/>
      <point x="218" y="612"/>
      <point x="169" y="644" type="curve"/>
      <point x="162" y="644" type="line"/>
      <point x="148" y="635"/>
      <point x="106" y="589"/>
      <point x="87" y="561" type="curve"/>
      <point x="87" y="553" type="line"/>
      <point x="116" y="530"/>
      <point x="139" y="508"/>
    </contour>
    <contour>
      <point x="807" y="0" type="curve"/>
      <point x="815" y="0" type="line"/>
      <point x="862" y="35"/>
      <point x="886" y="63"/>
      <point x="886" y="83" type="curve" smooth="yes"/>
      <point x="886" y="106"/>
      <point x="862" y="127"/>
      <point x="818" y="155" type="curve"/>
      <point x="811" y="155" type="line"/>
      <point x="799" y="149"/>
      <point x="756" y="102"/>
      <point x="736" y="73" type="curve"/>
      <point x="736" y="65" type="line"/>
      <point x="765" y="43"/>
      <point x="788" y="21"/>
    </contour>
  </outline>
</glyph>
<glyph name="Afghani" format="2">
  <advance width="331"/>
  <unicode hex="060B"/>
  <note>
Afghani
</note>
  <outline>
    <contour>
      <point x="53" y="0" type="curve" smooth="yes"/>
      <point x="203" y="0"/>
      <point x="304" y="142"/>
      <point x="304" y="331" type="curve" smooth="yes"/>
      <point x="304" y="427"/>
      <point x="268" y="497"/>
      <point x="200" y="497" type="curve" smooth="yes"/>
      <point x="172" y="497"/>
      <point x="151" y="482"/>
      <point x="137" y="453" type="curve" smooth="yes"/>
      <point x="120" y="419"/>
      <point x="110" y="398"/>
      <point x="101" y="379" type="curve" smooth="yes"/>
      <point x="91" y="357"/>
      <point x="89" y="343"/>
      <point x="89" y="324" type="curve" smooth="yes"/>
      <point x="89" y="285"/>
      <point x="127" y="254"/>
      <point x="169" y="254" type="curve" smooth="yes"/>
      <point x="192" y="254"/>
      <point x="213" y="260"/>
      <point x="231" y="272" type="curve"/>
      <point x="240" y="260"/>
      <point x="244" y="245"/>
      <point x="244" y="227" type="curve" smooth="yes"/>
      <point x="244" y="195"/>
      <point x="225" y="106"/>
      <point x="86" y="106" type="curve" smooth="yes"/>
      <point x="55" y="106"/>
      <point x="24" y="80"/>
      <point x="24" y="39" type="curve" smooth="yes"/>
      <point x="24" y="11"/>
      <point x="42" y="0"/>
    </contour>
    <contour>
      <point x="153" y="-390" type="line"/>
      <point x="172" y="-347"/>
      <point x="185" y="-297"/>
      <point x="188" y="-251" type="curve" smooth="yes"/>
      <point x="193" y="-167" type="line" smooth="yes"/>
      <point x="196" y="-112"/>
      <point x="201" y="-77"/>
      <point x="205" y="-66" type="curve"/>
      <point x="194" y="-63" type="line"/>
      <point x="174" y="-104"/>
      <point x="157" y="-152"/>
      <point x="155" y="-186" type="curve" smooth="yes"/>
      <point x="150" y="-292" type="line" smooth="yes"/>
      <point x="148" y="-328"/>
      <point x="146" y="-366"/>
      <point x="142" y="-387" type="curve"/>
    </contour>
    <contour>
      <point x="180" y="612" type="curve"/>
      <point x="189" y="612" type="line"/>
      <point x="244" y="651"/>
      <point x="271" y="683"/>
      <point x="271" y="707" type="curve" smooth="yes"/>
      <point x="271" y="729"/>
      <point x="254" y="752"/>
      <point x="193" y="791" type="curve"/>
      <point x="185" y="791" type="line"/>
      <point x="168" y="780"/>
      <point x="115" y="721"/>
      <point x="98" y="695" type="curve"/>
      <point x="98" y="687" type="line"/>
      <point x="125" y="666"/>
      <point x="152" y="641"/>
    </contour>
  </outline>
</glyph>
<glyph name="CommaArabic" format="2">
  <advance width="357"/>
  <unicode hex="060C"/>
  <note>
CommaArabic
</note>
  <outline>
    <contour>
      <point x="176" y="20" type="curve"/>
      <point x="186" y="20" type="line"/>
      <point x="240" y="59"/>
      <point x="267" y="90"/>
      <point x="267" y="114" type="curve" smooth="yes"/>
      <point x="267" y="126"/>
      <point x="260" y="139"/>
      <point x="247" y="151" type="curve"/>
      <point x="184" y="205"/>
      <point x="179" y="213"/>
      <point x="179" y="232" type="curve" smooth="yes"/>
      <point x="179" y="252"/>
      <point x="193" y="284"/>
      <point x="231" y="342" type="curve"/>
      <point x="213" y="355" type="line"/>
      <point x="152" y="290"/>
      <point x="103" y="197"/>
      <point x="103" y="127" type="curve" smooth="yes"/>
      <point x="103" y="79"/>
      <point x="127" y="57"/>
    </contour>
  </outline>
</glyph>
<glyph name="DateSeparatorArabic" format="2">
  <advance width="529"/>
  <unicode hex="060D"/>
  <note>
DateSeparatorArabic
</note>
  <outline>
    <contour>
      <point x="133" y="-5" type="line"/>
      <point x="165" y="62"/>
      <point x="193" y="106"/>
      <point x="232" y="147" type="curve" smooth="yes"/>
      <point x="261" y="178"/>
      <point x="296" y="208"/>
      <point x="346" y="242" type="curve" smooth="yes"/>
      <point x="362" y="253"/>
      <point x="372" y="259"/>
      <point x="378" y="281" type="curve" smooth="yes"/>
      <point x="387" y="314" type="line" smooth="yes"/>
      <point x="398" y="356"/>
      <point x="406" y="394"/>
      <point x="406" y="407" type="curve"/>
      <point x="390" y="417" type="line"/>
      <point x="288" y="357"/>
      <point x="156" y="177"/>
      <point x="114" y="1" type="curve"/>
    </contour>
  </outline>
</glyph>
<glyph name="VerseSign" format="2">
  <advance width="1583"/>
  <unicode hex="060E"/>
  <note>
VerseSign
</note>
  <outline>
    <contour>
      <point x="411" y="0" type="curve" smooth="yes"/>
      <point x="779" y="0"/>
      <point x="1146" y="46"/>
      <point x="1447" y="185" type="curve"/>
      <point x="1467" y="224"/>
      <point x="1475" y="254"/>
      <point x="1478" y="278" type="curve"/>
      <point x="1468" y="280" type="line"/>
      <point x="1346" y="230"/>
      <point x="1205" y="190"/>
      <point x="1044" y="160" type="curve" smooth="yes"/>
      <point x="882" y="130"/>
      <point x="704" y="111"/>
      <point x="509" y="104" type="curve"/>
      <point x="527" y="146"/>
      <point x="536" y="186"/>
      <point x="536" y="222" type="curve" smooth="yes"/>
      <point x="536" y="292"/>
      <point x="496" y="373"/>
      <point x="381" y="373" type="curve" smooth="yes"/>
      <point x="328" y="373"/>
      <point x="270" y="345"/>
      <point x="208" y="291" type="curve" smooth="yes"/>
      <point x="146" y="237"/>
      <point x="114" y="179"/>
      <point x="114" y="119" type="curve" smooth="yes"/>
      <point x="114" y="54"/>
      <point x="171" y="0"/>
    </contour>
    <contour>
      <point x="467" y="104" type="line" smooth="yes"/>
      <point x="376" y="104"/>
      <point x="288" y="107"/>
      <point x="219" y="131" type="curve" smooth="yes"/>
      <point x="194" y="140"/>
      <point x="182" y="159"/>
      <point x="182" y="185" type="curve" smooth="yes"/>
      <point x="182" y="246"/>
      <point x="254" y="279"/>
      <point x="311" y="279" type="curve" smooth="yes"/>
      <point x="416" y="279"/>
      <point x="485" y="224"/>
      <point x="485" y="110" type="curve" smooth="yes"/>
      <point x="485" y="104" type="line"/>
    </contour>
  </outline>
</glyph>
<glyph name="Misra" format="2">
  <advance width="872"/>
  <unicode hex="060F"/>
  <note>
Misra
</note>
  <outline>
    <contour>
      <point x="104" y="-403" type="line"/>
      <point x="158" y="-286" type="line"/>
      <point x="210" y="-319"/>
      <point x="277" y="-341"/>
      <point x="356" y="-341" type="curve" smooth="yes"/>
      <point x="613" y="-341"/>
      <point x="805" y="-163"/>
      <point x="805" y="115" type="curve" smooth="yes"/>
      <point x="805" y="257"/>
      <point x="711" y="323"/>
      <point x="620" y="323" type="curve" smooth="yes"/>
      <point x="434" y="323"/>
      <point x="300" y="129"/>
      <point x="195" y="-95" type="curve"/>
      <point x="153" y="-54"/>
      <point x="129" y="0"/>
      <point x="129" y="68" type="curve" smooth="yes"/>
      <point x="129" y="262"/>
      <point x="272" y="359"/>
      <point x="505" y="494" type="curve" smooth="yes"/>
      <point x="527" y="507"/>
      <point x="558" y="558"/>
      <point x="565" y="578" type="curve"/>
      <point x="552" y="589" type="line"/>
      <point x="500" y="552"/>
      <point x="459" y="527"/>
      <point x="408" y="500" type="curve" smooth="yes"/>
      <point x="397" y="494"/>
      <point x="382" y="493"/>
      <point x="364" y="493" type="curve" smooth="yes"/>
      <point x="306" y="493"/>
      <point x="250" y="521"/>
      <point x="250" y="567" type="curve" smooth="yes"/>
      <point x="250" y="612"/>
      <point x="300" y="653"/>
      <point x="362" y="653" type="curve" smooth="yes"/>
      <point x="380" y="653"/>
      <point x="407" y="648"/>
      <point x="426" y="630" type="curve"/>
      <point x="435" y="629" type="line"/>
      <point x="458" y="643"/>
      <point x="463" y="671"/>
      <point x="463" y="685" type="curve" smooth="yes"/>
      <point x="463" y="726"/>
      <point x="425" y="743"/>
      <point x="395" y="743" type="curve" smooth="yes"/>
      <point x="347" y="743"/>
      <point x="292" y="710"/>
      <point x="233" y="643" type="curve" smooth="yes"/>
      <point x="174" y="576"/>
      <point x="144" y="521"/>
      <point x="144" y="477" type="curve" smooth="yes"/>
      <point x="144" y="422"/>
      <point x="181" y="382"/>
      <point x="231" y="367" type="curve"/>
      <point x="104" y="260"/>
      <point x="28" y="124"/>
      <point x="28" y="-31" type="curve" smooth="yes"/>
      <point x="28" y="-146"/>
      <point x="77" y="-218"/>
      <point x="125" y="-260" type="curve"/>
      <point x="98" y="-336"/>
      <point x="87" y="-370"/>
      <point x="80" y="-397" type="curve"/>
    </contour>
    <contour>
      <point x="415" y="-172" type="curve" smooth="yes"/>
      <point x="343" y="-172"/>
      <point x="281" y="-157"/>
      <point x="233" y="-125" type="curve"/>
      <point x="293" y="9"/>
      <point x="429" y="189"/>
      <point x="595" y="189" type="curve" smooth="yes"/>
      <point x="683" y="189"/>
      <point x="763" y="150"/>
      <point x="763" y="64" type="curve" smooth="yes"/>
      <point x="763" y="-66"/>
      <point x="609" y="-172"/>
    </contour>
  </outline>
</glyph>
<glyph name="SallallahNS" format="2">
  <unicode hex="0610"/>
  <note>
SallallahNS
</note>
  <outline>
    <contour>
      <point x="-95" y="833" type="line"/>
      <point x="-79" y="874"/>
      <point x="-75" y="894"/>
      <point x="-75" y="963" type="curve"/>
      <point x="-61" y="952"/>
      <point x="-43" y="951"/>
      <point x="-25" y="951" type="curve" smooth="yes"/>
      <point x="20" y="951"/>
      <point x="59" y="969"/>
      <point x="93" y="1007" type="curve" smooth="yes"/>
      <point x="127" y="1045"/>
      <point x="144" y="1079"/>
      <point x="144" y="1110" type="curve" smooth="yes"/>
      <point x="144" y="1125"/>
      <point x="134" y="1141"/>
      <point x="109" y="1141" type="curve" smooth="yes"/>
      <point x="47" y="1141"/>
      <point x="-12" y="1067"/>
      <point x="-53" y="1010" type="curve"/>
      <point x="-71" y="1016"/>
      <point x="-80" y="1033"/>
      <point x="-81" y="1060" type="curve" smooth="yes"/>
      <point x="-82" y="1087"/>
      <point x="-85" y="1107"/>
      <point x="-90" y="1120" type="curve"/>
      <point x="-94" y="1120" type="line"/>
      <point x="-101" y="1102"/>
      <point x="-115" y="1072"/>
      <point x="-117" y="1063" type="curve"/>
      <point x="-117" y="1055"/>
      <point x="-115" y="1035"/>
      <point x="-110" y="1004" type="curve" smooth="yes"/>
      <point x="-105" y="973"/>
      <point x="-103" y="934"/>
      <point x="-103" y="887" type="curve" smooth="yes"/>
      <point x="-103" y="845"/>
      <point x="-104" y="842"/>
      <point x="-105" y="835" type="curve"/>
    </contour>
    <contour>
      <point x="-17" y="1005" type="curve" smooth="yes"/>
      <point x="-22" y="1005"/>
      <point x="-27" y="1005"/>
      <point x="-33" y="1006" type="curve"/>
      <point x="-19" y="1023" type="line" smooth="yes"/>
      <point x="15" y="1065"/>
      <point x="41" y="1080"/>
      <point x="71" y="1080" type="curve" smooth="yes"/>
      <point x="79" y="1080"/>
      <point x="102" y="1077"/>
      <point x="102" y="1061" type="curve" smooth="yes"/>
      <point x="102" y="1036"/>
      <point x="47" y="1005"/>
    </contour>
  </outline>
</glyph>
<glyph name="RadiallahNS" format="2">
  <unicode hex="0613"/>
  <note>
RadiallahNS
</note>
  <outline>
    <contour>
      <point x="-148" y="827" type="line"/>
      <point x="-132" y="868"/>
      <point x="-128" y="888"/>
      <point x="-128" y="957" type="curve"/>
      <point x="-114" y="946"/>
      <point x="-96" y="945"/>
      <point x="-78" y="945" type="curve" smooth="yes"/>
      <point x="-33" y="945"/>
      <point x="6" y="963"/>
      <point x="40" y="1001" type="curve" smooth="yes"/>
      <point x="74" y="1039"/>
      <point x="91" y="1073"/>
      <point x="91" y="1104" type="curve" smooth="yes"/>
      <point x="91" y="1119"/>
      <point x="81" y="1135"/>
      <point x="56" y="1135" type="curve" smooth="yes"/>
      <point x="-6" y="1135"/>
      <point x="-65" y="1061"/>
      <point x="-106" y="1004" type="curve"/>
      <point x="-124" y="1010"/>
      <point x="-133" y="1027"/>
      <point x="-134" y="1054" type="curve" smooth="yes"/>
      <point x="-135" y="1081"/>
      <point x="-138" y="1101"/>
      <point x="-143" y="1114" type="curve"/>
      <point x="-147" y="1114" type="line"/>
      <point x="-154" y="1096"/>
      <point x="-168" y="1066"/>
      <point x="-170" y="1057" type="curve"/>
      <point x="-170" y="1049"/>
      <point x="-168" y="1029"/>
      <point x="-163" y="998" type="curve" smooth="yes"/>
      <point x="-158" y="967"/>
      <point x="-156" y="928"/>
      <point x="-156" y="881" type="curve" smooth="yes"/>
      <point x="-156" y="839"/>
      <point x="-157" y="836"/>
      <point x="-158" y="829" type="curve"/>
    </contour>
    <contour>
      <point x="-70" y="999" type="curve" smooth="yes"/>
      <point x="-75" y="999"/>
      <point x="-80" y="999"/>
      <point x="-86" y="1000" type="curve"/>
      <point x="-72" y="1017" type="line" smooth="yes"/>
      <point x="-38" y="1059"/>
      <point x="-12" y="1074"/>
      <point x="18" y="1074" type="curve" smooth="yes"/>
      <point x="26" y="1074"/>
      <point x="49" y="1071"/>
      <point x="49" y="1055" type="curve" smooth="yes"/>
      <point x="49" y="1030"/>
      <point x="-6" y="999"/>
    </contour>
    <contour>
      <point x="-5" y="853" type="line"/>
      <point x="58" y="866"/>
      <point x="96" y="878"/>
      <point x="109" y="888" type="curve" smooth="yes"/>
      <point x="130" y="905"/>
      <point x="169" y="974"/>
      <point x="197" y="1084" type="curve"/>
      <point x="182" y="1087" type="line"/>
      <point x="170" y="1053"/>
      <point x="157" y="1023"/>
      <point x="143" y="999" type="curve" smooth="yes"/>
      <point x="110" y="943"/>
      <point x="17" y="876"/>
      <point x="-7" y="864" type="curve"/>
    </contour>
    <contour>
      <point x="-48" y="1143" type="curve"/>
      <point x="-44" y="1143" type="line"/>
      <point x="-26" y="1155"/>
      <point x="-11" y="1168"/>
      <point x="-11" y="1181" type="curve" smooth="yes"/>
      <point x="-11" y="1191"/>
      <point x="-20" y="1201"/>
      <point x="-42" y="1215" type="curve"/>
      <point x="-46" y="1215" type="line"/>
      <point x="-51" y="1210"/>
      <point x="-70" y="1192"/>
      <point x="-82" y="1175" type="curve"/>
      <point x="-82" y="1171" type="line"/>
      <point x="-64" y="1158"/>
      <point x="-59" y="1154"/>
    </contour>
  </outline>
</glyph>
<glyph name="SemicolonArabic" format="2">
  <advance width="317"/>
  <unicode hex="061B"/>
  <note>
SemicolonArabic
</note>
  <outline>
    <contour>
      <point x="152" y="354" type="curve"/>
      <point x="162" y="354" type="line"/>
      <point x="222" y="397"/>
      <point x="244" y="430"/>
      <point x="244" y="449" type="curve" smooth="yes"/>
      <point x="244" y="466"/>
      <point x="234" y="477"/>
      <point x="223" y="486" type="curve" smooth="yes"/>
      <point x="182" y="522" type="line" smooth="yes"/>
      <point x="159" y="542"/>
      <point x="156" y="551"/>
      <point x="156" y="567" type="curve" smooth="yes"/>
      <point x="156" y="592"/>
      <point x="176" y="629"/>
      <point x="208" y="677" type="curve"/>
      <point x="189" y="690" type="line"/>
      <point x="127" y="624"/>
      <point x="79" y="532"/>
      <point x="79" y="462" type="curve" smooth="yes"/>
      <point x="79" y="419"/>
      <point x="97" y="399"/>
    </contour>
    <contour>
      <point x="156" y="20" type="curve"/>
      <point x="165" y="20" type="line"/>
      <point x="219" y="58"/>
      <point x="247" y="91"/>
      <point x="247" y="114" type="curve" smooth="yes"/>
      <point x="247" y="141"/>
      <point x="225" y="163"/>
      <point x="169" y="199" type="curve"/>
      <point x="160" y="199" type="line"/>
      <point x="148" y="191"/>
      <point x="94" y="135"/>
      <point x="73" y="103" type="curve"/>
      <point x="73" y="94" type="line"/>
      <point x="101" y="71"/>
      <point x="128" y="48"/>
    </contour>
  </outline>
</glyph>
<glyph name="ThreeDotPunct" format="2">
  <advance width="514"/>
  <unicode hex="061E"/>
  <note>
ThreeDotPunct
</note>
  <outline>
    <contour>
      <point x="257" y="235" type="curve"/>
      <point x="266" y="235" type="line"/>
      <point x="320" y="273"/>
      <point x="348" y="307"/>
      <point x="348" y="330" type="curve" smooth="yes"/>
      <point x="348" y="359"/>
      <point x="320" y="383"/>
      <point x="270" y="414" type="curve"/>
      <point x="261" y="414" type="line"/>
      <point x="250" y="406"/>
      <point x="195" y="351"/>
      <point x="174" y="318" type="curve"/>
      <point x="174" y="310" type="line"/>
      <point x="202" y="287"/>
      <point x="229" y="262"/>
    </contour>
    <contour>
      <point x="134" y="20" type="curve"/>
      <point x="143" y="20" type="line"/>
      <point x="197" y="58"/>
      <point x="225" y="91"/>
      <point x="225" y="114" type="curve" smooth="yes"/>
      <point x="225" y="144"/>
      <point x="197" y="167"/>
      <point x="147" y="199" type="curve"/>
      <point x="138" y="199" type="line"/>
      <point x="126" y="191"/>
      <point x="72" y="135"/>
      <point x="51" y="103" type="curve"/>
      <point x="51" y="94" type="line"/>
      <point x="79" y="71"/>
      <point x="106" y="48"/>
    </contour>
    <contour>
      <point x="375" y="20" type="curve"/>
      <point x="383" y="20" type="line"/>
      <point x="438" y="58"/>
      <point x="466" y="91"/>
      <point x="466" y="114" type="curve" smooth="yes"/>
      <point x="466" y="144"/>
      <point x="438" y="167"/>
      <point x="388" y="199" type="curve"/>
      <point x="379" y="199" type="line"/>
      <point x="367" y="191"/>
      <point x="313" y="135"/>
      <point x="292" y="103" type="curve"/>
      <point x="292" y="94" type="line"/>
      <point x="320" y="70"/>
      <point x="347" y="46"/>
    </contour>
  </outline>
</glyph>
<glyph name="QuestionmarkArabic" format="2">
  <advance width="476"/>
  <unicode hex="061F"/>
  <note>
QuestionmarkArabic
</note>
  <outline>
    <contour>
      <point x="284" y="267" type="line"/>
      <point x="289" y="288"/>
      <point x="291" y="309"/>
      <point x="291" y="330" type="curve" smooth="yes"/>
      <point x="291" y="417"/>
      <point x="257" y="496"/>
      <point x="190" y="567" type="curve" smooth="yes"/>
      <point x="152" y="607"/>
      <point x="133" y="639"/>
      <point x="133" y="662" type="curve" smooth="yes"/>
      <point x="133" y="720"/>
      <point x="202" y="747"/>
      <point x="271" y="747" type="curve" smooth="yes"/>
      <point x="301" y="747"/>
      <point x="323" y="745"/>
      <point x="339" y="738" type="curve"/>
      <point x="348" y="738" type="line"/>
      <point x="363" y="757"/>
      <point x="370" y="778"/>
      <point x="370" y="799" type="curve" smooth="yes"/>
      <point x="370" y="833"/>
      <point x="339" y="856"/>
      <point x="279" y="856" type="curve" smooth="yes"/>
      <point x="169" y="856"/>
      <point x="88" y="748"/>
      <point x="88" y="650" type="curve" smooth="yes"/>
      <point x="88" y="590"/>
      <point x="108" y="544"/>
      <point x="163" y="474" type="curve" smooth="yes"/>
      <point x="232" y="385"/>
      <point x="253" y="342"/>
      <point x="265" y="268" type="curve"/>
    </contour>
    <contour>
      <point x="265" y="20" type="curve"/>
      <point x="273" y="20" type="line"/>
      <point x="328" y="62"/>
      <point x="353" y="87"/>
      <point x="353" y="111" type="curve" smooth="yes"/>
      <point x="353" y="137"/>
      <point x="329" y="159"/>
      <point x="278" y="191" type="curve"/>
      <point x="269" y="191" type="line"/>
      <point x="260" y="186"/>
      <point x="216" y="143"/>
      <point x="186" y="100" type="curve"/>
      <point x="186" y="91" type="line"/>
      <point x="220" y="64"/>
      <point x="247" y="41"/>
    </contour>
  </outline>
</glyph>
<glyph name="Hamza" format="2">
  <advance width="544"/>
  <unicode hex="0621"/>
  <note>
Hamza
</note>
  <outline>
    <contour>
      <point x="72" y="17" type="line"/>
      <point x="143" y="92"/>
      <point x="223" y="158"/>
      <point x="312" y="212" type="curve" smooth="yes"/>
      <point x="411" y="272" type="line" smooth="yes"/>
      <point x="432" y="285"/>
      <point x="444" y="296"/>
      <point x="451" y="305" type="curve" smooth="yes"/>
      <point x="467" y="325"/>
      <point x="478" y="347"/>
      <point x="486" y="369" type="curve"/>
      <point x="473" y="380" type="line"/>
      <point x="404" y="335" type="line" smooth="yes"/>
      <point x="340" y="293"/>
      <point x="323" y="288"/>
      <point x="293" y="288" type="curve" smooth="yes"/>
      <point x="232" y="288"/>
      <point x="180" y="318"/>
      <point x="180" y="362" type="curve" smooth="yes"/>
      <point x="180" y="405"/>
      <point x="228" y="438"/>
      <point x="277" y="438" type="curve" smooth="yes"/>
      <point x="300" y="438"/>
      <point x="326" y="431"/>
      <point x="343" y="412" type="curve"/>
      <point x="350" y="411" type="line"/>
      <point x="370" y="423"/>
      <point x="380" y="440"/>
      <point x="380" y="463" type="curve" smooth="yes"/>
      <point x="380" y="502"/>
      <point x="338" y="516"/>
      <point x="310" y="516" type="curve" smooth="yes"/>
      <point x="268" y="516"/>
      <point x="219" y="489"/>
      <point x="164" y="436" type="curve" smooth="yes"/>
      <point x="108" y="382"/>
      <point x="80" y="331"/>
      <point x="80" y="283" type="curve" smooth="yes"/>
      <point x="80" y="244"/>
      <point x="105" y="198"/>
      <point x="156" y="180" type="curve"/>
      <point x="106" y="140"/>
      <point x="81" y="97"/>
      <point x="58" y="27" type="curve"/>
    </contour>
  </outline>
</glyph>
<glyph name="AlefMadda" format="2">
  <advance width="330"/>
  <unicode hex="0622"/>
  <note>
AlefMadda
</note>
  <outline>
    <contour>
      <point x="123" y="101" type="line"/>
      <point x="165" y="199"/>
      <point x="187" y="291"/>
      <point x="192" y="377" type="curve" smooth="yes"/>
      <point x="208" y="659" type="line" smooth="yes"/>
      <point x="214" y="767"/>
      <point x="222" y="834"/>
      <point x="233" y="861" type="curve"/>
      <point x="212" y="869" type="line"/>
      <point x="137" y="702"/>
      <point x="132" y="663"/>
      <point x="128" y="544" type="curve" smooth="yes"/>
      <point x="119" y="295" type="line" smooth="yes"/>
      <point x="116" y="199"/>
      <point x="107" y="136"/>
      <point x="101" y="106" type="curve"/>
    </contour>
    <contour>
      <point x="-19" y="1042" type="line"/>
      <point x="2" y="1071"/>
      <point x="16" y="1083"/>
      <point x="41" y="1083" type="curve" smooth="yes"/>
      <point x="65" y="1083"/>
      <point x="88" y="1076"/>
      <point x="112" y="1073" type="curve" smooth="yes"/>
      <point x="152" y="1068"/>
      <point x="184" y="1065"/>
      <point x="212" y="1065" type="curve" smooth="yes"/>
      <point x="298" y="1065"/>
      <point x="413" y="1098"/>
      <point x="502" y="1215" type="curve"/>
      <point x="489" y="1226" type="line"/>
      <point x="434" y="1179"/>
      <point x="364" y="1167"/>
      <point x="282" y="1167" type="curve" smooth="yes"/>
      <point x="265" y="1167"/>
      <point x="219" y="1169"/>
      <point x="163" y="1178" type="curve" smooth="yes"/>
      <point x="120" y="1185"/>
      <point x="105" y="1188"/>
      <point x="95" y="1188" type="curve" smooth="yes"/>
      <point x="43" y="1188"/>
      <point x="-3" y="1126"/>
      <point x="-39" y="1051" type="curve"/>
    </contour>
  </outline>
</glyph>
<glyph name="AlefHamzaAbove" format="2">
  <advance width="330"/>
  <unicode hex="0623"/>
  <note>
AlefHamzaAbove
</note>
  <outline>
    <contour>
      <point x="123" y="101" type="line"/>
      <point x="165" y="199"/>
      <point x="187" y="291"/>
      <point x="192" y="377" type="curve" smooth="yes"/>
      <point x="208" y="659" type="line" smooth="yes"/>
      <point x="214" y="767"/>
      <point x="222" y="834"/>
      <point x="233" y="861" type="curve"/>
      <point x="212" y="869" type="line"/>
      <point x="137" y="702"/>
      <point x="132" y="663"/>
      <point x="128" y="544" type="curve" smooth="yes"/>
      <point x="119" y="295" type="line" smooth="yes"/>
      <point x="116" y="199"/>
      <point x="107" y="136"/>
      <point x="101" y="106" type="curve"/>
    </contour>
    <contour>
      <point x="124" y="987" type="curve" smooth="yes"/>
      <point x="149" y="987"/>
      <point x="171" y="1004"/>
      <point x="196" y="1044" type="curve" smooth="yes"/>
      <point x="229" y="1096" type="line" smooth="yes"/>
      <point x="245" y="1122"/>
      <point x="256" y="1128"/>
      <point x="270" y="1128" type="curve" smooth="yes"/>
      <point x="279" y="1128"/>
      <point x="289" y="1122"/>
      <point x="289" y="1103" type="curve"/>
      <point x="306" y="1099" type="line"/>
      <point x="322" y="1117"/>
      <point x="336" y="1144"/>
      <point x="336" y="1169" type="curve" smooth="yes"/>
      <point x="336" y="1196"/>
      <point x="319" y="1203"/>
      <point x="302" y="1203" type="curve" smooth="yes"/>
      <point x="279" y="1203"/>
      <point x="258" y="1189"/>
      <point x="231" y="1147" type="curve" smooth="yes"/>
      <point x="197" y="1095" type="line" smooth="yes"/>
      <point x="179" y="1068"/>
      <point x="169" y="1062"/>
      <point x="156" y="1062" type="curve" smooth="yes"/>
      <point x="146" y="1062"/>
      <point x="137" y="1070"/>
      <point x="137" y="1087" type="curve"/>
      <point x="120" y="1090" type="line"/>
      <point x="104" y="1072"/>
      <point x="89" y="1046"/>
      <point x="89" y="1020" type="curve" smooth="yes"/>
      <point x="89" y="998"/>
      <point x="103" y="987"/>
    </contour>
  </outline>
</glyph>
<glyph name="WawHamza" format="2">
  <advance width="422"/>
  <unicode hex="0624"/>
  <note>
WawHamza
</note>
  <outline>
    <contour>
      <point x="24" y="-68" type="line"/>
      <point x="113" y="-44"/>
      <point x="222" y="0"/>
      <point x="252" y="20" type="curve"/>
      <point x="322" y="102"/>
      <point x="345" y="208"/>
      <point x="345" y="282" type="curve" smooth="yes"/>
      <point x="345" y="394"/>
      <point x="315" y="449"/>
      <point x="257" y="449" type="curve" smooth="yes"/>
      <point x="227" y="449"/>
      <point x="205" y="434"/>
      <point x="189" y="402" type="curve" smooth="yes"/>
      <point x="156" y="336" type="line" smooth="yes"/>
      <point x="143" y="309"/>
      <point x="136" y="284"/>
      <point x="136" y="262" type="curve" smooth="yes"/>
      <point x="136" y="220"/>
      <point x="176" y="186"/>
      <point x="223" y="186" type="curve" smooth="yes"/>
      <point x="245" y="186"/>
      <point x="267" y="193"/>
      <point x="290" y="209" type="curve"/>
      <point x="292" y="208"/>
      <point x="292" y="205"/>
      <point x="292" y="201" type="curve" smooth="yes"/>
      <point x="292" y="155"/>
      <point x="170" y="44"/>
      <point x="20" y="-46" type="curve"/>
    </contour>
    <contour>
      <point x="126" y="541" type="curve" smooth="yes"/>
      <point x="151" y="541"/>
      <point x="173" y="559"/>
      <point x="198" y="598" type="curve" smooth="yes"/>
      <point x="231" y="649" type="line" smooth="yes"/>
      <point x="248" y="675"/>
      <point x="258" y="682"/>
      <point x="271" y="682" type="curve" smooth="yes"/>
      <point x="281" y="682"/>
      <point x="291" y="675"/>
      <point x="291" y="657" type="curve"/>
      <point x="308" y="653" type="line"/>
      <point x="324" y="671"/>
      <point x="338" y="697"/>
      <point x="338" y="723" type="curve" smooth="yes"/>
      <point x="338" y="750"/>
      <point x="321" y="757"/>
      <point x="304" y="757" type="curve" smooth="yes"/>
      <point x="281" y="757"/>
      <point x="260" y="743"/>
      <point x="233" y="701" type="curve" smooth="yes"/>
      <point x="199" y="648" type="line" smooth="yes"/>
      <point x="182" y="621"/>
      <point x="171" y="615"/>
      <point x="158" y="615" type="curve" smooth="yes"/>
      <point x="148" y="615"/>
      <point x="139" y="624"/>
      <point x="139" y="641" type="curve"/>
      <point x="122" y="644" type="line"/>
      <point x="105" y="626"/>
      <point x="91" y="600"/>
      <point x="91" y="574" type="curve" smooth="yes"/>
      <point x="91" y="551"/>
      <point x="104" y="541"/>
    </contour>
  </outline>
</glyph>
<glyph name="AlefHamzaBelow" format="2">
  <advance width="330"/>
  <unicode hex="0625"/>
  <note>
AlefHamzaBelow
</note>
  <outline>
    <contour>
      <point x="123" y="101" type="line"/>
      <point x="165" y="199"/>
      <point x="187" y="291"/>
      <point x="192" y="377" type="curve" smooth="yes"/>
      <point x="208" y="659" type="line" smooth="yes"/>
      <point x="214" y="767"/>
      <point x="222" y="834"/>
      <point x="233" y="861" type="curve"/>
      <point x="212" y="869" type="line"/>
      <point x="137" y="702"/>
      <point x="132" y="663"/>
      <point x="128" y="544" type="curve" smooth="yes"/>
      <point x="119" y="295" type="line" smooth="yes"/>
      <point x="116" y="199"/>
      <point x="107" y="136"/>
      <point x="101" y="106" type="curve"/>
    </contour>
    <contour>
      <point x="11" y="-216" type="curve" smooth="yes"/>
      <point x="36" y="-216"/>
      <point x="58" y="-199"/>
      <point x="83" y="-159" type="curve" smooth="yes"/>
      <point x="116" y="-107" type="line" smooth="yes"/>
      <point x="132" y="-81"/>
      <point x="143" y="-75"/>
      <point x="156" y="-75" type="curve" smooth="yes"/>
      <point x="166" y="-75"/>
      <point x="176" y="-82"/>
      <point x="176" y="-100" type="curve"/>
      <point x="192" y="-104" type="line"/>
      <point x="209" y="-86"/>
      <point x="223" y="-60"/>
      <point x="223" y="-34" type="curve" smooth="yes"/>
      <point x="223" y="-7"/>
      <point x="206" y="0"/>
      <point x="189" y="0" type="curve" smooth="yes"/>
      <point x="166" y="0"/>
      <point x="146" y="-15"/>
      <point x="118" y="-56" type="curve" smooth="yes"/>
      <point x="83" y="-108" type="line" smooth="yes"/>
      <point x="65" y="-134"/>
      <point x="56" y="-142"/>
      <point x="43" y="-142" type="curve" smooth="yes"/>
      <point x="33" y="-142"/>
      <point x="24" y="-133"/>
      <point x="24" y="-116" type="curve"/>
      <point x="7" y="-113" type="line"/>
      <point x="-10" y="-131"/>
      <point x="-24" y="-157"/>
      <point x="-24" y="-183" type="curve" smooth="yes"/>
      <point x="-24" y="-206"/>
      <point x="-11" y="-216"/>
    </contour>
  </outline>
</glyph>
<glyph name="Beh" format="2">
  <advance width="1175"/>
  <unicode hex="0628"/>
  <note>
Beh
</note>
  <outline>
    <contour>
      <point x="345" y="-17" type="curve" smooth="yes"/>
      <point x="476" y="-17"/>
      <point x="619" y="0"/>
      <point x="758" y="43" type="curve" smooth="yes"/>
      <point x="823" y="63"/>
      <point x="879" y="87"/>
      <point x="925" y="116" type="curve" smooth="yes"/>
      <point x="971" y="145"/>
      <point x="1005" y="174"/>
      <point x="1026" y="204" type="curve" smooth="yes"/>
      <point x="1067" y="262"/>
      <point x="1101" y="338"/>
      <point x="1117" y="407" type="curve"/>
      <point x="1097" y="413" type="line"/>
      <point x="1070" y="361"/>
      <point x="1044" y="313"/>
      <point x="937" y="256" type="curve" smooth="yes"/>
      <point x="813" y="190"/>
      <point x="590" y="147"/>
      <point x="411" y="147" type="curve" smooth="yes"/>
      <point x="193" y="147"/>
      <point x="112" y="162"/>
      <point x="112" y="269" type="curve" smooth="yes"/>
      <point x="112" y="281"/>
      <point x="112" y="292"/>
      <point x="113" y="301" type="curve"/>
      <point x="83" y="306" type="line"/>
      <point x="66" y="248"/>
      <point x="58" y="199"/>
      <point x="58" y="160" type="curve" smooth="yes"/>
      <point x="58" y="18"/>
      <point x="187" y="-17"/>
    </contour>
    <contour>
      <point x="572" y="-344" type="curve"/>
      <point x="581" y="-344" type="line"/>
      <point x="636" y="-305"/>
      <point x="664" y="-273"/>
      <point x="664" y="-250" type="curve" smooth="yes"/>
      <point x="664" y="-223"/>
      <point x="637" y="-198"/>
      <point x="585" y="-165" type="curve"/>
      <point x="577" y="-165" type="line"/>
      <point x="560" y="-176"/>
      <point x="507" y="-235"/>
      <point x="490" y="-261" type="curve"/>
      <point x="490" y="-270" type="line"/>
      <point x="517" y="-291"/>
      <point x="544" y="-315"/>
    </contour>
  </outline>
</glyph>
<glyph name="TehMarbuta" format="2">
  <advance width="314"/>
  <unicode hex="0629"/>
  <note>
TehMarbuta
</note>
  <outline>
    <contour>
      <point x="90" y="-7" type="curve" smooth="yes"/>
      <point x="200" y="-7"/>
      <point x="286" y="112"/>
      <point x="286" y="231" type="curve" smooth="yes"/>
      <point x="286" y="271"/>
      <point x="279" y="303"/>
      <point x="267" y="327" type="curve" smooth="yes"/>
      <point x="243" y="376"/>
      <point x="199" y="404"/>
      <point x="162" y="404" type="curve" smooth="yes"/>
      <point x="133" y="404"/>
      <point x="85" y="319"/>
      <point x="85" y="287" type="curve" smooth="yes"/>
      <point x="85" y="280"/>
      <point x="86" y="275"/>
      <point x="89" y="272" type="curve"/>
      <point x="37" y="211"/>
      <point x="11" y="146"/>
      <point x="11" y="75" type="curve" smooth="yes"/>
      <point x="11" y="30"/>
      <point x="43" y="-7"/>
    </contour>
    <contour>
      <point x="130" y="75" type="curve" smooth="yes"/>
      <point x="95" y="75"/>
      <point x="73" y="95"/>
      <point x="73" y="131" type="curve" smooth="yes"/>
      <point x="73" y="177"/>
      <point x="91" y="219"/>
      <point x="126" y="256" type="curve"/>
      <point x="189" y="243"/>
      <point x="214" y="191"/>
      <point x="214" y="147" type="curve" smooth="yes"/>
      <point x="214" y="105"/>
      <point x="184" y="75"/>
    </contour>
    <contour>
      <point x="77" y="576" type="curve"/>
      <point x="85" y="576" type="line"/>
      <point x="127" y="606"/>
      <point x="153" y="631"/>
      <point x="163" y="652" type="curve"/>
      <point x="183" y="636"/>
      <point x="204" y="617"/>
      <point x="227" y="594" type="curve"/>
      <point x="235" y="594" type="line"/>
      <point x="289" y="632"/>
      <point x="315" y="664"/>
      <point x="315" y="689" type="curve" smooth="yes"/>
      <point x="315" y="716"/>
      <point x="290" y="739"/>
      <point x="237" y="773" type="curve"/>
      <point x="229" y="773" type="line"/>
      <point x="215" y="765"/>
      <point x="180" y="727"/>
      <point x="158" y="699" type="curve"/>
      <point x="146" y="717"/>
      <point x="122" y="735"/>
      <point x="90" y="755" type="curve"/>
      <point x="81" y="755" type="line"/>
      <point x="65" y="745"/>
      <point x="13" y="686"/>
      <point x="-6" y="659" type="curve"/>
      <point x="-6" y="650" type="line"/>
      <point x="20" y="629"/>
      <point x="48" y="604"/>
    </contour>
  </outline>
</glyph>
<glyph name="Teh" format="2">
  <advance width="1175"/>
  <unicode hex="062A"/>
  <note>
Teh
</note>
  <outline>
    <contour>
      <point x="345" y="-17" type="curve" smooth="yes"/>
      <point x="476" y="-17"/>
      <point x="619" y="0"/>
      <point x="758" y="43" type="curve" smooth="yes"/>
      <point x="823" y="63"/>
      <point x="879" y="87"/>
      <point x="925" y="116" type="curve" smooth="yes"/>
      <point x="971" y="145"/>
      <point x="1005" y="174"/>
      <point x="1026" y="204" type="curve" smooth="yes"/>
      <point x="1067" y="262"/>
      <point x="1101" y="338"/>
      <point x="1117" y="407" type="curve"/>
      <point x="1097" y="413" type="line"/>
      <point x="1070" y="361"/>
      <point x="1044" y="313"/>
      <point x="937" y="256" type="curve" smooth="yes"/>
      <point x="813" y="190"/>
      <point x="590" y="147"/>
      <point x="411" y="147" type="curve" smooth="yes"/>
      <point x="193" y="147"/>
      <point x="112" y="162"/>
      <point x="112" y="269" type="curve" smooth="yes"/>
      <point x="112" y="281"/>
      <point x="112" y="292"/>
      <point x="113" y="301" type="curve"/>
      <point x="83" y="306" type="line"/>
      <point x="66" y="248"/>
      <point x="58" y="199"/>
      <point x="58" y="160" type="curve" smooth="yes"/>
      <point x="58" y="18"/>
      <point x="187" y="-17"/>
    </contour>
    <contour>
      <point x="518" y="504" type="curve"/>
      <point x="527" y="504" type="line"/>
      <point x="569" y="534"/>
      <point x="594" y="559"/>
      <point x="604" y="580" type="curve"/>
      <point x="624" y="564"/>
      <point x="645" y="545"/>
      <point x="668" y="522" type="curve"/>
      <point x="677" y="522" type="line"/>
      <point x="730" y="561"/>
      <point x="757" y="592"/>
      <point x="757" y="617" type="curve" smooth="yes"/>
      <point x="757" y="645"/>
      <point x="731" y="667"/>
      <point x="679" y="702" type="curve"/>
      <point x="670" y="702" type="line"/>
      <point x="657" y="693"/>
      <point x="622" y="655"/>
      <point x="600" y="627" type="curve"/>
      <point x="587" y="645"/>
      <point x="564" y="663"/>
      <point x="531" y="683" type="curve"/>
      <point x="522" y="683" type="line"/>
      <point x="506" y="673"/>
      <point x="454" y="614"/>
      <point x="435" y="587" type="curve"/>
      <point x="435" y="579" type="line"/>
      <point x="461" y="558"/>
      <point x="489" y="533"/>
    </contour>
  </outline>
</glyph>
<glyph name="Theh" format="2">
  <advance width="1175"/>
  <unicode hex="062B"/>
  <note>
Theh
</note>
  <outline>
    <contour>
      <point x="345" y="-17" type="curve" smooth="yes"/>
      <point x="476" y="-17"/>
      <point x="619" y="0"/>
      <point x="758" y="43" type="curve" smooth="yes"/>
      <point x="823" y="63"/>
      <point x="879" y="87"/>
      <point x="925" y="116" type="curve" smooth="yes"/>
      <point x="971" y="145"/>
      <point x="1005" y="174"/>
      <point x="1026" y="204" type="curve" smooth="yes"/>
      <point x="1067" y="262"/>
      <point x="1101" y="338"/>
      <point x="1117" y="407" type="curve"/>
      <point x="1097" y="413" type="line"/>
      <point x="1070" y="361"/>
      <point x="1044" y="313"/>
      <point x="937" y="256" type="curve" smooth="yes"/>
      <point x="813" y="190"/>
      <point x="590" y="147"/>
      <point x="411" y="147" type="curve" smooth="yes"/>
      <point x="193" y="147"/>
      <point x="112" y="162"/>
      <point x="112" y="269" type="curve" smooth="yes"/>
      <point x="112" y="281"/>
      <point x="112" y="292"/>
      <point x="113" y="301" type="curve"/>
      <point x="83" y="306" type="line"/>
      <point x="66" y="248"/>
      <point x="58" y="199"/>
      <point x="58" y="160" type="curve" smooth="yes"/>
      <point x="58" y="18"/>
      <point x="187" y="-17"/>
    </contour>
    <contour>
      <point x="518" y="504" type="curve"/>
      <point x="527" y="504" type="line"/>
      <point x="569" y="534"/>
      <point x="594" y="559"/>
      <point x="604" y="580" type="curve"/>
      <point x="624" y="564"/>
      <point x="645" y="545"/>
      <point x="668" y="522" type="curve"/>
      <point x="677" y="522" type="line"/>
      <point x="730" y="561"/>
      <point x="757" y="592"/>
      <point x="757" y="617" type="curve" smooth="yes"/>
      <point x="757" y="645"/>
      <point x="731" y="667"/>
      <point x="679" y="702" type="curve"/>
      <point x="670" y="702" type="line"/>
      <point x="657" y="693"/>
      <point x="622" y="655"/>
      <point x="599" y="627" type="curve"/>
      <point x="588" y="644"/>
      <point x="565" y="661"/>
      <point x="531" y="683" type="curve"/>
      <point x="522" y="683" type="line"/>
      <point x="506" y="673"/>
      <point x="454" y="614"/>
      <point x="435" y="587" type="curve"/>
      <point x="435" y="579" type="line"/>
      <point x="461" y="558"/>
      <point x="489" y="533"/>
    </contour>
    <contour>
      <point x="587" y="678" type="curve"/>
      <point x="596" y="678" type="line"/>
      <point x="650" y="722"/>
      <point x="674" y="748"/>
      <point x="674" y="769" type="curve" smooth="yes"/>
      <point x="674" y="789"/>
      <point x="653" y="809"/>
      <point x="601" y="845" type="curve"/>
      <point x="593" y="845" type="line"/>
      <point x="584" y="841"/>
      <point x="539" y="798"/>
      <point x="509" y="757" type="curve"/>
      <point x="509" y="749" type="line"/>
      <point x="517" y="743"/>
      <point x="571" y="696"/>
    </contour>
  </outline>
</glyph>
<glyph name="Jeem" format="2">
  <advance width="871"/>
  <unicode hex="062C"/>
  <note>
Jeem
</note>
  <outline>
    <contour>
      <point x="337" y="-341" type="curve" smooth="yes"/>
      <point x="444" y="-341"/>
      <point x="542" y="-302"/>
      <point x="630" y="-224" type="curve" smooth="yes"/>
      <point x="719" y="-146"/>
      <point x="792" y="-34"/>
      <point x="850" y="112" type="curve"/>
      <point x="819" y="121" type="line"/>
      <point x="727" y="-69"/>
      <point x="597" y="-163"/>
      <point x="417" y="-163" type="curve" smooth="yes"/>
      <point x="245" y="-163"/>
      <point x="124" y="-72"/>
      <point x="124" y="87" type="curve" smooth="yes"/>
      <point x="124" y="288"/>
      <point x="324" y="470"/>
      <point x="499" y="582" type="curve" smooth="yes"/>
      <point x="535" y="605"/>
      <point x="564" y="635"/>
      <point x="584" y="677" type="curve"/>
      <point x="583" y="684" type="line"/>
      <point x="539" y="705"/>
      <point x="413" y="720"/>
      <point x="353" y="720" type="curve" smooth="yes"/>
      <point x="267" y="720"/>
      <point x="200" y="708"/>
      <point x="154" y="568" type="curve"/>
      <point x="179" y="560" type="line"/>
      <point x="205" y="611"/>
      <point x="240" y="613"/>
      <point x="288" y="613" type="curve" smooth="yes"/>
      <point x="328" y="613"/>
      <point x="441" y="607"/>
      <point x="446" y="599" type="curve"/>
      <point x="310" y="511"/>
      <point x="206" y="413"/>
      <point x="135" y="306" type="curve" smooth="yes"/>
      <point x="64" y="198"/>
      <point x="28" y="86"/>
      <point x="28" y="-30" type="curve" smooth="yes"/>
      <point x="28" y="-214"/>
      <point x="141" y="-341"/>
    </contour>
    <contour>
      <point x="445" y="133" type="curve"/>
      <point x="454" y="133" type="line"/>
      <point x="509" y="172"/>
      <point x="536" y="204"/>
      <point x="536" y="228" type="curve" smooth="yes"/>
      <point x="536" y="250"/>
      <point x="519" y="273"/>
      <point x="458" y="312" type="curve"/>
      <point x="449" y="312" type="line"/>
      <point x="433" y="301"/>
      <point x="379" y="242"/>
      <point x="362" y="216" type="curve"/>
      <point x="362" y="208" type="line"/>
      <point x="389" y="187"/>
      <point x="417" y="162"/>
    </contour>
  </outline>
</glyph>
<glyph name="Dhal" format="2">
  <advance width="300"/>
  <unicode hex="0630"/>
  <note>
Dhal
</note>
  <outline>
    <contour>
      <point x="-43" y="-67" type="line"/>
      <point x="48" y="-45"/>
      <point x="111" y="-25"/>
      <point x="145" y="-8" type="curve" smooth="yes"/>
      <point x="217" y="28"/>
      <point x="276" y="167"/>
      <point x="276" y="266" type="curve" smooth="yes"/>
      <point x="276" y="362"/>
      <point x="220" y="424"/>
      <point x="164" y="459" type="curve"/>
      <point x="153" y="459" type="line"/>
      <point x="129" y="426"/>
      <point x="79" y="323"/>
      <point x="68" y="289" type="curve"/>
      <point x="169" y="242"/>
      <point x="206" y="186"/>
      <point x="206" y="156" type="curve" smooth="yes"/>
      <point x="206" y="104"/>
      <point x="38" y="-3"/>
      <point x="-45" y="-45" type="curve"/>
    </contour>
    <contour>
      <point x="194" y="693" type="curve"/>
      <point x="203" y="693" type="line"/>
      <point x="258" y="732"/>
      <point x="286" y="764"/>
      <point x="286" y="788" type="curve" smooth="yes"/>
      <point x="286" y="810"/>
      <point x="269" y="833"/>
      <point x="208" y="872" type="curve"/>
      <point x="199" y="872" type="line"/>
      <point x="182" y="861"/>
      <point x="129" y="802"/>
      <point x="112" y="776" type="curve"/>
      <point x="112" y="768" type="line"/>
      <point x="139" y="747"/>
      <point x="167" y="722"/>
    </contour>
  </outline>
</glyph>
<glyph name="Reh" format="2">
  <advance width="406"/>
  <unicode hex="0631"/>
  <note>
Reh
</note>
  <outline>
    <contour>
      <point x="-43" y="-37" type="line"/>
      <point x="68" y="-12"/>
      <point x="142" y="9"/>
      <point x="178" y="28" type="curve"/>
      <point x="237" y="74"/>
      <point x="302" y="206"/>
      <point x="353" y="416" type="curve"/>
      <point x="323" y="421" type="line"/>
      <point x="292" y="335"/>
      <point x="254" y="247"/>
      <point x="223" y="209" type="curve" smooth="yes"/>
      <point x="181" y="158"/>
      <point x="38" y="32"/>
      <point x="-47" y="-14" type="curve"/>
    </contour>
  </outline>
</glyph>
<glyph name="Zain" format="2">
  <advance width="406"/>
  <unicode hex="0632"/>
  <note>
Zain
</note>
  <outline>
    <contour>
      <point x="-43" y="-37" type="line"/>
      <point x="68" y="-12"/>
      <point x="142" y="9"/>
      <point x="178" y="28" type="curve"/>
      <point x="237" y="74"/>
      <point x="302" y="206"/>
      <point x="353" y="416" type="curve"/>
      <point x="323" y="421" type="line"/>
      <point x="292" y="335"/>
      <point x="254" y="247"/>
      <point x="223" y="209" type="curve" smooth="yes"/>
      <point x="181" y="158"/>
      <point x="38" y="32"/>
      <point x="-47" y="-14" type="curve"/>
    </contour>
    <contour>
      <point x="311" y="608" type="curve"/>
      <point x="320" y="608" type="line"/>
      <point x="375" y="648"/>
      <point x="402" y="680"/>
      <point x="402" y="703" type="curve" smooth="yes"/>
      <point x="402" y="726"/>
      <point x="385" y="749"/>
      <point x="324" y="788" type="curve"/>
      <point x="315" y="788" type="line"/>
      <point x="299" y="777"/>
      <point x="246" y="718"/>
      <point x="229" y="692" type="curve"/>
      <point x="229" y="683" type="line"/>
      <point x="255" y="662"/>
      <point x="283" y="637"/>
    </contour>
  </outline>
</glyph>
<glyph name="Seen" format="2">
  <advance width="1113"/>
  <unicode hex="0633"/>
  <note>
Seen
</note>
  <outline>
    <contour>
      <point x="280" y="-341" type="curve" smooth="yes"/>
      <point x="365" y="-341"/>
      <point x="442" y="-313"/>
      <point x="510" y="-256" type="curve" smooth="yes"/>
      <point x="652" y="-137"/>
      <point x="739" y="104"/>
      <point x="745" y="325" type="curve"/>
      <point x="808" y="337"/>
      <point x="856" y="368"/>
      <point x="890" y="417" type="curve"/>
      <point x="902" y="413"/>
      <point x="914" y="411"/>
      <point x="925" y="411" type="curve" smooth="yes"/>
      <point x="987" y="411"/>
      <point x="1040" y="469"/>
      <point x="1084" y="620" type="curve"/>
      <point x="1056" y="626" type="line"/>
      <point x="1031" y="558"/>
      <point x="1009" y="521"/>
      <point x="983" y="521" type="curve" smooth="yes"/>
      <point x="971" y="521"/>
      <point x="957" y="525"/>
      <point x="940" y="533" type="curve"/>
      <point x="931" y="530" type="line"/>
      <point x="893" y="472"/>
      <point x="842" y="443"/>
      <point x="780" y="443" type="curve" smooth="yes"/>
      <point x="758" y="443"/>
      <point x="738" y="446"/>
      <point x="720" y="454" type="curve"/>
      <point x="704" y="448" type="line"/>
      <point x="701" y="272"/>
      <point x="688" y="140"/>
      <point x="645" y="43" type="curve" smooth="yes"/>
      <point x="611" y="-33"/>
      <point x="557" y="-92"/>
      <point x="476" y="-131" type="curve" smooth="yes"/>
      <point x="435" y="-151"/>
      <point x="386" y="-162"/>
      <point x="329" y="-162" type="curve" smooth="yes"/>
      <point x="212" y="-162"/>
      <point x="95" y="-112"/>
      <point x="95" y="63" type="curve" smooth="yes"/>
      <point x="95" y="128"/>
      <point x="114" y="206"/>
      <point x="151" y="297" type="curve"/>
      <point x="123" y="308" type="line"/>
      <point x="52" y="159"/>
      <point x="28" y="40"/>
      <point x="28" y="-84" type="curve" smooth="yes"/>
      <point x="28" y="-238"/>
      <point x="126" y="-341"/>
    </contour>
  </outline>
</glyph>
<glyph name="Sheen" format="2">
  <advance width="1113"/>
  <unicode hex="0634"/>
  <note>
Sheen
</note>
  <outline>
    <contour>
      <point x="280" y="-341" type="curve" smooth="yes"/>
      <point x="365" y="-341"/>
      <point x="442" y="-313"/>
      <point x="510" y="-256" type="curve" smooth="yes"/>
      <point x="652" y="-137"/>
      <point x="739" y="104"/>
      <point x="745" y="325" type="curve"/>
      <point x="808" y="337"/>
      <point x="856" y="368"/>
      <point x="890" y="417" type="curve"/>
      <point x="902" y="413"/>
      <point x="914" y="411"/>
      <point x="925" y="411" type="curve" smooth="yes"/>
      <point x="987" y="411"/>
      <point x="1040" y="469"/>
      <point x="1084" y="620" type="curve"/>
      <point x="1056" y="626" type="line"/>
      <point x="1031" y="558"/>
      <point x="1009" y="521"/>
      <point x="983" y="521" type="curve" smooth="yes"/>
      <point x="971" y="521"/>
      <point x="957" y="525"/>
      <point x="940" y="533" type="curve"/>
      <point x="931" y="530" type="line"/>
      <point x="893" y="472"/>
      <point x="842" y="443"/>
      <point x="780" y="443" type="curve" smooth="yes"/>
      <point x="758" y="443"/>
      <point x="738" y="446"/>
      <point x="720" y="454" type="curve"/>
      <point x="704" y="448" type="line"/>
      <point x="701" y="272"/>
      <point x="688" y="140"/>
      <point x="645" y="43" type="curve" smooth="yes"/>
      <point x="611" y="-33"/>
      <point x="557" y="-92"/>
      <point x="476" y="-131" type="curve" smooth="yes"/>
      <point x="435" y="-151"/>
      <point x="386" y="-162"/>
      <point x="329" y="-162" type="curve" smooth="yes"/>
      <point x="212" y="-162"/>
      <point x="95" y="-112"/>
      <point x="95" y="63" type="curve" smooth="yes"/>
      <point x="95" y="128"/>
      <point x="114" y="206"/>
      <point x="151" y="297" type="curve"/>
      <point x="123" y="308" type="line"/>
      <point x="52" y="159"/>
      <point x="28" y="40"/>
      <point x="28" y="-84" type="curve" smooth="yes"/>
      <point x="28" y="-238"/>
      <point x="126" y="-341"/>
    </contour>
    <contour>
      <point x="833" y="769" type="curve"/>
      <point x="842" y="769" type="line"/>
      <point x="884" y="799"/>
      <point x="910" y="824"/>
      <point x="920" y="845" type="curve"/>
      <point x="940" y="829"/>
      <point x="961" y="810"/>
      <point x="983" y="787" type="curve"/>
      <point x="992" y="787" type="line"/>
      <point x="1045" y="826"/>
      <point x="1072" y="857"/>
      <point x="1072" y="882" type="curve" smooth="yes"/>
      <point x="1072" y="910"/>
      <point x="1047" y="933"/>
      <point x="994" y="967" type="curve"/>
      <point x="985" y="967" type="line"/>
      <point x="972" y="959"/>
      <point x="937" y="920"/>
      <point x="915" y="893" type="curve"/>
      <point x="903" y="909"/>
      <point x="880" y="926"/>
      <point x="847" y="948" type="curve"/>
      <point x="838" y="948" type="line"/>
      <point x="822" y="938"/>
      <point x="770" y="879"/>
      <point x="750" y="853" type="curve"/>
      <point x="750" y="844" type="line"/>
      <point x="777" y="823"/>
      <point x="805" y="798"/>
    </contour>
    <contour>
      <point x="903" y="943" type="curve"/>
      <point x="912" y="943" type="line"/>
      <point x="965" y="987"/>
      <point x="990" y="1013"/>
      <point x="990" y="1034" type="curve" smooth="yes"/>
      <point x="990" y="1054"/>
      <point x="969" y="1074"/>
      <point x="916" y="1110" type="curve"/>
      <point x="908" y="1110" type="line"/>
      <point x="900" y="1106"/>
      <point x="854" y="1063"/>
      <point x="825" y="1022" type="curve"/>
      <point x="825" y="1014" type="line"/>
      <point x="832" y="1008"/>
      <point x="887" y="961"/>
    </contour>
  </outline>
</glyph>
<glyph name="Sad" format="2">
  <advance width="1241"/>
  <unicode hex="0635"/>
  <note>
Sad
</note>
  <outline>
    <contour>
      <point x="280" y="-341" type="curve" smooth="yes"/>
      <point x="359" y="-341"/>
      <point x="432" y="-315"/>
      <point x="498" y="-264" type="curve" smooth="yes"/>
      <point x="630" y="-162"/>
      <point x="722" y="42"/>
      <point x="745" y="285" type="curve"/>
      <point x="775" y="280"/>
      <point x="810" y="278"/>
      <point x="851" y="278" type="curve" smooth="yes"/>
      <point x="919" y="278"/>
      <point x="998" y="306"/>
      <point x="1059" y="354" type="curve" smooth="yes"/>
      <point x="1088" y="377"/>
      <point x="1115" y="406"/>
      <point x="1138" y="440" type="curve" smooth="yes"/>
      <point x="1192" y="520"/>
      <point x="1213" y="569"/>
      <point x="1213" y="618" type="curve" smooth="yes"/>
      <point x="1213" y="653"/>
      <point x="1188" y="682"/>
      <point x="1137" y="682" type="curve" smooth="yes"/>
      <point x="1061" y="682"/>
      <point x="983" y="633"/>
      <point x="889" y="527" type="curve" smooth="yes"/>
      <point x="836" y="467"/>
      <point x="803" y="424"/>
      <point x="786" y="399" type="curve"/>
      <point x="750" y="403"/>
      <point x="728" y="406"/>
      <point x="721" y="409" type="curve"/>
      <point x="703" y="406" type="line"/>
      <point x="700" y="254"/>
      <point x="684" y="141"/>
      <point x="654" y="67" type="curve" smooth="yes"/>
      <point x="582" y="-111"/>
      <point x="442" y="-162"/>
      <point x="329" y="-162" type="curve" smooth="yes"/>
      <point x="213" y="-162"/>
      <point x="95" y="-114"/>
      <point x="95" y="63" type="curve" smooth="yes"/>
      <point x="95" y="128"/>
      <point x="114" y="206"/>
      <point x="151" y="297" type="curve"/>
      <point x="123" y="308" type="line"/>
      <point x="52" y="159"/>
      <point x="28" y="40"/>
      <point x="28" y="-84" type="curve" smooth="yes"/>
      <point x="28" y="-238"/>
      <point x="125" y="-341"/>
    </contour>
    <contour>
      <point x="868" y="394" type="curve" smooth="yes"/>
      <point x="856" y="394"/>
      <point x="846" y="394"/>
      <point x="836" y="395" type="curve"/>
      <point x="918" y="506"/>
      <point x="981" y="555"/>
      <point x="1055" y="555" type="curve" smooth="yes"/>
      <point x="1094" y="555"/>
      <point x="1123" y="536"/>
      <point x="1123" y="512" type="curve" smooth="yes"/>
      <point x="1123" y="486"/>
      <point x="1097" y="459"/>
      <point x="1043" y="433" type="curve" smooth="yes"/>
      <point x="990" y="407"/>
      <point x="932" y="394"/>
    </contour>
  </outline>
</glyph>
<glyph name="Tah" format="2">
  <advance width="653"/>
  <unicode hex="0637"/>
  <note>
Tah
</note>
  <outline>
    <contour>
      <point x="275" y="-33" type="curve" smooth="yes"/>
      <point x="371" y="-33"/>
      <point x="400" y="-22"/>
      <point x="447" y="13" type="curve" smooth="yes"/>
      <point x="528" y="73"/>
      <point x="593" y="193"/>
      <point x="593" y="277" type="curve" smooth="yes"/>
      <point x="593" y="305"/>
      <point x="580" y="342"/>
      <point x="525" y="342" type="curve" smooth="yes"/>
      <point x="456" y="342"/>
      <point x="394" y="306"/>
      <point x="303" y="207" type="curve"/>
      <point x="326" y="278"/>
      <point x="341" y="349"/>
      <point x="345" y="417" type="curve" smooth="yes"/>
      <point x="354" y="561" type="line" smooth="yes"/>
      <point x="360" y="658"/>
      <point x="369" y="719"/>
      <point x="378" y="743" type="curve"/>
      <point x="358" y="750" type="line"/>
      <point x="313" y="652"/>
      <point x="289" y="587"/>
      <point x="285" y="514" type="curve" smooth="yes"/>
      <point x="283" y="481"/>
      <point x="279" y="422"/>
      <point x="276" y="336" type="curve" smooth="yes"/>
      <point x="273" y="245"/>
      <point x="266" y="184"/>
      <point x="257" y="153" type="curve"/>
      <point x="205" y="86"/>
      <point x="183" y="58"/>
      <point x="155" y="24" type="curve"/>
      <point x="92" y="12"/>
      <point x="48" y="4"/>
      <point x="24" y="2" type="curve"/>
      <point x="20" y="-20" type="line"/>
      <point x="50" y="-26"/>
      <point x="161" y="-33"/>
    </contour>
    <contour>
      <point x="221" y="40" type="curve"/>
      <point x="269" y="100" type="line" smooth="yes"/>
      <point x="328" y="174"/>
      <point x="388" y="210"/>
      <point x="446" y="210" type="curve" smooth="yes"/>
      <point x="484" y="210"/>
      <point x="510" y="190"/>
      <point x="510" y="169" type="curve" smooth="yes"/>
      <point x="510" y="116"/>
      <point x="319" y="61"/>
    </contour>
  </outline>
</glyph>
<glyph name="Ain" format="2">
  <advance width="872"/>
  <unicode hex="0639"/>
  <note>
Ain
</note>
  <outline>
    <contour>
      <point x="337" y="-341" type="curve" smooth="yes"/>
      <point x="444" y="-341"/>
      <point x="542" y="-302"/>
      <point x="630" y="-224" type="curve" smooth="yes"/>
      <point x="719" y="-146"/>
      <point x="791" y="-35"/>
      <point x="850" y="112" type="curve"/>
      <point x="819" y="121" type="line"/>
      <point x="717" y="-75"/>
      <point x="585" y="-164"/>
      <point x="395" y="-164" type="curve" smooth="yes"/>
      <point x="235" y="-164"/>
      <point x="128" y="-72"/>
      <point x="128" y="68" type="curve" smooth="yes"/>
      <point x="128" y="129"/>
      <point x="143" y="183"/>
      <point x="170" y="229" type="curve" smooth="yes"/>
      <point x="217" y="310"/>
      <point x="308" y="385"/>
      <point x="504" y="494" type="curve" smooth="yes"/>
      <point x="522" y="504"/>
      <point x="557" y="557"/>
      <point x="564" y="578" type="curve"/>
      <point x="551" y="589" type="line"/>
      <point x="416" y="496"/>
      <point x="396" y="493"/>
      <point x="363" y="493" type="curve" smooth="yes"/>
      <point x="304" y="493"/>
      <point x="249" y="520"/>
      <point x="249" y="567" type="curve" smooth="yes"/>
      <point x="249" y="614"/>
      <point x="300" y="653"/>
      <point x="361" y="653" type="curve" smooth="yes"/>
      <point x="388" y="653"/>
      <point x="409" y="646"/>
      <point x="425" y="630" type="curve"/>
      <point x="434" y="629" type="line"/>
      <point x="453" y="640"/>
      <point x="462" y="658"/>
      <point x="462" y="685" type="curve" smooth="yes"/>
      <point x="462" y="718"/>
      <point x="434" y="743"/>
      <point x="394" y="743" type="curve" smooth="yes"/>
      <point x="341" y="743"/>
      <point x="295" y="708"/>
      <point x="241" y="651" type="curve" smooth="yes"/>
      <point x="166" y="571"/>
      <point x="143" y="521"/>
      <point x="143" y="477" type="curve" smooth="yes"/>
      <point x="143" y="422"/>
      <point x="180" y="382"/>
      <point x="230" y="367" type="curve"/>
      <point x="95" y="252"/>
      <point x="27" y="119"/>
      <point x="27" y="-31" type="curve" smooth="yes"/>
      <point x="27" y="-227"/>
      <point x="156" y="-341"/>
    </contour>
  </outline>
</glyph>
<glyph name="Ghain" format="2">
  <advance width="872"/>
  <unicode hex="063A"/>
  <note>
Ghain
</note>
  <outline>
    <contour>
      <point x="338" y="-341" type="curve" smooth="yes"/>
      <point x="445" y="-341"/>
      <point x="543" y="-302"/>
      <point x="631" y="-224" type="curve" smooth="yes"/>
      <point x="720" y="-146"/>
      <point x="792" y="-35"/>
      <point x="851" y="112" type="curve"/>
      <point x="820" y="121" type="line"/>
      <point x="718" y="-75"/>
      <point x="586" y="-164"/>
      <point x="396" y="-164" type="curve" smooth="yes"/>
      <point x="236" y="-164"/>
      <point x="129" y="-72"/>
      <point x="129" y="68" type="curve" smooth="yes"/>
      <point x="129" y="129"/>
      <point x="144" y="183"/>
      <point x="171" y="229" type="curve" smooth="yes"/>
      <point x="218" y="310"/>
      <point x="309" y="385"/>
      <point x="505" y="494" type="curve" smooth="yes"/>
      <point x="523" y="504"/>
      <point x="558" y="557"/>
      <point x="565" y="578" type="curve"/>
      <point x="552" y="589" type="line"/>
      <point x="417" y="496"/>
      <point x="397" y="493"/>
      <point x="364" y="493" type="curve" smooth="yes"/>
      <point x="305" y="493"/>
      <point x="250" y="520"/>
      <point x="250" y="567" type="curve" smooth="yes"/>
      <point x="250" y="614"/>
      <point x="301" y="653"/>
      <point x="362" y="653" type="curve" smooth="yes"/>
      <point x="389" y="653"/>
      <point x="410" y="646"/>
      <point x="426" y="630" type="curve"/>
      <point x="435" y="629" type="line"/>
      <point x="454" y="640"/>
      <point x="463" y="658"/>
      <point x="463" y="685" type="curve" smooth="yes"/>
      <point x="463" y="718"/>
      <point x="435" y="743"/>
      <point x="395" y="743" type="curve" smooth="yes"/>
      <point x="342" y="743"/>
      <point x="296" y="708"/>
      <point x="242" y="651" type="curve" smooth="yes"/>
      <point x="167" y="571"/>
      <point x="144" y="521"/>
      <point x="144" y="477" type="curve" smooth="yes"/>
      <point x="144" y="422"/>
      <point x="181" y="382"/>
      <point x="231" y="367" type="curve"/>
      <point x="96" y="252"/>
      <point x="28" y="119"/>
      <point x="28" y="-31" type="curve" smooth="yes"/>
      <point x="28" y="-227"/>
      <point x="157" y="-341"/>
    </contour>
    <contour>
      <point x="319" y="914" type="curve"/>
      <point x="328" y="914" type="line"/>
      <point x="383" y="954"/>
      <point x="410" y="985"/>
      <point x="410" y="1009" type="curve" smooth="yes"/>
      <point x="410" y="1031"/>
      <point x="393" y="1054"/>
      <point x="332" y="1093" type="curve"/>
      <point x="323" y="1093" type="line"/>
      <point x="307" y="1083"/>
      <point x="253" y="1023"/>
      <point x="236" y="998" type="curve"/>
      <point x="236" y="989" type="line"/>
      <point x="263" y="968"/>
      <point x="291" y="943"/>
    </contour>
  </outline>
</glyph>
<glyph name="uni063B" format="2">
  <advance width="1159"/>
  <unicode hex="063B"/>
  <note>
uni063B
</note>
  <outline>
    <contour>
      <point x="315" y="-18" type="curve" smooth="yes"/>
      <point x="454" y="-18"/>
      <point x="621" y="10"/>
      <point x="732" y="90" type="curve" smooth="yes"/>
      <point x="839" y="167"/>
      <point x="895" y="329"/>
      <point x="903" y="456" type="curve" smooth="yes"/>
      <point x="919" y="721" type="line" smooth="yes"/>
      <point x="922" y="773"/>
      <point x="927" y="787"/>
      <point x="971" y="832" type="curve" smooth="yes"/>
      <point x="1027" y="889"/>
      <point x="1094" y="949"/>
      <point x="1170" y="1013" type="curve" smooth="yes"/>
      <point x="1255" y="1085"/>
      <point x="1320" y="1148"/>
      <point x="1365" y="1202" type="curve"/>
      <point x="1382" y="1247"/>
      <point x="1392" y="1277"/>
      <point x="1396" y="1294" type="curve"/>
      <point x="1387" y="1299" type="line"/>
      <point x="1332" y="1242" type="line"/>
      <point x="1124" y="1057"/>
      <point x="1003" y="948"/>
      <point x="972" y="914" type="curve" smooth="yes"/>
      <point x="923" y="861"/>
      <point x="850" y="768"/>
      <point x="845" y="604" type="curve" smooth="yes"/>
      <point x="837" y="353" type="line" smooth="yes"/>
      <point x="835" y="302"/>
      <point x="824" y="285"/>
      <point x="787" y="257" type="curve" smooth="yes"/>
      <point x="690" y="183"/>
      <point x="542" y="149"/>
      <point x="347" y="149" type="curve" smooth="yes"/>
      <point x="177" y="149"/>
      <point x="112" y="171"/>
      <point x="112" y="269" type="curve" smooth="yes"/>
      <point x="112" y="279"/>
      <point x="112" y="290"/>
      <point x="113" y="301" type="curve"/>
      <point x="83" y="306" type="line"/>
      <point x="66" y="248"/>
      <point x="58" y="199"/>
      <point x="58" y="160" type="curve" smooth="yes"/>
      <point x="58" y="-8"/>
      <point x="198" y="-18"/>
    </contour>
    <contour>
      <point x="804" y="937" type="curve"/>
      <point x="811" y="940" type="line"/>
      <point x="826" y="969"/>
      <point x="838" y="1000"/>
      <point x="838" y="1021" type="curve" smooth="yes"/>
      <point x="838" y="1023" type="line"/>
      <point x="871" y="1015"/>
      <point x="891" y="1009"/>
      <point x="905" y="1004" type="curve"/>
      <point x="911" y="1008" type="line"/>
      <point x="924" y="1035"/>
      <point x="937" y="1065"/>
      <point x="937" y="1089" type="curve" smooth="yes"/>
      <point x="937" y="1122"/>
      <point x="902" y="1130"/>
      <point x="847" y="1136" type="curve"/>
      <point x="841" y="1133" type="line"/>
      <point x="837" y="1125"/>
      <point x="818" y="1064"/>
      <point x="817" y="1055" type="curve"/>
      <point x="797" y="1063"/>
      <point x="775" y="1066"/>
      <point x="749" y="1069" type="curve"/>
      <point x="743" y="1066" type="line"/>
      <point x="732" y="1046"/>
      <point x="718" y="995"/>
      <point x="715" y="967" type="curve"/>
      <point x="718" y="960" type="line"/>
      <point x="737" y="957"/>
      <point x="748" y="956"/>
    </contour>
  </outline>
</glyph>
<glyph name="uni063C" format="2">
  <advance width="1159"/>
  <unicode hex="063C"/>
  <note>
uni063C
</note>
  <outline>
    <contour>
      <point x="315" y="-18" type="curve" smooth="yes"/>
      <point x="454" y="-18"/>
      <point x="621" y="10"/>
      <point x="732" y="90" type="curve" smooth="yes"/>
      <point x="839" y="167"/>
      <point x="895" y="329"/>
      <point x="903" y="456" type="curve" smooth="yes"/>
      <point x="919" y="721" type="line" smooth="yes"/>
      <point x="922" y="773"/>
      <point x="927" y="787"/>
      <point x="971" y="832" type="curve" smooth="yes"/>
      <point x="1027" y="889"/>
      <point x="1094" y="949"/>
      <point x="1170" y="1013" type="curve" smooth="yes"/>
      <point x="1255" y="1085"/>
      <point x="1320" y="1148"/>
      <point x="1365" y="1202" type="curve"/>
      <point x="1382" y="1247"/>
      <point x="1392" y="1277"/>
      <point x="1396" y="1294" type="curve"/>
      <point x="1387" y="1299" type="line"/>
      <point x="1332" y="1242" type="line"/>
      <point x="1124" y="1057"/>
      <point x="1003" y="948"/>
      <point x="972" y="914" type="curve" smooth="yes"/>
      <point x="923" y="861"/>
      <point x="850" y="768"/>
      <point x="845" y="604" type="curve" smooth="yes"/>
      <point x="837" y="353" type="line" smooth="yes"/>
      <point x="835" y="302"/>
      <point x="824" y="285"/>
      <point x="787" y="257" type="curve" smooth="yes"/>
      <point x="690" y="183"/>
      <point x="542" y="149"/>
      <point x="347" y="149" type="curve" smooth="yes"/>
      <point x="177" y="149"/>
      <point x="112" y="171"/>
      <point x="112" y="269" type="curve" smooth="yes"/>
      <point x="112" y="279"/>
      <point x="112" y="290"/>
      <point x="113" y="301" type="curve"/>
      <point x="83" y="306" type="line"/>
      <point x="66" y="248"/>
      <point x="58" y="199"/>
      <point x="58" y="160" type="curve" smooth="yes"/>
      <point x="58" y="-8"/>
      <point x="198" y="-18"/>
    </contour>
    <contour>
      <point x="460" y="-448" type="curve"/>
      <point x="469" y="-448" type="line"/>
      <point x="530" y="-403"/>
      <point x="547" y="-381"/>
      <point x="547" y="-361" type="curve" smooth="yes"/>
      <point x="547" y="-335"/>
      <point x="510" y="-305"/>
      <point x="476" y="-281" type="curve"/>
      <point x="468" y="-281" type="line"/>
      <point x="459" y="-287"/>
      <point x="411" y="-329"/>
      <point x="382" y="-369" type="curve"/>
      <point x="382" y="-377" type="line"/>
      <point x="410" y="-400"/>
      <point x="430" y="-419"/>
    </contour>
    <contour>
      <point x="385" y="-304" type="curve"/>
      <point x="394" y="-304" type="line"/>
      <point x="427" y="-280"/>
      <point x="459" y="-253"/>
      <point x="472" y="-228" type="curve"/>
      <point x="535" y="-286" type="line"/>
      <point x="544" y="-286" type="line"/>
      <point x="591" y="-251"/>
      <point x="624" y="-216"/>
      <point x="624" y="-191" type="curve" smooth="yes"/>
      <point x="624" y="-162"/>
      <point x="596" y="-138"/>
      <point x="546" y="-106" type="curve"/>
      <point x="537" y="-106" type="line"/>
      <point x="526" y="-113"/>
      <point x="519" y="-121"/>
      <point x="466" y="-180" type="curve"/>
      <point x="453" y="-163"/>
      <point x="433" y="-147"/>
      <point x="398" y="-125" type="curve"/>
      <point x="389" y="-125" type="line"/>
      <point x="375" y="-133"/>
      <point x="320" y="-193"/>
      <point x="302" y="-221" type="curve"/>
      <point x="302" y="-229" type="line"/>
      <point x="330" y="-253"/>
      <point x="357" y="-277"/>
    </contour>
  </outline>
</glyph>
<glyph name="uni063D" format="2">
  <advance width="860"/>
  <unicode hex="063D"/>
  <note>
uni063D
</note>
  <outline>
    <contour>
      <point x="250" y="-341" type="curve" smooth="yes"/>
      <point x="359" y="-341"/>
      <point x="467" y="-282"/>
      <point x="548" y="-177" type="curve" smooth="yes"/>
      <point x="638" y="-61"/>
      <point x="682" y="88"/>
      <point x="682" y="169" type="curve" smooth="yes"/>
      <point x="682" y="211"/>
      <point x="665" y="230"/>
      <point x="625" y="245" type="curve" smooth="yes"/>
      <point x="578" y="263"/>
      <point x="555" y="286"/>
      <point x="555" y="315" type="curve" smooth="yes"/>
      <point x="555" y="377"/>
      <point x="661" y="480"/>
      <point x="725" y="480" type="curve" smooth="yes"/>
      <point x="739" y="480"/>
      <point x="750" y="478"/>
      <point x="756" y="472" type="curve"/>
      <point x="765" y="474" type="line"/>
      <point x="813" y="584" type="line"/>
      <point x="816" y="592"/>
      <point x="818" y="599"/>
      <point x="818" y="604" type="curve" smooth="yes"/>
      <point x="818" y="623"/>
      <point x="803" y="632"/>
      <point x="773" y="632" type="curve" smooth="yes"/>
      <point x="712" y="632"/>
      <point x="645" y="566"/>
      <point x="586" y="476" type="curve" smooth="yes"/>
      <point x="527" y="386"/>
      <point x="470" y="252"/>
      <point x="470" y="193" type="curve" smooth="yes"/>
      <point x="470" y="155"/>
      <point x="488" y="127"/>
      <point x="525" y="112" type="curve" smooth="yes"/>
      <point x="591" y="85"/>
      <point x="612" y="69"/>
      <point x="612" y="42" type="curve" smooth="yes"/>
      <point x="612" y="-15"/>
      <point x="496" y="-162"/>
      <point x="312" y="-162" type="curve" smooth="yes"/>
      <point x="171" y="-162"/>
      <point x="104" y="-76"/>
      <point x="104" y="33" type="curve" smooth="yes"/>
      <point x="104" y="109"/>
      <point x="122" y="191"/>
      <point x="217" y="355" type="curve"/>
      <point x="191" y="370" type="line"/>
      <point x="65" y="187"/>
      <point x="28" y="19"/>
      <point x="28" y="-88" type="curve" smooth="yes"/>
      <point x="28" y="-237"/>
      <point x="117" y="-341"/>
    </contour>
    <contour>
      <point x="186" y="477" type="line"/>
      <point x="192" y="477" type="line"/>
      <point x="226" y="528" type="line" smooth="yes"/>
      <point x="242" y="553"/>
      <point x="258" y="579"/>
      <point x="274" y="609" type="curve"/>
      <point x="277" y="609" type="line"/>
      <point x="318" y="535" type="line" smooth="yes"/>
      <point x="330" y="513"/>
      <point x="342" y="494"/>
      <point x="352" y="479" type="curve"/>
      <point x="358" y="480" type="line"/>
      <point x="368" y="490"/>
      <point x="375" y="504"/>
      <point x="377" y="515" type="curve"/>
      <point x="361" y="541"/>
      <point x="344" y="566"/>
      <point x="328" y="592" type="curve" smooth="yes"/>
      <point x="314" y="615"/>
      <point x="302" y="638"/>
      <point x="289" y="661" type="curve"/>
      <point x="274" y="660" type="line"/>
      <point x="225" y="581" type="line" smooth="yes"/>
      <point x="209" y="555"/>
      <point x="187" y="521"/>
      <point x="173" y="505" type="curve"/>
    </contour>
  </outline>
</glyph>
<glyph name="uni063E" format="2">
  <advance width="860"/>
  <unicode hex="063E"/>
  <note>
uni063E
</note>
  <outline>
    <contour>
      <point x="250" y="-341" type="curve" smooth="yes"/>
      <point x="359" y="-341"/>
      <point x="467" y="-282"/>
      <point x="548" y="-177" type="curve" smooth="yes"/>
      <point x="638" y="-61"/>
      <point x="682" y="88"/>
      <point x="682" y="169" type="curve" smooth="yes"/>
      <point x="682" y="211"/>
      <point x="665" y="230"/>
      <point x="625" y="245" type="curve" smooth="yes"/>
      <point x="578" y="263"/>
      <point x="555" y="286"/>
      <point x="555" y="315" type="curve" smooth="yes"/>
      <point x="555" y="377"/>
      <point x="661" y="480"/>
      <point x="725" y="480" type="curve" smooth="yes"/>
      <point x="739" y="480"/>
      <point x="750" y="478"/>
      <point x="756" y="472" type="curve"/>
      <point x="765" y="474" type="line"/>
      <point x="813" y="584" type="line"/>
      <point x="816" y="592"/>
      <point x="818" y="599"/>
      <point x="818" y="604" type="curve" smooth="yes"/>
      <point x="818" y="623"/>
      <point x="803" y="632"/>
      <point x="773" y="632" type="curve" smooth="yes"/>
      <point x="712" y="632"/>
      <point x="645" y="566"/>
      <point x="586" y="476" type="curve" smooth="yes"/>
      <point x="527" y="386"/>
      <point x="470" y="252"/>
      <point x="470" y="193" type="curve" smooth="yes"/>
      <point x="470" y="155"/>
      <point x="488" y="127"/>
      <point x="525" y="112" type="curve" smooth="yes"/>
      <point x="591" y="85"/>
      <point x="612" y="69"/>
      <point x="612" y="42" type="curve" smooth="yes"/>
      <point x="612" y="-15"/>
      <point x="496" y="-162"/>
      <point x="312" y="-162" type="curve" smooth="yes"/>
      <point x="171" y="-162"/>
      <point x="104" y="-76"/>
      <point x="104" y="33" type="curve" smooth="yes"/>
      <point x="104" y="109"/>
      <point x="122" y="191"/>
      <point x="217" y="355" type="curve"/>
      <point x="191" y="370" type="line"/>
      <point x="65" y="187"/>
      <point x="28" y="19"/>
      <point x="28" y="-88" type="curve" smooth="yes"/>
      <point x="28" y="-237"/>
      <point x="117" y="-341"/>
    </contour>
    <contour>
      <point x="198" y="467" type="curve"/>
      <point x="207" y="467" type="line"/>
      <point x="249" y="497"/>
      <point x="274" y="522"/>
      <point x="284" y="543" type="curve"/>
      <point x="304" y="527"/>
      <point x="325" y="508"/>
      <point x="348" y="485" type="curve"/>
      <point x="356" y="485" type="line"/>
      <point x="410" y="523"/>
      <point x="437" y="555"/>
      <point x="437" y="580" type="curve" smooth="yes"/>
      <point x="437" y="607"/>
      <point x="411" y="630"/>
      <point x="358" y="665" type="curve"/>
      <point x="350" y="665" type="line"/>
      <point x="337" y="656"/>
      <point x="302" y="618"/>
      <point x="279" y="590" type="curve"/>
      <point x="267" y="608"/>
      <point x="243" y="626"/>
      <point x="211" y="646" type="curve"/>
      <point x="202" y="646" type="line"/>
      <point x="186" y="636"/>
      <point x="134" y="577"/>
      <point x="115" y="550" type="curve"/>
      <point x="115" y="542" type="line"/>
      <point x="141" y="521"/>
      <point x="169" y="496"/>
    </contour>
  </outline>
</glyph>
<glyph name="uni063F" format="2">
  <advance width="860"/>
  <unicode hex="063F"/>
  <note>
uni063F
</note>
  <outline>
    <contour>
      <point x="250" y="-341" type="curve" smooth="yes"/>
      <point x="359" y="-341"/>
      <point x="467" y="-282"/>
      <point x="548" y="-177" type="curve" smooth="yes"/>
      <point x="638" y="-61"/>
      <point x="682" y="88"/>
      <point x="682" y="169" type="curve" smooth="yes"/>
      <point x="682" y="211"/>
      <point x="665" y="230"/>
      <point x="625" y="245" type="curve" smooth="yes"/>
      <point x="578" y="263"/>
      <point x="555" y="286"/>
      <point x="555" y="315" type="curve" smooth="yes"/>
      <point x="555" y="377"/>
      <point x="661" y="480"/>
      <point x="725" y="480" type="curve" smooth="yes"/>
      <point x="739" y="480"/>
      <point x="750" y="478"/>
      <point x="756" y="472" type="curve"/>
      <point x="765" y="474" type="line"/>
      <point x="813" y="584" type="line"/>
      <point x="816" y="592"/>
      <point x="818" y="599"/>
      <point x="818" y="604" type="curve" smooth="yes"/>
      <point x="818" y="623"/>
      <point x="803" y="632"/>
      <point x="773" y="632" type="curve" smooth="yes"/>
      <point x="712" y="632"/>
      <point x="645" y="566"/>
      <point x="586" y="476" type="curve" smooth="yes"/>
      <point x="527" y="386"/>
      <point x="470" y="252"/>
      <point x="470" y="193" type="curve" smooth="yes"/>
      <point x="470" y="155"/>
      <point x="488" y="127"/>
      <point x="525" y="112" type="curve" smooth="yes"/>
      <point x="591" y="85"/>
      <point x="612" y="69"/>
      <point x="612" y="42" type="curve" smooth="yes"/>
      <point x="612" y="-15"/>
      <point x="496" y="-162"/>
      <point x="312" y="-162" type="curve" smooth="yes"/>
      <point x="171" y="-162"/>
      <point x="104" y="-76"/>
      <point x="104" y="33" type="curve" smooth="yes"/>
      <point x="104" y="109"/>
      <point x="122" y="191"/>
      <point x="217" y="355" type="curve"/>
      <point x="191" y="370" type="line"/>
      <point x="65" y="187"/>
      <point x="28" y="19"/>
      <point x="28" y="-88" type="curve" smooth="yes"/>
      <point x="28" y="-237"/>
      <point x="117" y="-341"/>
    </contour>
    <contour>
      <point x="199" y="470" type="curve"/>
      <point x="208" y="470" type="line"/>
      <point x="250" y="500"/>
      <point x="276" y="526"/>
      <point x="286" y="546" type="curve"/>
      <point x="305" y="530"/>
      <point x="326" y="511"/>
      <point x="349" y="488" type="curve"/>
      <point x="357" y="488" type="line"/>
      <point x="411" y="526"/>
      <point x="438" y="558"/>
      <point x="438" y="583" type="curve" smooth="yes"/>
      <point x="438" y="610"/>
      <point x="412" y="633"/>
      <point x="359" y="667" type="curve"/>
      <point x="351" y="667" type="line"/>
      <point x="337" y="659"/>
      <point x="302" y="621"/>
      <point x="280" y="593" type="curve"/>
      <point x="268" y="610"/>
      <point x="246" y="627"/>
      <point x="212" y="649" type="curve"/>
      <point x="203" y="649" type="line"/>
      <point x="187" y="639"/>
      <point x="135" y="580"/>
      <point x="116" y="553" type="curve"/>
      <point x="116" y="544" type="line"/>
      <point x="142" y="523"/>
      <point x="170" y="499"/>
    </contour>
    <contour>
      <point x="268" y="644" type="curve"/>
      <point x="277" y="644" type="line"/>
      <point x="331" y="688"/>
      <point x="355" y="714"/>
      <point x="355" y="735" type="curve" smooth="yes"/>
      <point x="355" y="755"/>
      <point x="334" y="774"/>
      <point x="281" y="811" type="curve"/>
      <point x="273" y="811" type="line"/>
      <point x="265" y="807"/>
      <point x="219" y="764"/>
      <point x="190" y="723" type="curve"/>
      <point x="190" y="715" type="line"/>
      <point x="197" y="709"/>
      <point x="252" y="662"/>
    </contour>
  </outline>
</glyph>
<glyph name="Tatweel" format="2">
  <advance width="65"/>
  <unicode hex="0640"/>
  <note>
Tatweel
</note>
  <outline>
    <contour>
      <point x="2" y="0" type="curve" smooth="yes"/>
      <point x="66" y="0" type="line" smooth="yes"/>
      <point x="127" y="0"/>
      <point x="182" y="59"/>
      <point x="182" y="126" type="curve" smooth="yes"/>
      <point x="182" y="147"/>
      <point x="170" y="158"/>
      <point x="147" y="158" type="curve" smooth="yes"/>
      <point x="84" y="158" type="line" smooth="yes"/>
      <point x="23" y="158"/>
      <point x="-33" y="99"/>
      <point x="-33" y="32" type="curve" smooth="yes"/>
      <point x="-33" y="11"/>
      <point x="-21" y="0"/>
    </contour>
  </outline>
</glyph>
<glyph name="Feh" format="2">
  <advance width="1217"/>
  <unicode hex="0641"/>
  <note>
Feh
</note>
  <outline>
    <contour>
      <point x="362" y="-17" type="curve" smooth="yes"/>
      <point x="471" y="-17"/>
      <point x="578" y="-6"/>
      <point x="684" y="15" type="curve" smooth="yes"/>
      <point x="789" y="36"/>
      <point x="876" y="65"/>
      <point x="944" y="102" type="curve" smooth="yes"/>
      <point x="1084" y="178"/>
      <point x="1160" y="318"/>
      <point x="1160" y="468" type="curve" smooth="yes"/>
      <point x="1160" y="551"/>
      <point x="1123" y="635"/>
      <point x="1053" y="635" type="curve" smooth="yes"/>
      <point x="1023" y="635"/>
      <point x="1000" y="620"/>
      <point x="985" y="588" type="curve" smooth="yes"/>
      <point x="953" y="522" type="line" smooth="yes"/>
      <point x="940" y="495"/>
      <point x="933" y="470"/>
      <point x="933" y="448" type="curve" smooth="yes"/>
      <point x="933" y="403"/>
      <point x="977" y="372"/>
      <point x="1020" y="372" type="curve" smooth="yes"/>
      <point x="1042" y="372"/>
      <point x="1062" y="378"/>
      <point x="1082" y="391" type="curve"/>
      <point x="1088" y="385"/>
      <point x="1091" y="375"/>
      <point x="1091" y="362" type="curve" smooth="yes"/>
      <point x="1091" y="342"/>
      <point x="1083" y="325"/>
      <point x="1069" y="310" type="curve" smooth="yes"/>
      <point x="1023" y="261"/>
      <point x="938" y="222"/>
      <point x="815" y="192" type="curve" smooth="yes"/>
      <point x="692" y="162"/>
      <point x="566" y="147"/>
      <point x="438" y="147" type="curve" smooth="yes"/>
      <point x="346" y="147"/>
      <point x="279" y="149"/>
      <point x="236" y="154" type="curve" smooth="yes"/>
      <point x="151" y="164"/>
      <point x="112" y="198"/>
      <point x="112" y="269" type="curve" smooth="yes"/>
      <point x="112" y="281"/>
      <point x="112" y="292"/>
      <point x="113" y="301" type="curve"/>
      <point x="83" y="306" type="line"/>
      <point x="66" y="248"/>
      <point x="58" y="199"/>
      <point x="58" y="160" type="curve" smooth="yes"/>
      <point x="58" y="2"/>
      <point x="191" y="-17"/>
    </contour>
    <contour>
      <point x="1027" y="853" type="curve"/>
      <point x="1036" y="853" type="line"/>
      <point x="1091" y="892"/>
      <point x="1119" y="924"/>
      <point x="1119" y="947" type="curve" smooth="yes"/>
      <point x="1119" y="970"/>
      <point x="1102" y="993"/>
      <point x="1041" y="1032" type="curve"/>
      <point x="1032" y="1032" type="line"/>
      <point x="1015" y="1021"/>
      <point x="962" y="962"/>
      <point x="945" y="936" type="curve"/>
      <point x="945" y="927" type="line"/>
      <point x="972" y="906"/>
      <point x="1000" y="881"/>
    </contour>
  </outline>
</glyph>
<glyph name="Qaf" format="2">
  <advance width="855"/>
  <unicode hex="0642"/>
  <note>
Qaf
</note>
  <outline>
    <contour>
      <point x="280" y="-341" type="curve" smooth="yes"/>
      <point x="371" y="-341"/>
      <point x="455" y="-312"/>
      <point x="530" y="-252" type="curve" smooth="yes"/>
      <point x="679" y="-133"/>
      <point x="780" y="97"/>
      <point x="780" y="344" type="curve" smooth="yes"/>
      <point x="780" y="428"/>
      <point x="743" y="523"/>
      <point x="672" y="523" type="curve" smooth="yes"/>
      <point x="643" y="523"/>
      <point x="619" y="507"/>
      <point x="604" y="476" type="curve" smooth="yes"/>
      <point x="572" y="410" type="line" smooth="yes"/>
      <point x="559" y="383"/>
      <point x="552" y="358"/>
      <point x="552" y="336" type="curve" smooth="yes"/>
      <point x="552" y="292"/>
      <point x="594" y="259"/>
      <point x="639" y="259" type="curve" smooth="yes"/>
      <point x="664" y="259"/>
      <point x="687" y="267"/>
      <point x="709" y="282" type="curve"/>
      <point x="718" y="268"/>
      <point x="722" y="247"/>
      <point x="722" y="218" type="curve" smooth="yes"/>
      <point x="722" y="153"/>
      <point x="704" y="90"/>
      <point x="667" y="28" type="curve" smooth="yes"/>
      <point x="579" y="-120"/>
      <point x="439" y="-162"/>
      <point x="329" y="-162" type="curve" smooth="yes"/>
      <point x="212" y="-162"/>
      <point x="95" y="-112"/>
      <point x="95" y="63" type="curve" smooth="yes"/>
      <point x="95" y="128"/>
      <point x="114" y="206"/>
      <point x="151" y="297" type="curve"/>
      <point x="123" y="308" type="line"/>
      <point x="52" y="159"/>
      <point x="28" y="40"/>
      <point x="28" y="-84" type="curve" smooth="yes"/>
      <point x="28" y="-238"/>
      <point x="126" y="-341"/>
    </contour>
    <contour>
      <point x="580" y="731" type="curve"/>
      <point x="588" y="731" type="line"/>
      <point x="630" y="761"/>
      <point x="656" y="787"/>
      <point x="666" y="808" type="curve"/>
      <point x="686" y="792"/>
      <point x="707" y="773"/>
      <point x="729" y="750" type="curve"/>
      <point x="738" y="750" type="line"/>
      <point x="792" y="788"/>
      <point x="818" y="820"/>
      <point x="818" y="845" type="curve" smooth="yes"/>
      <point x="818" y="872"/>
      <point x="793" y="895"/>
      <point x="740" y="929" type="curve"/>
      <point x="731" y="929" type="line"/>
      <point x="718" y="921"/>
      <point x="683" y="882"/>
      <point x="661" y="855" type="curve"/>
      <point x="649" y="873"/>
      <point x="625" y="891"/>
      <point x="593" y="911" type="curve"/>
      <point x="584" y="911" type="line"/>
      <point x="568" y="900"/>
      <point x="516" y="842"/>
      <point x="497" y="815" type="curve"/>
      <point x="497" y="806" type="line"/>
      <point x="523" y="785"/>
      <point x="551" y="760"/>
    </contour>
  </outline>
</glyph>
<glyph name="Kaf" format="2">
  <advance width="1159"/>
  <unicode hex="0643"/>
  <note>
Kaf
</note>
  <outline>
    <contour>
      <point x="315" y="-18" type="curve" smooth="yes"/>
      <point x="454" y="-18"/>
      <point x="621" y="10"/>
      <point x="732" y="90" type="curve" smooth="yes"/>
      <point x="839" y="167"/>
      <point x="895" y="329"/>
      <point x="903" y="456" type="curve" smooth="yes"/>
      <point x="919" y="721" type="line" smooth="yes"/>
      <point x="922" y="773"/>
      <point x="927" y="787"/>
      <point x="971" y="832" type="curve" smooth="yes"/>
      <point x="1027" y="889"/>
      <point x="1094" y="949"/>
      <point x="1170" y="1013" type="curve" smooth="yes"/>
      <point x="1255" y="1085"/>
      <point x="1320" y="1148"/>
      <point x="1365" y="1202" type="curve"/>
      <point x="1382" y="1247"/>
      <point x="1392" y="1277"/>
      <point x="1396" y="1294" type="curve"/>
      <point x="1387" y="1299" type="line"/>
      <point x="1332" y="1242" type="line"/>
      <point x="1124" y="1057"/>
      <point x="1003" y="948"/>
      <point x="972" y="914" type="curve" smooth="yes"/>
      <point x="923" y="861"/>
      <point x="850" y="759"/>
      <point x="845" y="595" type="curve" smooth="yes"/>
      <point x="837" y="353" type="line" smooth="yes"/>
      <point x="835" y="302"/>
      <point x="824" y="285"/>
      <point x="787" y="257" type="curve" smooth="yes"/>
      <point x="690" y="183"/>
      <point x="542" y="149"/>
      <point x="347" y="149" type="curve" smooth="yes"/>
      <point x="177" y="149"/>
      <point x="112" y="171"/>
      <point x="112" y="269" type="curve" smooth="yes"/>
      <point x="112" y="279"/>
      <point x="112" y="290"/>
      <point x="113" y="301" type="curve"/>
      <point x="83" y="306" type="line"/>
      <point x="66" y="248"/>
      <point x="58" y="199"/>
      <point x="58" y="160" type="curve" smooth="yes"/>
      <point x="58" y="-8"/>
      <point x="198" y="-18"/>
    </contour>
    <contour>
      <point x="362" y="394" type="line"/>
      <point x="392" y="400"/>
      <point x="417" y="409"/>
      <point x="439" y="420" type="curve"/>
      <point x="509" y="483"/>
      <point x="531" y="520"/>
      <point x="531" y="551" type="curve" smooth="yes"/>
      <point x="531" y="563"/>
      <point x="526" y="573"/>
      <point x="515" y="583" type="curve" smooth="yes"/>
      <point x="505" y="592"/>
      <point x="501" y="600"/>
      <point x="501" y="605" type="curve" smooth="yes"/>
      <point x="501" y="623"/>
      <point x="514" y="636"/>
      <point x="542" y="656" type="curve"/>
      <point x="557" y="700" type="line"/>
      <point x="549" y="708" type="line"/>
      <point x="509" y="681"/>
      <point x="429" y="595"/>
      <point x="429" y="550" type="curve" smooth="yes"/>
      <point x="429" y="541"/>
      <point x="434" y="530"/>
      <point x="443" y="519" type="curve"/>
      <point x="452" y="507"/>
      <point x="457" y="500"/>
      <point x="457" y="494" type="curve" smooth="yes"/>
      <point x="457" y="479"/>
      <point x="423" y="450"/>
      <point x="354" y="407" type="curve"/>
    </contour>
  </outline>
</glyph>
<glyph name="Lam" format="2">
  <advance width="851"/>
  <unicode hex="0644"/>
  <note>
Lam
</note>
  <outline>
    <contour>
      <point x="280" y="-341" type="curve" smooth="yes"/>
      <point x="368" y="-341"/>
      <point x="465" y="-313"/>
      <point x="551" y="-219" type="curve" smooth="yes"/>
      <point x="586" y="-181"/>
      <point x="617" y="-138"/>
      <point x="643" y="-88" type="curve" smooth="yes"/>
      <point x="736" y="91"/>
      <point x="758" y="284"/>
      <point x="761" y="368" type="curve" smooth="yes"/>
      <point x="773" y="761" type="line" smooth="yes"/>
      <point x="780" y="976"/>
      <point x="787" y="1064"/>
      <point x="798" y="1119" type="curve"/>
      <point x="777" y="1127" type="line"/>
      <point x="726" y="1004"/>
      <point x="712" y="956"/>
      <point x="706" y="802" type="curve" smooth="yes"/>
      <point x="686" y="297" type="line" smooth="yes"/>
      <point x="682" y="188"/>
      <point x="676" y="140"/>
      <point x="670" y="104" type="curve" smooth="yes"/>
      <point x="663" y="61"/>
      <point x="635" y="-4"/>
      <point x="578" y="-64" type="curve" smooth="yes"/>
      <point x="551" y="-92"/>
      <point x="517" y="-115"/>
      <point x="476" y="-133" type="curve" smooth="yes"/>
      <point x="435" y="-151"/>
      <point x="386" y="-162"/>
      <point x="329" y="-162" type="curve" smooth="yes"/>
      <point x="213" y="-162"/>
      <point x="95" y="-114"/>
      <point x="95" y="63" type="curve" smooth="yes"/>
      <point x="95" y="131"/>
      <point x="114" y="206"/>
      <point x="151" y="297" type="curve"/>
      <point x="123" y="308" type="line"/>
      <point x="52" y="159"/>
      <point x="28" y="40"/>
      <point x="28" y="-84" type="curve" smooth="yes"/>
      <point x="28" y="-220"/>
      <point x="109" y="-341"/>
    </contour>
  </outline>
</glyph>
<glyph name="Meem" format="2">
  <advance width="660"/>
  <unicode hex="0645"/>
  <note>
Meem
</note>
  <outline>
    <contour>
      <point x="31" y="-598" type="curve"/>
      <point x="66" y="-598" type="line"/>
      <point x="70" y="-549"/>
      <point x="75" y="-478"/>
      <point x="80" y="-384" type="curve" smooth="yes"/>
      <point x="85" y="-285"/>
      <point x="91" y="-193"/>
      <point x="98" y="-108" type="curve" smooth="yes"/>
      <point x="113" y="79"/>
      <point x="126" y="147"/>
      <point x="167" y="214" type="curve" smooth="yes"/>
      <point x="216" y="294"/>
      <point x="336" y="343"/>
      <point x="514" y="380" type="curve" smooth="yes"/>
      <point x="538" y="385"/>
      <point x="558" y="396"/>
      <point x="574" y="417" type="curve" smooth="yes"/>
      <point x="607" y="460"/>
      <point x="639" y="534"/>
      <point x="639" y="564" type="curve" smooth="yes"/>
      <point x="639" y="605"/>
      <point x="534" y="629"/>
      <point x="504" y="629" type="curve" smooth="yes"/>
      <point x="460" y="629"/>
      <point x="430" y="569"/>
      <point x="398" y="482" type="curve"/>
      <point x="271" y="420"/>
      <point x="195" y="362"/>
      <point x="132" y="253" type="curve" smooth="yes"/>
      <point x="102" y="201"/>
      <point x="80" y="149"/>
      <point x="67" y="99" type="curve" smooth="yes"/>
      <point x="34" y="-27"/>
      <point x="28" y="-168"/>
      <point x="28" y="-396" type="curve" smooth="yes"/>
      <point x="28" y="-483"/>
      <point x="29" y="-550"/>
    </contour>
  </outline>
</glyph>
<glyph name="Noon" format="2">
  <advance width="861"/>
  <unicode hex="0646"/>
  <note>
Noon
</note>
  <outline>
    <contour>
      <point x="280" y="-341" type="curve" smooth="yes"/>
      <point x="453" y="-341"/>
      <point x="617" y="-222"/>
      <point x="710" y="70" type="curve" smooth="yes"/>
      <point x="738" y="158"/>
      <point x="754" y="277"/>
      <point x="756" y="428" type="curve" smooth="yes"/>
      <point x="757" y="499"/>
      <point x="759" y="543"/>
      <point x="763" y="563" type="curve"/>
      <point x="742" y="569" type="line"/>
      <point x="695" y="453"/>
      <point x="679" y="382"/>
      <point x="679" y="292" type="curve" smooth="yes"/>
      <point x="679" y="269"/>
      <point x="680" y="247"/>
      <point x="680" y="224" type="curve" smooth="yes"/>
      <point x="680" y="149"/>
      <point x="672" y="91"/>
      <point x="657" y="51" type="curve" smooth="yes"/>
      <point x="618" y="-54"/>
      <point x="514" y="-162"/>
      <point x="329" y="-162" type="curve" smooth="yes"/>
      <point x="213" y="-162"/>
      <point x="95" y="-114"/>
      <point x="95" y="63" type="curve" smooth="yes"/>
      <point x="95" y="128"/>
      <point x="114" y="206"/>
      <point x="151" y="297" type="curve"/>
      <point x="123" y="308" type="line"/>
      <point x="52" y="159"/>
      <point x="28" y="40"/>
      <point x="28" y="-84" type="curve" smooth="yes"/>
      <point x="28" y="-238"/>
      <point x="126" y="-341"/>
    </contour>
    <contour>
      <point x="397" y="126" type="curve"/>
      <point x="406" y="126" type="line"/>
      <point x="461" y="166"/>
      <point x="489" y="198"/>
      <point x="489" y="221" type="curve" smooth="yes"/>
      <point x="489" y="244"/>
      <point x="472" y="267"/>
      <point x="411" y="306" type="curve"/>
      <point x="402" y="306" type="line"/>
      <point x="385" y="295"/>
      <point x="332" y="236"/>
      <point x="315" y="210" type="curve"/>
      <point x="315" y="201" type="line"/>
      <point x="342" y="180"/>
      <point x="370" y="155"/>
    </contour>
  </outline>
</glyph>
<glyph name="Heh" format="2">
  <advance width="563"/>
  <unicode hex="0647"/>
  <note>
Heh
</note>
  <outline>
    <contour>
      <point x="-26" y="43" type="curve" smooth="yes"/>
      <point x="0" y="43"/>
      <point x="30" y="45"/>
      <point x="63" y="49" type="curve" smooth="yes"/>
      <point x="96" y="53"/>
      <point x="127" y="60"/>
      <point x="156" y="68" type="curve" smooth="yes"/>
      <point x="218" y="86"/>
      <point x="248" y="103"/>
      <point x="281" y="143" type="curve"/>
      <point x="331" y="135"/>
      <point x="374" y="131"/>
      <point x="412" y="131" type="curve" smooth="yes"/>
      <point x="438" y="131"/>
      <point x="458" y="137"/>
      <point x="472" y="149" type="curve" smooth="yes"/>
      <point x="498" y="172"/>
      <point x="521" y="214"/>
      <point x="521" y="270" type="curve" smooth="yes"/>
      <point x="521" y="311"/>
      <point x="506" y="343"/>
      <point x="466" y="374" type="curve" smooth="yes"/>
      <point x="447" y="388"/>
      <point x="404" y="412"/>
      <point x="339" y="444" type="curve" smooth="yes"/>
      <point x="284" y="471"/>
      <point x="252" y="494"/>
      <point x="243" y="514" type="curve"/>
      <point x="234" y="516" type="line"/>
      <point x="205" y="476"/>
      <point x="191" y="445"/>
      <point x="191" y="424" type="curve" smooth="yes"/>
      <point x="191" y="417" type="line"/>
      <point x="129" y="364"/>
      <point x="96" y="288"/>
      <point x="96" y="242" type="curve" smooth="yes"/>
      <point x="96" y="193"/>
      <point x="122" y="172"/>
      <point x="185" y="160" type="curve"/>
      <point x="104" y="111"/>
      <point x="26" y="80"/>
      <point x="-51" y="67" type="curve"/>
      <point x="-53" y="44" type="line"/>
      <point x="-45" y="43"/>
      <point x="-37" y="43"/>
    </contour>
    <contour>
      <point x="271" y="228" type="curve"/>
      <point x="155" y="246"/>
      <point x="151" y="269"/>
      <point x="151" y="292" type="curve" smooth="yes"/>
      <point x="151" y="328"/>
      <point x="196" y="376"/>
      <point x="232" y="376" type="curve" smooth="yes"/>
      <point x="262" y="376"/>
      <point x="307" y="354"/>
      <point x="307" y="301" type="curve" smooth="yes"/>
      <point x="307" y="278"/>
      <point x="295" y="253"/>
    </contour>
    <contour>
      <point x="450" y="208" type="line" smooth="yes"/>
      <point x="425" y="208"/>
      <point x="386" y="211"/>
      <point x="332" y="219" type="curve"/>
      <point x="344" y="249"/>
      <point x="353" y="284"/>
      <point x="356" y="323" type="curve"/>
      <point x="431" y="296"/>
      <point x="477" y="274"/>
      <point x="477" y="232" type="curve" smooth="yes"/>
      <point x="477" y="222"/>
      <point x="471" y="208"/>
      <point x="464" y="208" type="curve" smooth="yes"/>
    </contour>
  </outline>
</glyph>
<glyph name="Waw" format="2">
  <advance width="422"/>
  <unicode hex="0648"/>
  <note>
Waw
</note>
  <outline>
    <contour>
      <point x="24" y="-68" type="line"/>
      <point x="113" y="-44"/>
      <point x="222" y="0"/>
      <point x="252" y="20" type="curve"/>
      <point x="322" y="102"/>
      <point x="345" y="208"/>
      <point x="345" y="282" type="curve" smooth="yes"/>
      <point x="345" y="394"/>
      <point x="315" y="449"/>
      <point x="257" y="449" type="curve" smooth="yes"/>
      <point x="227" y="449"/>
      <point x="205" y="434"/>
      <point x="189" y="402" type="curve" smooth="yes"/>
      <point x="156" y="336" type="line" smooth="yes"/>
      <point x="143" y="309"/>
      <point x="136" y="284"/>
      <point x="136" y="262" type="curve" smooth="yes"/>
      <point x="136" y="220"/>
      <point x="176" y="186"/>
      <point x="223" y="186" type="curve" smooth="yes"/>
      <point x="245" y="186"/>
      <point x="267" y="193"/>
      <point x="290" y="209" type="curve"/>
      <point x="292" y="208"/>
      <point x="292" y="205"/>
      <point x="292" y="201" type="curve" smooth="yes"/>
      <point x="292" y="155"/>
      <point x="170" y="44"/>
      <point x="20" y="-46" type="curve"/>
    </contour>
  </outline>
</glyph>
<glyph name="Yeh" format="2">
  <advance width="860"/>
  <unicode hex="064A"/>
  <note>
Yeh
</note>
  <outline>
    <contour>
      <point x="250" y="-341" type="curve" smooth="yes"/>
      <point x="359" y="-341"/>
      <point x="467" y="-282"/>
      <point x="548" y="-177" type="curve" smooth="yes"/>
      <point x="638" y="-61"/>
      <point x="682" y="88"/>
      <point x="682" y="169" type="curve" smooth="yes"/>
      <point x="682" y="211"/>
      <point x="665" y="230"/>
      <point x="625" y="245" type="curve" smooth="yes"/>
      <point x="578" y="263"/>
      <point x="555" y="286"/>
      <point x="555" y="315" type="curve" smooth="yes"/>
      <point x="555" y="377"/>
      <point x="661" y="480"/>
      <point x="725" y="480" type="curve" smooth="yes"/>
      <point x="739" y="480"/>
      <point x="750" y="478"/>
      <point x="756" y="472" type="curve"/>
      <point x="765" y="474" type="line"/>
      <point x="813" y="584" type="line"/>
      <point x="816" y="592"/>
      <point x="818" y="599"/>
      <point x="818" y="604" type="curve" smooth="yes"/>
      <point x="818" y="623"/>
      <point x="803" y="632"/>
      <point x="773" y="632" type="curve" smooth="yes"/>
      <point x="712" y="632"/>
      <point x="645" y="566"/>
      <point x="586" y="476" type="curve" smooth="yes"/>
      <point x="527" y="386"/>
      <point x="470" y="252"/>
      <point x="470" y="193" type="curve" smooth="yes"/>
      <point x="470" y="155"/>
      <point x="488" y="127"/>
      <point x="525" y="112" type="curve" smooth="yes"/>
      <point x="591" y="85"/>
      <point x="612" y="69"/>
      <point x="612" y="42" type="curve" smooth="yes"/>
      <point x="612" y="-15"/>
      <point x="496" y="-162"/>
      <point x="312" y="-162" type="curve" smooth="yes"/>
      <point x="171" y="-162"/>
      <point x="104" y="-76"/>
      <point x="104" y="33" type="curve" smooth="yes"/>
      <point x="104" y="109"/>
      <point x="122" y="191"/>
      <point x="217" y="355" type="curve"/>
      <point x="191" y="370" type="line"/>
      <point x="65" y="187"/>
      <point x="28" y="19"/>
      <point x="28" y="-88" type="curve" smooth="yes"/>
      <point x="28" y="-237"/>
      <point x="117" y="-341"/>
    </contour>
    <contour>
      <point x="201" y="-615" type="curve"/>
      <point x="209" y="-615" type="line"/>
      <point x="252" y="-585"/>
      <point x="278" y="-559"/>
      <point x="287" y="-539" type="curve"/>
      <point x="307" y="-555"/>
      <point x="328" y="-574"/>
      <point x="351" y="-597" type="curve"/>
      <point x="359" y="-597" type="line"/>
      <point x="413" y="-558"/>
      <point x="439" y="-526"/>
      <point x="439" y="-502" type="curve" smooth="yes"/>
      <point x="439" y="-474"/>
      <point x="414" y="-451"/>
      <point x="361" y="-417" type="curve"/>
      <point x="353" y="-417" type="line"/>
      <point x="341" y="-425"/>
      <point x="305" y="-463"/>
      <point x="282" y="-491" type="curve"/>
      <point x="270" y="-474"/>
      <point x="247" y="-456"/>
      <point x="214" y="-436" type="curve"/>
      <point x="205" y="-436" type="line"/>
      <point x="188" y="-446"/>
      <point x="135" y="-506"/>
      <point x="118" y="-532" type="curve"/>
      <point x="118" y="-541" type="line"/>
      <point x="144" y="-562"/>
      <point x="172" y="-586"/>
    </contour>
  </outline>
</glyph>
<glyph name="DammatanNS" format="2">
  <unicode hex="064C"/>
  <note>
DammatanNS
</note>
  <outline>
    <contour>
      <point x="-29" y="869" type="curve" smooth="yes"/>
      <point x="6" y="869"/>
      <point x="44" y="888"/>
      <point x="81" y="925" type="curve" smooth="yes"/>
      <point x="120" y="963"/>
      <point x="136" y="998"/>
      <point x="136" y="1030" type="curve" smooth="yes"/>
      <point x="136" y="1056"/>
      <point x="124" y="1071"/>
      <point x="99" y="1071" type="curve" smooth="yes"/>
      <point x="67" y="1071"/>
      <point x="31" y="1030"/>
      <point x="31" y="997" type="curve" smooth="yes"/>
      <point x="31" y="981"/>
      <point x="35" y="964"/>
      <point x="52" y="947" type="curve"/>
      <point x="25" y="926"/>
      <point x="0" y="915"/>
      <point x="-21" y="915" type="curve" smooth="yes"/>
      <point x="-49" y="915"/>
      <point x="-64" y="931"/>
      <point x="-64" y="964" type="curve" smooth="yes"/>
      <point x="-64" y="987"/>
      <point x="-58" y="1010"/>
      <point x="-58" y="1016" type="curve" smooth="yes"/>
      <point x="-58" y="1028"/>
      <point x="-67" y="1031"/>
      <point x="-74" y="1031" type="curve" smooth="yes"/>
      <point x="-98" y="1031"/>
      <point x="-135" y="1004"/>
      <point x="-154" y="980" type="curve"/>
      <point x="-147" y="972" type="line"/>
      <point x="-129" y="985"/>
      <point x="-106" y="994"/>
      <point x="-88" y="994" type="curve" smooth="yes"/>
      <point x="-83" y="994" type="line"/>
      <point x="-88" y="973"/>
      <point x="-92" y="956"/>
      <point x="-92" y="941" type="curve" smooth="yes"/>
      <point x="-92" y="884"/>
      <point x="-63" y="869"/>
    </contour>
    <contour>
      <point x="84" y="979" type="curve"/>
      <point x="70" y="991"/>
      <point x="60" y="1001"/>
      <point x="60" y="1013" type="curve" smooth="yes"/>
      <point x="60" y="1027"/>
      <point x="69" y="1035"/>
      <point x="83" y="1035" type="curve" smooth="yes"/>
      <point x="98" y="1035"/>
      <point x="104" y="1027"/>
      <point x="104" y="1016" type="curve" smooth="yes"/>
      <point x="104" y="999"/>
      <point x="94" y="989"/>
    </contour>
  </outline>
</glyph>
<glyph name="KasratanNS" format="2">
  <unicode hex="064D"/>
  <note>
KasratanNS
</note>
  <outline>
    <contour>
      <point x="-113" y="-184" type="line"/>
      <point x="-105" y="-175"/>
      <point x="-92" y="-166"/>
      <point x="-60" y="-148" type="curve" smooth="yes"/>
      <point x="79" y="-72" type="line" smooth="yes"/>
      <point x="109" y="-55"/>
      <point x="123" y="-34"/>
      <point x="134" y="-6" type="curve"/>
      <point x="125" y="-1" type="line"/>
      <point x="121" y="-4"/>
      <point x="113" y="-9"/>
      <point x="103" y="-15" type="curve" smooth="yes"/>
      <point x="-34" y="-91" type="line" smooth="yes"/>
      <point x="-58" y="-104"/>
      <point x="-113" y="-135"/>
      <point x="-120" y="-179" type="curve"/>
    </contour>
    <contour>
      <point x="-126" y="-284" type="line"/>
      <point x="-118" y="-275"/>
      <point x="-105" y="-266"/>
      <point x="-73" y="-248" type="curve" smooth="yes"/>
      <point x="66" y="-172" type="line" smooth="yes"/>
      <point x="96" y="-155"/>
      <point x="110" y="-134"/>
      <point x="121" y="-106" type="curve"/>
      <point x="112" y="-101" type="line"/>
      <point x="108" y="-104"/>
      <point x="100" y="-109"/>
      <point x="90" y="-115" type="curve" smooth="yes"/>
      <point x="-47" y="-191" type="line" smooth="yes"/>
      <point x="-71" y="-204"/>
      <point x="-126" y="-235"/>
      <point x="-133" y="-279" type="curve"/>
    </contour>
  </outline>
</glyph>
<glyph name="FathaNS" format="2">
  <unicode hex="064E"/>
  <note>
FathaNS
</note>
  <outline>
    <contour>
      <point x="-109" y="865" type="line"/>
      <point x="-101" y="874"/>
      <point x="-88" y="883"/>
      <point x="-56" y="901" type="curve" smooth="yes"/>
      <point x="83" y="977" type="line" smooth="yes"/>
      <point x="113" y="994"/>
      <point x="127" y="1015"/>
      <point x="138" y="1043" type="curve"/>
      <point x="129" y="1048" type="line"/>
      <point x="125" y="1045"/>
      <point x="117" y="1041"/>
      <point x="107" y="1035" type="curve" smooth="yes"/>
      <point x="-30" y="958" type="line" smooth="yes"/>
      <point x="-54" y="944"/>
      <point x="-109" y="914"/>
      <point x="-116" y="870" type="curve"/>
    </contour>
  </outline>
</glyph>
<glyph name="DammaNS" format="2">
  <unicode hex="064F"/>
  <note>
DammaNS
</note>
  <outline>
    <contour>
      <point x="-111" y="861" type="line"/>
      <point x="14" y="923"/>
      <point x="109" y="980"/>
      <point x="109" y="1058" type="curve" smooth="yes"/>
      <point x="109" y="1086"/>
      <point x="95" y="1102"/>
      <point x="71" y="1102" type="curve" smooth="yes"/>
      <point x="37" y="1102"/>
      <point x="-2" y="1058"/>
      <point x="-2" y="1023" type="curve" smooth="yes"/>
      <point x="-2" y="1013"/>
      <point x="2" y="995"/>
      <point x="17" y="978" type="curve"/>
      <point x="2" y="967"/>
      <point x="-88" y="895"/>
      <point x="-116" y="868" type="curve"/>
    </contour>
    <contour>
      <point x="53" y="1006" type="curve"/>
      <point x="29" y="1029"/>
      <point x="28" y="1033"/>
      <point x="28" y="1041" type="curve" smooth="yes"/>
      <point x="28" y="1052"/>
      <point x="36" y="1064"/>
      <point x="54" y="1064" type="curve" smooth="yes"/>
      <point x="65" y="1064"/>
      <point x="75" y="1059"/>
      <point x="75" y="1044" type="curve" smooth="yes"/>
      <point x="75" y="1028"/>
      <point x="63" y="1016"/>
    </contour>
  </outline>
</glyph>
<glyph name="KasraNS" format="2">
  <unicode hex="0650"/>
  <note>
KasraNS
</note>
  <outline>
    <contour>
      <point x="-113" y="-184" type="line"/>
      <point x="-105" y="-175"/>
      <point x="-92" y="-166"/>
      <point x="-60" y="-148" type="curve" smooth="yes"/>
      <point x="79" y="-72" type="line" smooth="yes"/>
      <point x="109" y="-55"/>
      <point x="123" y="-34"/>
      <point x="134" y="-6" type="curve"/>
      <point x="125" y="-1" type="line"/>
      <point x="121" y="-4"/>
      <point x="113" y="-9"/>
      <point x="103" y="-15" type="curve" smooth="yes"/>
      <point x="-34" y="-91" type="line" smooth="yes"/>
      <point x="-58" y="-104"/>
      <point x="-113" y="-135"/>
      <point x="-120" y="-179" type="curve"/>
    </contour>
  </outline>
</glyph>
<glyph name="ShaddaNS" format="2">
  <unicode hex="0651"/>
  <note>
ShaddaNS
</note>
  <outline>
    <contour>
      <point x="-74" y="881" type="curve" smooth="yes"/>
      <point x="-45" y="881"/>
      <point x="-24" y="900"/>
      <point x="-6" y="942" type="curve"/>
      <point x="0" y="937"/>
      <point x="11" y="934"/>
      <point x="19" y="934" type="curve" smooth="yes"/>
      <point x="79" y="934"/>
      <point x="97" y="995"/>
      <point x="97" y="1043" type="curve" smooth="yes"/>
      <point x="97" y="1054" type="line"/>
      <point x="79" y="1051" type="line"/>
      <point x="73" y="1007"/>
      <point x="65" y="985"/>
      <point x="40" y="985" type="curve" smooth="yes"/>
      <point x="26" y="985"/>
      <point x="14" y="991"/>
      <point x="8" y="1003" type="curve"/>
      <point x="-8" y="1000" type="line"/>
      <point x="-21" y="949"/>
      <point x="-35" y="932"/>
      <point x="-62" y="932" type="curve" smooth="yes"/>
      <point x="-77" y="932"/>
      <point x="-85" y="939"/>
      <point x="-89" y="961" type="curve"/>
      <point x="-89" y="966" type="line"/>
      <point x="-102" y="964" type="line"/>
      <point x="-108" y="953"/>
      <point x="-111" y="939"/>
      <point x="-111" y="923" type="curve" smooth="yes"/>
      <point x="-111" y="897"/>
      <point x="-98" y="881"/>
    </contour>
  </outline>
</glyph>
<glyph name="SukunJazmNS" format="2">
  <unicode hex="0652"/>
  <note>
SukunJazmNS
</note>
  <outline>
    <contour>
      <point x="-129" y="879" type="line"/>
      <point x="-106" y="904"/>
      <point x="-75" y="932"/>
      <point x="-38" y="962" type="curve" smooth="yes"/>
      <point x="-5" y="989" type="line"/>
      <point x="38" y="962"/>
      <point x="82" y="932"/>
      <point x="125" y="900" type="curve"/>
      <point x="134" y="904" type="line"/>
      <point x="128" y="952"/>
      <point x="113" y="969"/>
      <point x="63" y="1009" type="curve" smooth="yes"/>
      <point x="43" y="1025"/>
      <point x="23" y="1039"/>
      <point x="-1" y="1054" type="curve"/>
      <point x="-13" y="1052" type="line"/>
      <point x="-112" y="965"/>
      <point x="-137" y="923"/>
      <point x="-139" y="881" type="curve"/>
    </contour>
  </outline>
</glyph>
<glyph name="MaddaNS" format="2">
  <unicode hex="0653"/>
  <note>
MaddaNS
</note>
  <outline>
    <contour>
      <point x="-242" y="884" type="line"/>
      <point x="-221" y="913"/>
      <point x="-207" y="925"/>
      <point x="-183" y="925" type="curve" smooth="yes"/>
      <point x="-137" y="925"/>
      <point x="-110" y="907"/>
      <point x="-11" y="907" type="curve" smooth="yes"/>
      <point x="75" y="907"/>
      <point x="190" y="939"/>
      <point x="279" y="1057" type="curve"/>
      <point x="266" y="1068" type="line"/>
      <point x="210" y="1021"/>
      <point x="141" y="1009"/>
      <point x="59" y="1009" type="curve" smooth="yes"/>
      <point x="-35" y="1009"/>
      <point x="-96" y="1029"/>
      <point x="-128" y="1029" type="curve" smooth="yes"/>
      <point x="-180" y="1029"/>
      <point x="-226" y="968"/>
      <point x="-262" y="893" type="curve"/>
    </contour>
  </outline>
</glyph>
<glyph name="HamzaAboveNS" format="2">
  <unicode hex="0654"/>
  <note>
HamzaAboveNS
</note>
  <outline>
    <contour>
      <point x="-90" y="848" type="curve" smooth="yes"/>
      <point x="-65" y="848"/>
      <point x="-44" y="866"/>
      <point x="-19" y="905" type="curve" smooth="yes"/>
      <point x="15" y="957" type="line" smooth="yes"/>
      <point x="32" y="982"/>
      <point x="42" y="990"/>
      <point x="55" y="990" type="curve" smooth="yes"/>
      <point x="64" y="990"/>
      <point x="75" y="983"/>
      <point x="75" y="964" type="curve"/>
      <point x="91" y="960" type="line"/>
      <point x="108" y="979"/>
      <point x="122" y="1005"/>
      <point x="122" y="1031" type="curve" smooth="yes"/>
      <point x="122" y="1057"/>
      <point x="104" y="1064"/>
      <point x="88" y="1064" type="curve" smooth="yes"/>
      <point x="64" y="1064"/>
      <point x="45" y="1049"/>
      <point x="17" y="1008" type="curve" smooth="yes"/>
      <point x="-17" y="957" type="line" smooth="yes"/>
      <point x="-35" y="931"/>
      <point x="-45" y="923"/>
      <point x="-58" y="923" type="curve" smooth="yes"/>
      <point x="-68" y="923"/>
      <point x="-77" y="932"/>
      <point x="-77" y="948" type="curve"/>
      <point x="-94" y="952" type="line"/>
      <point x="-111" y="934"/>
      <point x="-125" y="907"/>
      <point x="-125" y="881" type="curve" smooth="yes"/>
      <point x="-125" y="859"/>
      <point x="-112" y="848"/>
    </contour>
  </outline>
</glyph>
<glyph name="HamzaBelowNS" format="2">
  <unicode hex="0655"/>
  <note>
HamzaBelowNS
</note>
  <outline>
    <contour>
      <point x="-90" y="-277" type="curve" smooth="yes"/>
      <point x="-65" y="-277"/>
      <point x="-44" y="-259"/>
      <point x="-19" y="-220" type="curve" smooth="yes"/>
      <point x="15" y="-168" type="line" smooth="yes"/>
      <point x="32" y="-143"/>
      <point x="42" y="-135"/>
      <point x="55" y="-135" type="curve" smooth="yes"/>
      <point x="64" y="-135"/>
      <point x="75" y="-142"/>
      <point x="75" y="-161" type="curve"/>
      <point x="91" y="-165" type="line"/>
      <point x="108" y="-146"/>
      <point x="122" y="-120"/>
      <point x="122" y="-94" type="curve" smooth="yes"/>
      <point x="122" y="-68"/>
      <point x="104" y="-61"/>
      <point x="88" y="-61" type="curve" smooth="yes"/>
      <point x="64" y="-61"/>
      <point x="45" y="-75"/>
      <point x="17" y="-117" type="curve" smooth="yes"/>
      <point x="-17" y="-168" type="line" smooth="yes"/>
      <point x="-34" y="-194"/>
      <point x="-45" y="-202"/>
      <point x="-58" y="-202" type="curve" smooth="yes"/>
      <point x="-68" y="-202"/>
      <point x="-77" y="-193"/>
      <point x="-77" y="-177" type="curve"/>
      <point x="-94" y="-173" type="line"/>
      <point x="-111" y="-191"/>
      <point x="-125" y="-218"/>
      <point x="-125" y="-244" type="curve" smooth="yes"/>
      <point x="-125" y="-266"/>
      <point x="-112" y="-277"/>
    </contour>
  </outline>
</glyph>
<glyph name="AlefInferiorNS" format="2">
  <unicode hex="0656"/>
  <note>
AlefInferiorNS
</note>
  <outline>
    <contour>
      <point x="-5" y="-267" type="line"/>
      <point x="13" y="-228"/>
      <point x="28" y="-174"/>
      <point x="30" y="-129" type="curve" smooth="yes"/>
      <point x="31" y="-112" type="line" smooth="yes"/>
      <point x="33" y="-52"/>
      <point x="37" y="-21"/>
      <point x="40" y="-11" type="curve"/>
      <point x="29" y="-8" type="line"/>
      <point x="1" y="-63"/>
      <point x="-4" y="-80"/>
      <point x="-6" y="-125" type="curve" smooth="yes"/>
      <point x="-10" y="-204"/>
      <point x="-13" y="-243"/>
      <point x="-17" y="-265" type="curve"/>
    </contour>
  </outline>
</glyph>
<glyph name="NoonGhunnaMarkNS" format="2">
  <unicode hex="0658"/>
  <note>
NoonGhunnaMarkNS
</note>
  <outline>
    <contour>
      <point x="-16" y="882" type="curve" smooth="yes"/>
      <point x="71" y="882"/>
      <point x="129" y="966"/>
      <point x="132" y="1046" type="curve"/>
      <point x="109" y="1046" type="line"/>
      <point x="91" y="967"/>
      <point x="38" y="947"/>
      <point x="-12" y="947" type="curve" smooth="yes"/>
      <point x="-67" y="947"/>
      <point x="-87" y="972"/>
      <point x="-87" y="1013" type="curve" smooth="yes"/>
      <point x="-87" y="1026" type="line" smooth="yes"/>
      <point x="-87" y="1030"/>
      <point x="-86" y="1034"/>
      <point x="-85" y="1039" type="curve"/>
      <point x="-107" y="1041" type="line"/>
      <point x="-112" y="1021"/>
      <point x="-116" y="1003"/>
      <point x="-116" y="982" type="curve" smooth="yes"/>
      <point x="-116" y="905"/>
      <point x="-64" y="882"/>
    </contour>
  </outline>
</glyph>
<glyph name="ZwarakayNS" format="2">
  <unicode hex="0659"/>
  <note>
ZwarakayNS
</note>
  <outline>
    <contour>
      <point x="-147" y="893" type="line"/>
      <point x="-137" y="895"/>
      <point x="-125" y="896"/>
      <point x="-112" y="897" type="curve" smooth="yes"/>
      <point x="-40" y="905"/>
      <point x="32" y="907"/>
      <point x="104" y="912" type="curve"/>
      <point x="153" y="954" type="line"/>
      <point x="148" y="963" type="line"/>
      <point x="37" y="959" type="line" smooth="yes"/>
      <point x="-39" y="956"/>
      <point x="-85" y="950"/>
      <point x="-102" y="945" type="curve" smooth="yes"/>
      <point x="-119" y="940"/>
      <point x="-136" y="925"/>
      <point x="-152" y="900" type="curve"/>
    </contour>
  </outline>
</glyph>
<glyph name="DammaRevNS" format="2">
  <unicode hex="065D"/>
  <note>
DammaRevNS
</note>
  <outline>
    <contour>
      <point x="120" y="861" type="curve"/>
      <point x="125" y="868" type="line"/>
      <point x="104" y="889"/>
      <point x="21" y="957"/>
      <point x="-8" y="978" type="curve"/>
      <point x="5" y="992"/>
      <point x="11" y="1010"/>
      <point x="11" y="1023" type="curve" smooth="yes"/>
      <point x="11" y="1058"/>
      <point x="-27" y="1102"/>
      <point x="-63" y="1102" type="curve" smooth="yes"/>
      <point x="-92" y="1102"/>
      <point x="-100" y="1077"/>
      <point x="-100" y="1058" type="curve" smooth="yes"/>
      <point x="-100" y="1009"/>
      <point x="-64" y="969"/>
      <point x="2" y="925" type="curve" smooth="yes"/>
      <point x="20" y="913"/>
      <point x="40" y="904"/>
      <point x="59" y="893" type="curve" smooth="yes"/>
      <point x="78" y="882"/>
      <point x="102" y="870"/>
    </contour>
    <contour>
      <point x="-44" y="1006" type="curve"/>
      <point x="-55" y="1016"/>
      <point x="-66" y="1028"/>
      <point x="-66" y="1044" type="curve" smooth="yes"/>
      <point x="-66" y="1059"/>
      <point x="-56" y="1064"/>
      <point x="-45" y="1064" type="curve" smooth="yes"/>
      <point x="-34" y="1064"/>
      <point x="-20" y="1058"/>
      <point x="-20" y="1041" type="curve" smooth="yes"/>
      <point x="-20" y="1030"/>
      <point x="-28" y="1021"/>
    </contour>
  </outline>
</glyph>
<glyph name="WavyHamzaBelowNS" format="2">
  <unicode hex="065F"/>
  <note>
WavyHamzaBelowNS
</note>
  <outline>
    <contour>
      <point x="-158" y="-331" type="curve"/>
      <point x="-147" y="-331" type="line"/>
      <point x="-139" y="-299"/>
      <point x="-111" y="-283"/>
      <point x="-66" y="-281" type="curve" smooth="yes"/>
      <point x="10" y="-278"/>
      <point x="106" y="-252"/>
      <point x="138" y="-163" type="curve"/>
      <point x="129" y="-157" type="line"/>
      <point x="102" y="-184"/>
      <point x="71" y="-200"/>
      <point x="52" y="-200" type="curve" smooth="yes"/>
      <point x="14" y="-200"/>
      <point x="-11" y="-182"/>
      <point x="-11" y="-158" type="curve" smooth="yes"/>
      <point x="-11" y="-132"/>
      <point x="20" y="-118"/>
      <point x="42" y="-118" type="curve" smooth="yes"/>
      <point x="55" y="-118"/>
      <point x="66" y="-123"/>
      <point x="76" y="-132" type="curve"/>
      <point x="80" y="-132" type="line"/>
      <point x="88" y="-128"/>
      <point x="96" y="-118"/>
      <point x="96" y="-104" type="curve" smooth="yes"/>
      <point x="96" y="-83"/>
      <point x="76" y="-77"/>
      <point x="59" y="-77" type="curve" smooth="yes"/>
      <point x="11" y="-77"/>
      <point x="-65" y="-151"/>
      <point x="-65" y="-201" type="curve" smooth="yes"/>
      <point x="-65" y="-220"/>
      <point x="-58" y="-227"/>
      <point x="-50" y="-233" type="curve"/>
      <point x="-51" y="-236" type="line"/>
      <point x="-64" y="-236" type="line" smooth="yes"/>
      <point x="-139" y="-236"/>
      <point x="-159" y="-271"/>
      <point x="-159" y="-317" type="curve" smooth="yes"/>
      <point x="-159" y="-323"/>
      <point x="-159" y="-325"/>
    </contour>
  </outline>
</glyph>
<glyph name="ZeroArabic" format="2">
  <advance width="409"/>
  <unicode hex="0660"/>
  <note>
ZeroArabic
</note>
  <outline>
    <contour>
      <point x="193" y="196" type="curve"/>
      <point x="203" y="196" type="line"/>
      <point x="263" y="240"/>
      <point x="292" y="274"/>
      <point x="292" y="298" type="curve" smooth="yes"/>
      <point x="292" y="330"/>
      <point x="260" y="356"/>
      <point x="208" y="389" type="curve"/>
      <point x="199" y="389" type="line"/>
      <point x="190" y="384"/>
      <point x="134" y="330"/>
      <point x="104" y="287" type="curve"/>
      <point x="104" y="277" type="line"/>
      <point x="145" y="245"/>
      <point x="174" y="218"/>
    </contour>
  </outline>
</glyph>
<glyph name="OneArabic" format="2">
  <advance width="567"/>
  <unicode hex="0661"/>
  <note>
OneArabic
</note>
  <outline>
    <contour>
      <point x="280" y="-2" type="line"/>
      <point x="322" y="91"/>
      <point x="328" y="157"/>
      <point x="328" y="324" type="curve" smooth="yes"/>
      <point x="328" y="448"/>
      <point x="306" y="633"/>
      <point x="293" y="670" type="curve"/>
      <point x="282" y="670" type="line"/>
      <point x="269" y="640" type="line" smooth="yes"/>
      <point x="248" y="592"/>
      <point x="234" y="558"/>
      <point x="229" y="536" type="curve"/>
      <point x="240" y="453" type="line" smooth="yes"/>
      <point x="251" y="368"/>
      <point x="266" y="246"/>
      <point x="266" y="122" type="curve" smooth="yes"/>
      <point x="266" y="65"/>
      <point x="264" y="25"/>
      <point x="260" y="2" type="curve"/>
    </contour>
  </outline>
</glyph>
<glyph name="TwoArabic" format="2">
  <advance width="567"/>
  <unicode hex="0662"/>
  <note>
TwoArabic
</note>
  <outline>
    <contour>
      <point x="175" y="-2" type="line"/>
      <point x="216" y="94"/>
      <point x="222" y="140"/>
      <point x="222" y="324" type="curve" smooth="yes"/>
      <point x="222" y="347"/>
      <point x="220" y="380"/>
      <point x="215" y="424" type="curve"/>
      <point x="231" y="419"/>
      <point x="251" y="417"/>
      <point x="274" y="417" type="curve" smooth="yes"/>
      <point x="425" y="417"/>
      <point x="470" y="506"/>
      <point x="494" y="666" type="curve"/>
      <point x="472" y="670" type="line"/>
      <point x="439" y="569"/>
      <point x="384" y="542"/>
      <point x="304" y="542" type="curve" smooth="yes"/>
      <point x="251" y="542"/>
      <point x="206" y="565"/>
      <point x="191" y="604" type="curve"/>
      <point x="188" y="629"/>
      <point x="184" y="646"/>
      <point x="178" y="670" type="curve"/>
      <point x="166" y="670" type="line"/>
      <point x="155" y="646"/>
      <point x="126" y="575"/>
      <point x="116" y="536" type="curve"/>
      <point x="130" y="459" type="line" smooth="yes"/>
      <point x="145" y="375"/>
      <point x="160" y="261"/>
      <point x="160" y="122" type="curve" smooth="yes"/>
      <point x="160" y="68"/>
      <point x="158" y="29"/>
      <point x="154" y="2" type="curve"/>
    </contour>
  </outline>
</glyph>
<glyph name="ThreeArabic" format="2">
  <advance width="567"/>
  <unicode hex="0663"/>
  <note>
ThreeArabic
</note>
  <outline>
    <contour>
      <point x="121" y="-2" type="line"/>
      <point x="162" y="92"/>
      <point x="168" y="142"/>
      <point x="168" y="324" type="curve" smooth="yes"/>
      <point x="168" y="350"/>
      <point x="165" y="395"/>
      <point x="163" y="418" type="curve"/>
      <point x="171" y="417"/>
      <point x="179" y="417"/>
      <point x="187" y="417" type="curve" smooth="yes"/>
      <point x="228" y="417"/>
      <point x="261" y="428"/>
      <point x="286" y="451" type="curve"/>
      <point x="308" y="434"/>
      <point x="333" y="425"/>
      <point x="363" y="425" type="curve" smooth="yes"/>
      <point x="439" y="425"/>
      <point x="527" y="475"/>
      <point x="546" y="668" type="curve"/>
      <point x="524" y="670" type="line"/>
      <point x="497" y="566"/>
      <point x="459" y="542"/>
      <point x="409" y="542" type="curve" smooth="yes"/>
      <point x="377" y="542"/>
      <point x="355" y="551"/>
      <point x="344" y="570" type="curve"/>
      <point x="350" y="594"/>
      <point x="354" y="626"/>
      <point x="358" y="667" type="curve"/>
      <point x="336" y="670" type="line"/>
      <point x="312" y="574"/>
      <point x="283" y="542"/>
      <point x="214" y="542" type="curve" smooth="yes"/>
      <point x="177" y="542"/>
      <point x="152" y="556"/>
      <point x="141" y="585" type="curve"/>
      <point x="135" y="624"/>
      <point x="129" y="652"/>
      <point x="123" y="670" type="curve"/>
      <point x="112" y="670" type="line"/>
      <point x="102" y="646"/>
      <point x="73" y="575"/>
      <point x="63" y="536" type="curve"/>
      <point x="77" y="459" type="line" smooth="yes"/>
      <point x="93" y="372"/>
      <point x="106" y="251"/>
      <point x="106" y="122" type="curve" smooth="yes"/>
      <point x="106" y="69"/>
      <point x="104" y="29"/>
      <point x="100" y="2" type="curve"/>
    </contour>
  </outline>
</glyph>
<glyph name="FourArabic" format="2">
  <advance width="565"/>
  <unicode hex="0664"/>
  <note>
FourArabic
</note>
  <outline>
    <contour>
      <point x="271" y="0" type="curve" smooth="yes"/>
      <point x="336" y="0"/>
      <point x="405" y="30"/>
      <point x="476" y="91" type="curve"/>
      <point x="472" y="99" type="line"/>
      <point x="426" y="99"/>
      <point x="378" y="102"/>
      <point x="328" y="107" type="curve" smooth="yes"/>
      <point x="232" y="117"/>
      <point x="205" y="130"/>
      <point x="205" y="171" type="curve" smooth="yes"/>
      <point x="205" y="200"/>
      <point x="240" y="246"/>
      <point x="310" y="309" type="curve" smooth="yes"/>
      <point x="338" y="334"/>
      <point x="352" y="355"/>
      <point x="352" y="375" type="curve" smooth="yes"/>
      <point x="352" y="389"/>
      <point x="336" y="402"/>
      <point x="306" y="413" type="curve" smooth="yes"/>
      <point x="210" y="447"/>
      <point x="178" y="462"/>
      <point x="178" y="483" type="curve" smooth="yes"/>
      <point x="178" y="511"/>
      <point x="224" y="543"/>
      <point x="314" y="581" type="curve"/>
      <point x="349" y="621"/>
      <point x="376" y="669"/>
      <point x="383" y="687" type="curve"/>
      <point x="375" y="691" type="line"/>
      <point x="262" y="650"/>
      <point x="93" y="518"/>
      <point x="93" y="421" type="curve" smooth="yes"/>
      <point x="93" y="357"/>
      <point x="148" y="330"/>
      <point x="240" y="300" type="curve"/>
      <point x="137" y="216"/>
      <point x="104" y="149"/>
      <point x="104" y="92" type="curve" smooth="yes"/>
      <point x="104" y="31"/>
      <point x="160" y="0"/>
    </contour>
  </outline>
</glyph>
<glyph name="FiveArabic" format="2">
  <advance width="567"/>
  <unicode hex="0665"/>
  <note>
FiveArabic
</note>
  <outline>
    <contour>
      <point x="244" y="24" type="curve" smooth="yes"/>
      <point x="405" y="24"/>
      <point x="486" y="125"/>
      <point x="486" y="326" type="curve" smooth="yes"/>
      <point x="486" y="483"/>
      <point x="392" y="594"/>
      <point x="306" y="594" type="curve" smooth="yes"/>
      <point x="186" y="594"/>
      <point x="79" y="311"/>
      <point x="79" y="178" type="curve" smooth="yes"/>
      <point x="79" y="87"/>
      <point x="135" y="24"/>
    </contour>
    <contour>
      <point x="271" y="156" type="curve" smooth="yes"/>
      <point x="203" y="156"/>
      <point x="143" y="179"/>
      <point x="143" y="251" type="curve" smooth="yes"/>
      <point x="143" y="302"/>
      <point x="196" y="461"/>
      <point x="276" y="461" type="curve" smooth="yes"/>
      <point x="347" y="461"/>
      <point x="432" y="333"/>
      <point x="432" y="255" type="curve" smooth="yes"/>
      <point x="432" y="195"/>
      <point x="381" y="156"/>
    </contour>
  </outline>
</glyph>
<glyph name="SevenArabic" format="2">
  <advance width="567"/>
  <unicode hex="0667"/>
  <note>
SevenArabic
</note>
  <outline>
    <contour>
      <point x="246" y="0" type="curve"/>
      <point x="266" y="0" type="line"/>
      <point x="274" y="10"/>
      <point x="301" y="70"/>
      <point x="346" y="180" type="curve" smooth="yes"/>
      <point x="397" y="306"/>
      <point x="456" y="439"/>
      <point x="523" y="580" type="curve"/>
      <point x="523" y="587"/>
      <point x="509" y="629"/>
      <point x="490" y="670" type="curve"/>
      <point x="481" y="670" type="line"/>
      <point x="382" y="424"/>
      <point x="319" y="259"/>
      <point x="290" y="177" type="curve"/>
      <point x="284" y="177" type="line"/>
      <point x="264" y="256"/>
      <point x="160" y="547"/>
      <point x="99" y="670" type="curve"/>
      <point x="90" y="670" type="line"/>
      <point x="73" y="644"/>
      <point x="38" y="578"/>
      <point x="28" y="543" type="curve"/>
      <point x="76" y="438"/>
      <point x="136" y="288"/>
      <point x="209" y="93" type="curve" smooth="yes"/>
      <point x="228" y="41"/>
      <point x="235" y="23"/>
    </contour>
  </outline>
</glyph>
<glyph name="NineArabic" format="2">
  <advance width="567"/>
  <unicode hex="0669"/>
  <note>
NineArabic
</note>
  <outline>
    <contour>
      <point x="379" y="-1" type="line"/>
      <point x="399" y="48"/>
      <point x="416" y="91"/>
      <point x="427" y="129" type="curve"/>
      <point x="413" y="229"/>
      <point x="402" y="304"/>
      <point x="400" y="376" type="curve" smooth="yes"/>
      <point x="394" y="565"/>
      <point x="373" y="670"/>
      <point x="270" y="670" type="curve" smooth="yes"/>
      <point x="160" y="670"/>
      <point x="96" y="520"/>
      <point x="96" y="412" type="curve" smooth="yes"/>
      <point x="96" y="316"/>
      <point x="163" y="287"/>
      <point x="227" y="287" type="curve" smooth="yes"/>
      <point x="275" y="287"/>
      <point x="312" y="304"/>
      <point x="338" y="339" type="curve"/>
      <point x="345" y="152"/>
      <point x="354" y="40"/>
      <point x="367" y="0" type="curve"/>
    </contour>
    <contour>
      <point x="252" y="402" type="curve" smooth="yes"/>
      <point x="195" y="402"/>
      <point x="154" y="423"/>
      <point x="154" y="471" type="curve" smooth="yes"/>
      <point x="154" y="511"/>
      <point x="195" y="560"/>
      <point x="243" y="560" type="curve" smooth="yes"/>
      <point x="287" y="560"/>
      <point x="336" y="532"/>
      <point x="336" y="418" type="curve"/>
      <point x="315" y="408"/>
      <point x="288" y="402"/>
    </contour>
  </outline>
</glyph>
<glyph name="PercentArabic" format="2">
  <advance width="567"/>
  <unicode hex="066A"/>
  <note>
PercentArabic
</note>
  <outline>
    <contour>
      <point x="149" y="-14" type="line"/>
      <point x="268" y="249"/>
      <point x="376" y="472"/>
      <point x="472" y="657" type="curve"/>
      <point x="427" y="670" type="line"/>
      <point x="297" y="420"/>
      <point x="257" y="339"/>
      <point x="106" y="3" type="curve"/>
    </contour>
    <contour>
      <point x="394" y="0" type="curve"/>
      <point x="402" y="0" type="line"/>
      <point x="449" y="34"/>
      <point x="473" y="62"/>
      <point x="473" y="83" type="curve" smooth="yes"/>
      <point x="473" y="105"/>
      <point x="453" y="125"/>
      <point x="406" y="155" type="curve"/>
      <point x="398" y="155" type="line"/>
      <point x="388" y="149"/>
      <point x="348" y="108"/>
      <point x="323" y="73" type="curve"/>
      <point x="323" y="65" type="line"/>
      <point x="335" y="57"/>
      <point x="376" y="21"/>
    </contour>
    <contour>
      <point x="158" y="488" type="curve"/>
      <point x="166" y="488" type="line"/>
      <point x="213" y="523"/>
      <point x="237" y="550"/>
      <point x="237" y="570" type="curve" smooth="yes"/>
      <point x="237" y="594"/>
      <point x="218" y="612"/>
      <point x="169" y="644" type="curve"/>
      <point x="162" y="644" type="line"/>
      <point x="148" y="635"/>
      <point x="106" y="589"/>
      <point x="87" y="561" type="curve"/>
      <point x="87" y="553" type="line"/>
      <point x="116" y="530"/>
      <point x="139" y="508"/>
    </contour>
  </outline>
</glyph>
<glyph name="DecimalPointArabic" format="2">
  <advance width="285"/>
  <unicode hex="066B"/>
  <note>
DecimalPointArabic
</note>
  <outline>
    <contour>
      <point x="117" y="-146" type="line"/>
      <point x="208" y="-48"/>
      <point x="232" y="28"/>
      <point x="232" y="73" type="curve" smooth="yes"/>
      <point x="232" y="119"/>
      <point x="206" y="158"/>
      <point x="153" y="190" type="curve"/>
      <point x="144" y="190" type="line"/>
      <point x="134" y="185"/>
      <point x="83" y="130"/>
      <point x="54" y="91" type="curve"/>
      <point x="54" y="83" type="line"/>
      <point x="115" y="39"/>
      <point x="146" y="13"/>
      <point x="146" y="-23" type="curve" smooth="yes"/>
      <point x="146" y="-51"/>
      <point x="135" y="-75"/>
      <point x="99" y="-133" type="curve"/>
    </contour>
  </outline>
</glyph>
<glyph name="ThousandMarkerArabic" format="2">
  <advance width="285"/>
  <unicode hex="066C"/>
  <note>
ThousandMarkerArabic
</note>
  <outline>
    <contour>
      <point x="108" y="449" type="line"/>
      <point x="150" y="492"/>
      <point x="212" y="576"/>
      <point x="212" y="646" type="curve" smooth="yes"/>
      <point x="212" y="687"/>
      <point x="188" y="722"/>
      <point x="141" y="751" type="curve"/>
      <point x="133" y="751" type="line"/>
      <point x="124" y="746"/>
      <point x="81" y="704"/>
      <point x="51" y="663" type="curve"/>
      <point x="51" y="655" type="line"/>
      <point x="107" y="613"/>
      <point x="134" y="590"/>
      <point x="134" y="560" type="curve" smooth="yes"/>
      <point x="134" y="537"/>
      <point x="120" y="504"/>
      <point x="91" y="461" type="curve"/>
    </contour>
  </outline>
</glyph>
<glyph name="AsteriskArabic" format="2">
  <advance width="525"/>
  <unicode hex="066D"/>
  <note>
AsteriskArabic
</note>
  <outline>
    <contour>
      <point x="229" y="261" type="curve" smooth="yes"/>
      <point x="231" y="261"/>
      <point x="233" y="263"/>
      <point x="233" y="266" type="curve" smooth="yes"/>
      <point x="233" y="279"/>
      <point x="178" y="344"/>
      <point x="154" y="344" type="curve" smooth="yes"/>
      <point x="145" y="344"/>
      <point x="140" y="339"/>
      <point x="140" y="331" type="curve" smooth="yes"/>
      <point x="140" y="309"/>
      <point x="203" y="261"/>
    </contour>
    <contour>
      <point x="169" y="113" type="curve" smooth="yes"/>
      <point x="188" y="113"/>
      <point x="237" y="178"/>
      <point x="237" y="202" type="curve" smooth="yes"/>
      <point x="237" y="206"/>
      <point x="236" y="208"/>
      <point x="234" y="208" type="curve" smooth="yes"/>
      <point x="221" y="208"/>
      <point x="156" y="152"/>
      <point x="156" y="127" type="curve" smooth="yes"/>
      <point x="156" y="118"/>
      <point x="160" y="113"/>
    </contour>
    <contour>
      <point x="136" y="209" type="curve" smooth="yes"/>
      <point x="194" y="210"/>
      <point x="222" y="226"/>
      <point x="222" y="234" type="curve" smooth="yes"/>
      <point x="222" y="241"/>
      <point x="202" y="245"/>
      <point x="163" y="245" type="curve" smooth="yes"/>
      <point x="125" y="245"/>
      <point x="105" y="238"/>
      <point x="105" y="224" type="curve" smooth="yes"/>
      <point x="105" y="214"/>
      <point x="116" y="209"/>
    </contour>
    <contour>
      <point x="275" y="80" type="curve" smooth="yes"/>
      <point x="285" y="80"/>
      <point x="290" y="90"/>
      <point x="290" y="109" type="curve" smooth="yes"/>
      <point x="290" y="150"/>
      <point x="276" y="197"/>
      <point x="266" y="197" type="curve" smooth="yes"/>
      <point x="258" y="197"/>
      <point x="254" y="177"/>
      <point x="254" y="136" type="curve" smooth="yes"/>
      <point x="254" y="99"/>
      <point x="261" y="80"/>
    </contour>
    <contour>
      <point x="372" y="130" type="curve" smooth="yes"/>
      <point x="381" y="130"/>
      <point x="386" y="134"/>
      <point x="386" y="143" type="curve" smooth="yes"/>
      <point x="386" y="166"/>
      <point x="319" y="212"/>
      <point x="297" y="212" type="curve" smooth="yes"/>
      <point x="293" y="212"/>
      <point x="292" y="211"/>
      <point x="292" y="208" type="curve" smooth="yes"/>
      <point x="292" y="192"/>
      <point x="347" y="130"/>
    </contour>
    <contour>
      <point x="259" y="276" type="curve" smooth="yes"/>
      <point x="268" y="276"/>
      <point x="271" y="296"/>
      <point x="271" y="336" type="curve" smooth="yes"/>
      <point x="271" y="375"/>
      <point x="265" y="394"/>
      <point x="250" y="394" type="curve" smooth="yes"/>
      <point x="240" y="394"/>
      <point x="235" y="384"/>
      <point x="235" y="365" type="curve" smooth="yes"/>
      <point x="235" y="306"/>
      <point x="252" y="276"/>
    </contour>
    <contour>
      <point x="363" y="228" type="curve" smooth="yes"/>
      <point x="400" y="228"/>
      <point x="419" y="235"/>
      <point x="419" y="250" type="curve" smooth="yes"/>
      <point x="419" y="259"/>
      <point x="409" y="264"/>
      <point x="388" y="264" type="curve" smooth="yes"/>
      <point x="357" y="264"/>
      <point x="302" y="251"/>
      <point x="302" y="240" type="curve" smooth="yes"/>
      <point x="302" y="231"/>
      <point x="322" y="228"/>
    </contour>
    <contour>
      <point x="292" y="266" type="curve"/>
      <point x="306" y="267"/>
      <point x="369" y="322"/>
      <point x="369" y="345" type="curve" smooth="yes"/>
      <point x="369" y="354"/>
      <point x="365" y="359"/>
      <point x="357" y="359" type="curve" smooth="yes"/>
      <point x="333" y="359"/>
      <point x="288" y="295"/>
      <point x="288" y="271" type="curve" smooth="yes"/>
      <point x="288" y="268"/>
      <point x="289" y="266"/>
    </contour>
  </outline>
</glyph>
<glyph name="Behx" format="2">
  <advance width="1175"/>
  <unicode hex="066E"/>
  <note>
Behx
</note>
  <outline>
    <contour>
      <point x="345" y="-17" type="curve" smooth="yes"/>
      <point x="476" y="-17"/>
      <point x="619" y="0"/>
      <point x="758" y="43" type="curve" smooth="yes"/>
      <point x="823" y="63"/>
      <point x="879" y="87"/>
      <point x="925" y="116" type="curve" smooth="yes"/>
      <point x="971" y="145"/>
      <point x="1005" y="174"/>
      <point x="1026" y="204" type="curve" smooth="yes"/>
      <point x="1067" y="262"/>
      <point x="1101" y="338"/>
      <point x="1117" y="407" type="curve"/>
      <point x="1097" y="413" type="line"/>
      <point x="1070" y="361"/>
      <point x="1044" y="313"/>
      <point x="937" y="256" type="curve" smooth="yes"/>
      <point x="813" y="190"/>
      <point x="590" y="147"/>
      <point x="411" y="147" type="curve" smooth="yes"/>
      <point x="193" y="147"/>
      <point x="112" y="162"/>
      <point x="112" y="269" type="curve" smooth="yes"/>
      <point x="112" y="281"/>
      <point x="112" y="292"/>
      <point x="113" y="301" type="curve"/>
      <point x="83" y="306" type="line"/>
      <point x="66" y="248"/>
      <point x="58" y="199"/>
      <point x="58" y="160" type="curve" smooth="yes"/>
      <point x="58" y="18"/>
      <point x="187" y="-17"/>
    </contour>
  </outline>
</glyph>
<glyph name="Qafx" format="2">
  <advance width="855"/>
  <unicode hex="066F"/>
  <note>
Qafx
</note>
  <outline>
    <contour>
      <point x="280" y="-341" type="curve" smooth="yes"/>
      <point x="371" y="-341"/>
      <point x="455" y="-312"/>
      <point x="530" y="-252" type="curve" smooth="yes"/>
      <point x="679" y="-133"/>
      <point x="780" y="97"/>
      <point x="780" y="344" type="curve" smooth="yes"/>
      <point x="780" y="428"/>
      <point x="743" y="523"/>
      <point x="672" y="523" type="curve" smooth="yes"/>
      <point x="643" y="523"/>
      <point x="619" y="507"/>
      <point x="604" y="476" type="curve" smooth="yes"/>
      <point x="572" y="410" type="line" smooth="yes"/>
      <point x="559" y="383"/>
      <point x="552" y="358"/>
      <point x="552" y="336" type="curve" smooth="yes"/>
      <point x="552" y="292"/>
      <point x="594" y="259"/>
      <point x="639" y="259" type="curve" smooth="yes"/>
      <point x="664" y="259"/>
      <point x="687" y="267"/>
      <point x="709" y="282" type="curve"/>
      <point x="718" y="268"/>
      <point x="722" y="247"/>
      <point x="722" y="218" type="curve" smooth="yes"/>
      <point x="722" y="153"/>
      <point x="704" y="90"/>
      <point x="667" y="28" type="curve" smooth="yes"/>
      <point x="579" y="-120"/>
      <point x="439" y="-162"/>
      <point x="329" y="-162" type="curve" smooth="yes"/>
      <point x="212" y="-162"/>
      <point x="95" y="-112"/>
      <point x="95" y="63" type="curve" smooth="yes"/>
      <point x="95" y="128"/>
      <point x="114" y="206"/>
      <point x="151" y="297" type="curve"/>
      <point x="123" y="308" type="line"/>
      <point x="52" y="159"/>
      <point x="28" y="40"/>
      <point x="28" y="-84" type="curve" smooth="yes"/>
      <point x="28" y="-238"/>
      <point x="126" y="-341"/>
    </contour>
  </outline>
</glyph>
<glyph name="AlefSuperiorNS" format="2">
  <unicode hex="0670"/>
  <note>
AlefSuperiorNS
</note>
  <outline>
    <contour>
      <point x="-5" y="851" type="line"/>
      <point x="14" y="893"/>
      <point x="28" y="945"/>
      <point x="30" y="989" type="curve" smooth="yes"/>
      <point x="31" y="1006" type="line" smooth="yes"/>
      <point x="33" y="1066"/>
      <point x="37" y="1097"/>
      <point x="40" y="1106" type="curve"/>
      <point x="29" y="1110" type="line"/>
      <point x="4" y="1061"/>
      <point x="-3" y="1042"/>
      <point x="-6" y="992" type="curve" smooth="yes"/>
      <point x="-10" y="914"/>
      <point x="-13" y="877"/>
      <point x="-17" y="854" type="curve"/>
    </contour>
  </outline>
</glyph>
<glyph name="AlefWasla" format="2">
  <advance width="330"/>
  <unicode hex="0671"/>
  <note>
AlefWasla
</note>
  <outline>
    <contour>
      <point x="123" y="101" type="line"/>
      <point x="165" y="199"/>
      <point x="187" y="291"/>
      <point x="192" y="377" type="curve" smooth="yes"/>
      <point x="208" y="659" type="line" smooth="yes"/>
      <point x="214" y="767"/>
      <point x="222" y="834"/>
      <point x="233" y="861" type="curve"/>
      <point x="212" y="869" type="line"/>
      <point x="137" y="702"/>
      <point x="132" y="663"/>
      <point x="128" y="544" type="curve" smooth="yes"/>
      <point x="119" y="295" type="line" smooth="yes"/>
      <point x="116" y="199"/>
      <point x="107" y="136"/>
      <point x="101" y="106" type="curve"/>
    </contour>
    <contour>
      <point x="89" y="1017" type="line"/>
      <point x="107" y="1036"/>
      <point x="117" y="1040"/>
      <point x="130" y="1040" type="curve" smooth="yes"/>
      <point x="139" y="1040"/>
      <point x="149" y="1037"/>
      <point x="162" y="1032" type="curve" smooth="yes"/>
      <point x="175" y="1027"/>
      <point x="186" y="1023"/>
      <point x="198" y="1023" type="curve" smooth="yes"/>
      <point x="284" y="1023"/>
      <point x="346" y="1109"/>
      <point x="346" y="1163" type="curve" smooth="yes"/>
      <point x="346" y="1177"/>
      <point x="336" y="1192"/>
      <point x="312" y="1192" type="curve" smooth="yes"/>
      <point x="288" y="1192"/>
      <point x="264" y="1182"/>
      <point x="241" y="1163" type="curve" smooth="yes"/>
      <point x="218" y="1144"/>
      <point x="200" y="1125"/>
      <point x="186" y="1107" type="curve" smooth="yes"/>
      <point x="168" y="1083" type="line"/>
      <point x="162" y="1086"/>
      <point x="155" y="1087"/>
      <point x="146" y="1087" type="curve" smooth="yes"/>
      <point x="119" y="1087"/>
      <point x="95" y="1062"/>
      <point x="80" y="1021" type="curve"/>
    </contour>
    <contour>
      <point x="210" y="1072" type="curve" smooth="yes"/>
      <point x="199" y="1072"/>
      <point x="194" y="1074"/>
      <point x="186" y="1077" type="curve"/>
      <point x="204" y="1097" type="line" smooth="yes"/>
      <point x="234" y="1131"/>
      <point x="254" y="1140"/>
      <point x="279" y="1140" type="curve" smooth="yes"/>
      <point x="286" y="1140"/>
      <point x="309" y="1137"/>
      <point x="309" y="1122" type="curve" smooth="yes"/>
      <point x="309" y="1096"/>
      <point x="244" y="1072"/>
    </contour>
  </outline>
</glyph>
